<?xml version="1.0" encoding="UTF-8" standalone="no"?>
<!DOCTYPE svg PUBLIC "-//W3C//DTD SVG 1.1//EN"
 "http://www.w3.org/Graphics/SVG/1.1/DTD/svg11.dtd">
<!-- Generated by graphviz version 2.44.0 ()
 -->
<!-- Title: beam_vdif.c Pages: 1 -->
<svg width="665pt" height="84pt"
 viewBox="0.00 0.00 665.00 84.00" xmlns="http://www.w3.org/2000/svg" xmlns:xlink="http://www.w3.org/1999/xlink">
<g id="graph0" class="graph" transform="scale(1 1) rotate(0) translate(4 80)">
<title>beam_vdif.c</title>
<polygon fill="white" stroke="transparent" points="-4,4 -4,-80 661,-80 661,4 -4,4"/>
<!-- Node1 -->
<g id="node1" class="node">
<title>Node1</title>
<g id="a_node1"><a xlink:title=" ">
<polygon fill="#bfbfbf" stroke="black" points="252,-56.5 252,-75.5 321,-75.5 321,-56.5 252,-56.5"/>
<text text-anchor="middle" x="286.5" y="-63.5" font-family="Helvetica,sans-Serif" font-size="10.00">beam_vdif.c</text>
</a>
</g>
</g>
<!-- Node2 -->
<g id="node2" class="node">
<title>Node2</title>
<g id="a_node2"><a xlink:title=" ">
<polygon fill="white" stroke="#bfbfbf" points="0,-0.5 0,-19.5 47,-19.5 47,-0.5 0,-0.5"/>
<text text-anchor="middle" x="23.5" y="-7.5" font-family="Helvetica,sans-Serif" font-size="10.00">stdlib.h</text>
</a>
</g>
</g>
<!-- Node1&#45;&gt;Node2 -->
<g id="edge1" class="edge">
<title>Node1&#45;&gt;Node2</title>
<path fill="none" stroke="midnightblue" d="M251.87,-59.17C208.47,-51.65 131.63,-37.7 57.22,-20.27"/>
<polygon fill="midnightblue" stroke="midnightblue" points="57.75,-16.8 47.21,-17.9 56.13,-23.61 57.75,-16.8"/>
</g>
<!-- Node3 -->
<g id="node3" class="node">
<title>Node3</title>
<g id="a_node3"><a xlink:title=" ">
<polygon fill="white" stroke="#bfbfbf" points="65,-0.5 65,-19.5 110,-19.5 110,-0.5 65,-0.5"/>
<text text-anchor="middle" x="87.5" y="-7.5" font-family="Helvetica,sans-Serif" font-size="10.00">stdio.h</text>
</a>
</g>
</g>
<!-- Node1&#45;&gt;Node3 -->
<g id="edge2" class="edge">
<title>Node1&#45;&gt;Node3</title>
<path fill="none" stroke="midnightblue" d="M254.46,-56.48C222.79,-48.03 172.7,-34.6 120.07,-20.14"/>
<polygon fill="midnightblue" stroke="midnightblue" points="120.79,-16.7 110.22,-17.42 118.93,-23.45 120.79,-16.7"/>
</g>
<!-- Node4 -->
<g id="node4" class="node">
<title>Node4</title>
<g id="a_node4"><a xlink:title=" ">
<polygon fill="white" stroke="#bfbfbf" points="128.5,-0.5 128.5,-19.5 176.5,-19.5 176.5,-0.5 128.5,-0.5"/>
<text text-anchor="middle" x="152.5" y="-7.5" font-family="Helvetica,sans-Serif" font-size="10.00">string.h</text>
</a>
</g>
</g>
<!-- Node1&#45;&gt;Node4 -->
<g id="edge3" class="edge">
<title>Node1&#45;&gt;Node4</title>
<path fill="none" stroke="midnightblue" d="M265.27,-56.44C243.12,-47.52 208.18,-33.44 183.06,-23.32"/>
<polygon fill="midnightblue" stroke="midnightblue" points="184.22,-20.01 173.63,-19.52 181.6,-26.5 184.22,-20.01"/>
</g>
<!-- Node5 -->
<g id="node5" class="node">
<title>Node5</title>
<g id="a_node5"><a xlink:title=" ">
<polygon fill="white" stroke="#bfbfbf" points="194.5,-0.5 194.5,-19.5 240.5,-19.5 240.5,-0.5 194.5,-0.5"/>
<text text-anchor="middle" x="217.5" y="-7.5" font-family="Helvetica,sans-Serif" font-size="10.00">math.h</text>
</a>
</g>
</g>
<!-- Node1&#45;&gt;Node5 -->
<g id="edge4" class="edge">
<title>Node1&#45;&gt;Node5</title>
<path fill="none" stroke="midnightblue" d="M275.41,-56.32C265.01,-48.18 249.24,-35.84 236.78,-26.09"/>
<polygon fill="midnightblue" stroke="midnightblue" points="238.82,-23.24 228.79,-19.83 234.51,-28.75 238.82,-23.24"/>
</g>
<!-- Node6 -->
<g id="node6" class="node">
<title>Node6</title>
<g id="a_node6"><a xlink:title=" ">
<polygon fill="white" stroke="#bfbfbf" points="259,-0.5 259,-19.5 314,-19.5 314,-0.5 259,-0.5"/>
<text text-anchor="middle" x="286.5" y="-7.5" font-family="Helvetica,sans-Serif" font-size="10.00">mwalib.h</text>
</a>
</g>
</g>
<!-- Node1&#45;&gt;Node6 -->
<g id="edge5" class="edge">
<title>Node1&#45;&gt;Node6</title>
<path fill="none" stroke="midnightblue" d="M286.5,-56.08C286.5,-49.01 286.5,-38.86 286.5,-29.99"/>
<polygon fill="midnightblue" stroke="midnightblue" points="290,-29.75 286.5,-19.75 283,-29.75 290,-29.75"/>
</g>
<!-- Node7 -->
<g id="node7" class="node">
<title>Node7</title>
<g id="a_node7"><a xlink:title=" ">
<polygon fill="white" stroke="#bfbfbf" points="332,-0.5 332,-19.5 379,-19.5 379,-0.5 332,-0.5"/>
<text text-anchor="middle" x="355.5" y="-7.5" font-family="Helvetica,sans-Serif" font-size="10.00">vdifio.h</text>
</a>
</g>
</g>
<!-- Node1&#45;&gt;Node7 -->
<g id="edge6" class="edge">
<title>Node1&#45;&gt;Node7</title>
<path fill="none" stroke="midnightblue" d="M297.59,-56.32C307.99,-48.18 323.76,-35.84 336.22,-26.09"/>
<polygon fill="midnightblue" stroke="midnightblue" points="338.49,-28.75 344.21,-19.83 334.18,-23.24 338.49,-28.75"/>
</g>
<!-- Node8 -->
<g id="node8" class="node">
<title>Node8</title>
<g id="a_node8"><a xlink:title=" ">
<polygon fill="white" stroke="#bfbfbf" points="397.5,-0.5 397.5,-19.5 461.5,-19.5 461.5,-0.5 397.5,-0.5"/>
<text text-anchor="middle" x="429.5" y="-7.5" font-family="Helvetica,sans-Serif" font-size="10.00">vcsbeam.h</text>
</a>
</g>
</g>
<!-- Node1&#45;&gt;Node8 -->
<g id="edge7" class="edge">
<title>Node1&#45;&gt;Node8</title>
<path fill="none" stroke="midnightblue" d="M309.16,-56.44C332.9,-47.48 370.41,-33.31 397.24,-23.18"/>
<polygon fill="midnightblue" stroke="midnightblue" points="398.83,-26.32 406.95,-19.52 396.36,-19.77 398.83,-26.32"/>
</g>
<!-- Node9 -->
<g id="node9" class="node">
<title>Node9</title>
<g id="a_node9"><a xlink:title=" ">
<polygon fill="white" stroke="#bfbfbf" points="479.5,-0.5 479.5,-19.5 559.5,-19.5 559.5,-0.5 479.5,-0.5"/>
<text text-anchor="middle" x="519.5" y="-7.5" font-family="Helvetica,sans-Serif" font-size="10.00">mwa_header.h</text>
</a>
</g>
</g>
<!-- Node1&#45;&gt;Node9 -->
<g id="edge8" class="edge">
<title>Node1&#45;&gt;Node9</title>
<path fill="none" stroke="midnightblue" d="M321.13,-56.97C361.44,-47.63 428.18,-32.16 472.99,-21.78"/>
<polygon fill="midnightblue" stroke="midnightblue" points="473.8,-25.18 482.75,-19.52 472.22,-18.36 473.8,-25.18"/>
</g>
<!-- Node10 -->
<g id="node10" class="node">
<title>Node10</title>
<g id="a_node10"><a xlink:title=" ">
<polygon fill="white" stroke="#bfbfbf" points="578,-0.5 578,-19.5 657,-19.5 657,-0.5 578,-0.5"/>
<text text-anchor="middle" x="617.5" y="-7.5" font-family="Helvetica,sans-Serif" font-size="10.00">ascii_header.h</text>
</a>
</g>
</g>
<!-- Node1&#45;&gt;Node10 -->
<g id="edge9" class="edge">
<title>Node1&#45;&gt;Node10</title>
<path fill="none" stroke="midnightblue" d="M321.27,-59.72C372.73,-51.85 472.45,-36.37 567.83,-20.08"/>
<polygon fill="midnightblue" stroke="midnightblue" points="568.67,-23.49 577.93,-18.35 567.49,-16.59 568.67,-23.49"/>
</g>
</g>
</svg>
