<?xml version="1.0" encoding="UTF-8" standalone="no"?>
<!DOCTYPE svg PUBLIC "-//W3C//DTD SVG 1.1//EN"
 "http://www.w3.org/Graphics/SVG/1.1/DTD/svg11.dtd">
<!-- Generated by graphviz version 2.44.0 ()
 -->
<!-- Title: beam_psrfits.c Pages: 1 -->
<svg width="760pt" height="84pt"
 viewBox="0.00 0.00 759.50 84.00" xmlns="http://www.w3.org/2000/svg" xmlns:xlink="http://www.w3.org/1999/xlink">
<g id="graph0" class="graph" transform="scale(1 1) rotate(0) translate(4 80)">
<title>beam_psrfits.c</title>
<polygon fill="white" stroke="transparent" points="-4,4 -4,-80 755.5,-80 755.5,4 -4,4"/>
<!-- Node1 -->
<g id="node1" class="node">
<title>Node1</title>
<g id="a_node1"><a xlink:title=" ">
<polygon fill="#bfbfbf" stroke="black" points="300.5,-56.5 300.5,-75.5 380.5,-75.5 380.5,-56.5 300.5,-56.5"/>
<text text-anchor="middle" x="340.5" y="-63.5" font-family="Helvetica,sans-Serif" font-size="10.00">beam_psrfits.c</text>
</a>
</g>
</g>
<!-- Node2 -->
<g id="node2" class="node">
<title>Node2</title>
<g id="a_node2"><a xlink:title=" ">
<polygon fill="white" stroke="#bfbfbf" points="0,-0.5 0,-19.5 45,-19.5 45,-0.5 0,-0.5"/>
<text text-anchor="middle" x="22.5" y="-7.5" font-family="Helvetica,sans-Serif" font-size="10.00">stdio.h</text>
</a>
</g>
</g>
<!-- Node1&#45;&gt;Node2 -->
<g id="edge1" class="edge">
<title>Node1&#45;&gt;Node2</title>
<path fill="none" stroke="midnightblue" d="M300.27,-60.33C246.39,-53.72 147.68,-40.35 54.92,-20.1"/>
<polygon fill="midnightblue" stroke="midnightblue" points="55.62,-16.67 45.1,-17.92 54.11,-23.5 55.62,-16.67"/>
</g>
<!-- Node3 -->
<g id="node3" class="node">
<title>Node3</title>
<g id="a_node3"><a xlink:title=" ">
<polygon fill="white" stroke="#bfbfbf" points="63,-0.5 63,-19.5 110,-19.5 110,-0.5 63,-0.5"/>
<text text-anchor="middle" x="86.5" y="-7.5" font-family="Helvetica,sans-Serif" font-size="10.00">stdlib.h</text>
</a>
</g>
</g>
<!-- Node1&#45;&gt;Node3 -->
<g id="edge2" class="edge">
<title>Node1&#45;&gt;Node3</title>
<path fill="none" stroke="midnightblue" d="M300.4,-57.65C258.07,-49.71 189.19,-36.29 120.39,-20.09"/>
<polygon fill="midnightblue" stroke="midnightblue" points="120.78,-16.58 110.25,-17.68 119.17,-23.39 120.78,-16.58"/>
</g>
<!-- Node4 -->
<g id="node4" class="node">
<title>Node4</title>
<g id="a_node4"><a xlink:title=" ">
<polygon fill="white" stroke="#bfbfbf" points="128.5,-0.5 128.5,-19.5 176.5,-19.5 176.5,-0.5 128.5,-0.5"/>
<text text-anchor="middle" x="152.5" y="-7.5" font-family="Helvetica,sans-Serif" font-size="10.00">string.h</text>
</a>
</g>
</g>
<!-- Node1&#45;&gt;Node4 -->
<g id="edge3" class="edge">
<title>Node1&#45;&gt;Node4</title>
<path fill="none" stroke="midnightblue" d="M310.71,-56.44C276.97,-46.75 222.1,-30.99 186.66,-20.81"/>
<polygon fill="midnightblue" stroke="midnightblue" points="187.35,-17.37 176.77,-17.97 185.41,-24.1 187.35,-17.37"/>
</g>
<!-- Node5 -->
<g id="node5" class="node">
<title>Node5</title>
<g id="a_node5"><a xlink:title=" ">
<polygon fill="white" stroke="#bfbfbf" points="195,-0.5 195,-19.5 238,-19.5 238,-0.5 195,-0.5"/>
<text text-anchor="middle" x="216.5" y="-7.5" font-family="Helvetica,sans-Serif" font-size="10.00">time.h</text>
</a>
</g>
</g>
<!-- Node1&#45;&gt;Node5 -->
<g id="edge4" class="edge">
<title>Node1&#45;&gt;Node5</title>
<path fill="none" stroke="midnightblue" d="M320.85,-56.44C300.54,-47.6 268.6,-33.69 245.4,-23.59"/>
<polygon fill="midnightblue" stroke="midnightblue" points="246.62,-20.3 236.06,-19.52 243.83,-26.72 246.62,-20.3"/>
</g>
<!-- Node6 -->
<g id="node6" class="node">
<title>Node6</title>
<g id="a_node6"><a xlink:title=" ">
<polygon fill="white" stroke="#bfbfbf" points="256.5,-0.5 256.5,-19.5 302.5,-19.5 302.5,-0.5 256.5,-0.5"/>
<text text-anchor="middle" x="279.5" y="-7.5" font-family="Helvetica,sans-Serif" font-size="10.00">math.h</text>
</a>
</g>
</g>
<!-- Node1&#45;&gt;Node6 -->
<g id="edge5" class="edge">
<title>Node1&#45;&gt;Node6</title>
<path fill="none" stroke="midnightblue" d="M330.7,-56.32C321.68,-48.34 308.09,-36.31 297.18,-26.65"/>
<polygon fill="midnightblue" stroke="midnightblue" points="299.29,-23.84 289.48,-19.83 294.65,-29.08 299.29,-23.84"/>
</g>
<!-- Node7 -->
<g id="node7" class="node">
<title>Node7</title>
<g id="a_node7"><a xlink:title=" ">
<polygon fill="white" stroke="#bfbfbf" points="320.5,-0.5 320.5,-19.5 360.5,-19.5 360.5,-0.5 320.5,-0.5"/>
<text text-anchor="middle" x="340.5" y="-7.5" font-family="Helvetica,sans-Serif" font-size="10.00">mpi.h</text>
</a>
</g>
</g>
<!-- Node1&#45;&gt;Node7 -->
<g id="edge6" class="edge">
<title>Node1&#45;&gt;Node7</title>
<path fill="none" stroke="midnightblue" d="M340.5,-56.08C340.5,-49.01 340.5,-38.86 340.5,-29.99"/>
<polygon fill="midnightblue" stroke="midnightblue" points="344,-29.75 340.5,-19.75 337,-29.75 344,-29.75"/>
</g>
<!-- Node8 -->
<g id="node8" class="node">
<title>Node8</title>
<g id="a_node8"><a xlink:title=" ">
<polygon fill="white" stroke="#bfbfbf" points="379,-0.5 379,-19.5 434,-19.5 434,-0.5 379,-0.5"/>
<text text-anchor="middle" x="406.5" y="-7.5" font-family="Helvetica,sans-Serif" font-size="10.00">mwalib.h</text>
</a>
</g>
</g>
<!-- Node1&#45;&gt;Node8 -->
<g id="edge7" class="edge">
<title>Node1&#45;&gt;Node8</title>
<path fill="none" stroke="midnightblue" d="M351.1,-56.32C360.96,-48.26 375.85,-36.08 387.72,-26.37"/>
<polygon fill="midnightblue" stroke="midnightblue" points="390.18,-28.88 395.7,-19.83 385.75,-23.46 390.18,-28.88"/>
</g>
<!-- Node9 -->
<g id="node9" class="node">
<title>Node9</title>
<g id="a_node9"><a xlink:title=" ">
<polygon fill="white" stroke="#bfbfbf" points="452.5,-0.5 452.5,-19.5 508.5,-19.5 508.5,-0.5 452.5,-0.5"/>
<text text-anchor="middle" x="480.5" y="-7.5" font-family="Helvetica,sans-Serif" font-size="10.00">star/pal.h</text>
</a>
</g>
</g>
<!-- Node1&#45;&gt;Node9 -->
<g id="edge8" class="edge">
<title>Node1&#45;&gt;Node9</title>
<path fill="none" stroke="midnightblue" d="M362.68,-56.44C385.93,-47.48 422.65,-33.31 448.92,-23.18"/>
<polygon fill="midnightblue" stroke="midnightblue" points="450.35,-26.38 458.42,-19.52 447.83,-19.85 450.35,-26.38"/>
</g>
<!-- Node10 -->
<g id="node10" class="node">
<title>Node10</title>
<g id="a_node10"><a xlink:title=" ">
<polygon fill="white" stroke="#bfbfbf" points="526,-0.5 526,-19.5 601,-19.5 601,-0.5 526,-0.5"/>
<text text-anchor="middle" x="563.5" y="-7.5" font-family="Helvetica,sans-Serif" font-size="10.00">star/palmac.h</text>
</a>
</g>
</g>
<!-- Node1&#45;&gt;Node10 -->
<g id="edge9" class="edge">
<title>Node1&#45;&gt;Node10</title>
<path fill="none" stroke="midnightblue" d="M375.84,-56.44C414.41,-47.1 476.28,-32.12 518.35,-21.93"/>
<polygon fill="midnightblue" stroke="midnightblue" points="519.43,-25.27 528.33,-19.52 517.79,-18.47 519.43,-25.27"/>
</g>
<!-- Node11 -->
<g id="node11" class="node">
<title>Node11</title>
<g id="a_node11"><a xlink:title=" ">
<polygon fill="white" stroke="#bfbfbf" points="619.5,-0.5 619.5,-19.5 669.5,-19.5 669.5,-0.5 619.5,-0.5"/>
<text text-anchor="middle" x="644.5" y="-7.5" font-family="Helvetica,sans-Serif" font-size="10.00">psrfits.h</text>
</a>
</g>
</g>
<!-- Node1&#45;&gt;Node11 -->
<g id="edge10" class="edge">
<title>Node1&#45;&gt;Node11</title>
<path fill="none" stroke="midnightblue" d="M380.52,-59.53C431.47,-52.3 522.36,-38.52 609.28,-20.1"/>
<polygon fill="midnightblue" stroke="midnightblue" points="610.27,-23.47 619.31,-17.95 608.8,-16.62 610.27,-23.47"/>
</g>
<!-- Node12 -->
<g id="node12" class="node">
<title>Node12</title>
<g id="a_node12"><a xlink:title=" ">
<polygon fill="white" stroke="#bfbfbf" points="687.5,-0.5 687.5,-19.5 751.5,-19.5 751.5,-0.5 687.5,-0.5"/>
<text text-anchor="middle" x="719.5" y="-7.5" font-family="Helvetica,sans-Serif" font-size="10.00">vcsbeam.h</text>
</a>
</g>
</g>
<!-- Node1&#45;&gt;Node12 -->
<g id="edge11" class="edge">
<title>Node1&#45;&gt;Node12</title>
<path fill="none" stroke="midnightblue" d="M380.73,-60.75C442.44,-53.98 564.36,-39.67 677.46,-20.06"/>
<polygon fill="midnightblue" stroke="midnightblue" points="678.08,-23.5 687.32,-18.33 676.87,-16.61 678.08,-23.5"/>
</g>
</g>
</svg>
