<?xml version="1.0" encoding="UTF-8" standalone="no"?>
<!DOCTYPE svg PUBLIC "-//W3C//DTD SVG 1.1//EN"
 "http://www.w3.org/Graphics/SVG/1.1/DTD/svg11.dtd">
<!-- Generated by graphviz version 2.44.0 ()
 -->
<!-- Title: buffer.c Pages: 1 -->
<svg width="402pt" height="84pt"
 viewBox="0.00 0.00 401.50 84.00" xmlns="http://www.w3.org/2000/svg" xmlns:xlink="http://www.w3.org/1999/xlink">
<g id="graph0" class="graph" transform="scale(1 1) rotate(0) translate(4 80)">
<title>buffer.c</title>
<polygon fill="white" stroke="transparent" points="-4,4 -4,-80 397.5,-80 397.5,4 -4,4"/>
<!-- Node1 -->
<g id="node1" class="node">
<title>Node1</title>
<g id="a_node1"><a xlink:title=" ">
<polygon fill="#bfbfbf" stroke="black" points="157.5,-56.5 157.5,-75.5 205.5,-75.5 205.5,-56.5 157.5,-56.5"/>
<text text-anchor="middle" x="181.5" y="-63.5" font-family="Helvetica,sans-Serif" font-size="10.00">buffer.c</text>
</a>
</g>
</g>
<!-- Node2 -->
<g id="node2" class="node">
<title>Node2</title>
<g id="a_node2"><a xlink:title=" ">
<polygon fill="white" stroke="#bfbfbf" points="0,-0.5 0,-19.5 47,-19.5 47,-0.5 0,-0.5"/>
<text text-anchor="middle" x="23.5" y="-7.5" font-family="Helvetica,sans-Serif" font-size="10.00">stdlib.h</text>
</a>
</g>
</g>
<!-- Node1&#45;&gt;Node2 -->
<g id="edge1" class="edge">
<title>Node1&#45;&gt;Node2</title>
<path fill="none" stroke="midnightblue" d="M157.16,-56.68C130.25,-47.48 86.75,-32.62 56.72,-22.35"/>
<polygon fill="midnightblue" stroke="midnightblue" points="57.69,-18.99 47.09,-19.06 55.42,-25.61 57.69,-18.99"/>
</g>
<!-- Node3 -->
<g id="node3" class="node">
<title>Node3</title>
<g id="a_node3"><a xlink:title=" ">
<polygon fill="white" stroke="#bfbfbf" points="65,-0.5 65,-19.5 110,-19.5 110,-0.5 65,-0.5"/>
<text text-anchor="middle" x="87.5" y="-7.5" font-family="Helvetica,sans-Serif" font-size="10.00">stdio.h</text>
</a>
</g>
</g>
<!-- Node1&#45;&gt;Node3 -->
<g id="edge2" class="edge">
<title>Node1&#45;&gt;Node3</title>
<path fill="none" stroke="midnightblue" d="M166.4,-56.32C151.6,-47.82 128.81,-34.73 111.52,-24.8"/>
<polygon fill="midnightblue" stroke="midnightblue" points="112.98,-21.6 102.57,-19.65 109.49,-27.67 112.98,-21.6"/>
</g>
<!-- Node4 -->
<g id="node4" class="node">
<title>Node4</title>
<g id="a_node4"><a xlink:title=" ">
<polygon fill="white" stroke="#bfbfbf" points="128,-0.5 128,-19.5 171,-19.5 171,-0.5 128,-0.5"/>
<text text-anchor="middle" x="149.5" y="-7.5" font-family="Helvetica,sans-Serif" font-size="10.00">time.h</text>
</a>
</g>
</g>
<!-- Node1&#45;&gt;Node4 -->
<g id="edge3" class="edge">
<title>Node1&#45;&gt;Node4</title>
<path fill="none" stroke="midnightblue" d="M176.22,-56.08C171.79,-48.61 165.34,-37.72 159.88,-28.52"/>
<polygon fill="midnightblue" stroke="midnightblue" points="162.79,-26.57 154.69,-19.75 156.77,-30.14 162.79,-26.57"/>
</g>
<!-- Node5 -->
<g id="node5" class="node">
<title>Node5</title>
<g id="a_node5"><a xlink:title=" ">
<polygon fill="white" stroke="#bfbfbf" points="189.5,-0.5 189.5,-19.5 237.5,-19.5 237.5,-0.5 189.5,-0.5"/>
<text text-anchor="middle" x="213.5" y="-7.5" font-family="Helvetica,sans-Serif" font-size="10.00">string.h</text>
</a>
</g>
</g>
<!-- Node1&#45;&gt;Node5 -->
<g id="edge4" class="edge">
<title>Node1&#45;&gt;Node5</title>
<path fill="none" stroke="midnightblue" d="M186.78,-56.08C191.21,-48.61 197.66,-37.72 203.12,-28.52"/>
<polygon fill="midnightblue" stroke="midnightblue" points="206.23,-30.14 208.31,-19.75 200.21,-26.57 206.23,-30.14"/>
</g>
<!-- Node6 -->
<g id="node6" class="node">
<title>Node6</title>
<g id="a_node6"><a xlink:title=" ">
<polygon fill="white" stroke="#bfbfbf" points="256,-0.5 256,-19.5 311,-19.5 311,-0.5 256,-0.5"/>
<text text-anchor="middle" x="283.5" y="-7.5" font-family="Helvetica,sans-Serif" font-size="10.00">mwalib.h</text>
</a>
</g>
</g>
<!-- Node1&#45;&gt;Node6 -->
<g id="edge5" class="edge">
<title>Node1&#45;&gt;Node6</title>
<path fill="none" stroke="midnightblue" d="M197.89,-56.32C214.17,-47.7 239.37,-34.36 258.22,-24.39"/>
<polygon fill="midnightblue" stroke="midnightblue" points="259.95,-27.43 267.15,-19.65 256.68,-21.24 259.95,-27.43"/>
</g>
<!-- Node7 -->
<g id="node7" class="node">
<title>Node7</title>
<g id="a_node7"><a xlink:title=" ">
<polygon fill="white" stroke="#bfbfbf" points="329.5,-0.5 329.5,-19.5 393.5,-19.5 393.5,-0.5 329.5,-0.5"/>
<text text-anchor="middle" x="361.5" y="-7.5" font-family="Helvetica,sans-Serif" font-size="10.00">vcsbeam.h</text>
</a>
</g>
</g>
<!-- Node1&#45;&gt;Node7 -->
<g id="edge6" class="edge">
<title>Node1&#45;&gt;Node7</title>
<path fill="none" stroke="midnightblue" d="M205.78,-57.72C235.82,-48.7 287.35,-33.24 322.86,-22.59"/>
<polygon fill="midnightblue" stroke="midnightblue" points="324.29,-25.82 332.87,-19.59 322.28,-19.11 324.29,-25.82"/>
</g>
</g>
</svg>
