<?xml version="1.0" encoding="UTF-8" standalone="no"?>
<!DOCTYPE svg PUBLIC "-//W3C//DTD SVG 1.1//EN"
 "http://www.w3.org/Graphics/SVG/1.1/DTD/svg11.dtd">
<!-- Generated by graphviz version 2.44.0 ()
 -->
<!-- Title: calibration.c Pages: 1 -->
<svg width="500pt" height="84pt"
 viewBox="0.00 0.00 500.00 84.00" xmlns="http://www.w3.org/2000/svg" xmlns:xlink="http://www.w3.org/1999/xlink">
<g id="graph0" class="graph" transform="scale(1 1) rotate(0) translate(4 80)">
<title>calibration.c</title>
<polygon fill="white" stroke="transparent" points="-4,4 -4,-80 496,-80 496,4 -4,4"/>
<!-- Node1 -->
<g id="node1" class="node">
<title>Node1</title>
<g id="a_node1"><a xlink:title=" ">
<polygon fill="#bfbfbf" stroke="black" points="182.5,-56.5 182.5,-75.5 250.5,-75.5 250.5,-56.5 182.5,-56.5"/>
<text text-anchor="middle" x="216.5" y="-63.5" font-family="Helvetica,sans-Serif" font-size="10.00">calibration.c</text>
</a>
</g>
</g>
<!-- Node2 -->
<g id="node2" class="node">
<title>Node2</title>
<g id="a_node2"><a xlink:title=" ">
<polygon fill="white" stroke="#bfbfbf" points="0,-0.5 0,-19.5 47,-19.5 47,-0.5 0,-0.5"/>
<text text-anchor="middle" x="23.5" y="-7.5" font-family="Helvetica,sans-Serif" font-size="10.00">stdlib.h</text>
</a>
</g>
</g>
<!-- Node1&#45;&gt;Node2 -->
<g id="edge1" class="edge">
<title>Node1&#45;&gt;Node2</title>
<path fill="none" stroke="midnightblue" d="M185.93,-56.47C155.5,-47.98 107.21,-34.49 56.99,-20.42"/>
<polygon fill="midnightblue" stroke="midnightblue" points="57.84,-17.02 47.26,-17.69 55.95,-23.76 57.84,-17.02"/>
</g>
<!-- Node3 -->
<g id="node3" class="node">
<title>Node3</title>
<g id="a_node3"><a xlink:title=" ">
<polygon fill="white" stroke="#bfbfbf" points="65,-0.5 65,-19.5 110,-19.5 110,-0.5 65,-0.5"/>
<text text-anchor="middle" x="87.5" y="-7.5" font-family="Helvetica,sans-Serif" font-size="10.00">stdio.h</text>
</a>
</g>
</g>
<!-- Node1&#45;&gt;Node3 -->
<g id="edge2" class="edge">
<title>Node1&#45;&gt;Node3</title>
<path fill="none" stroke="midnightblue" d="M196.06,-56.44C174.83,-47.56 141.4,-33.56 117.25,-23.45"/>
<polygon fill="midnightblue" stroke="midnightblue" points="118.42,-20.15 107.84,-19.52 115.72,-26.61 118.42,-20.15"/>
</g>
<!-- Node4 -->
<g id="node4" class="node">
<title>Node4</title>
<g id="a_node4"><a xlink:title=" ">
<polygon fill="white" stroke="#bfbfbf" points="128.5,-0.5 128.5,-19.5 174.5,-19.5 174.5,-0.5 128.5,-0.5"/>
<text text-anchor="middle" x="151.5" y="-7.5" font-family="Helvetica,sans-Serif" font-size="10.00">math.h</text>
</a>
</g>
</g>
<!-- Node1&#45;&gt;Node4 -->
<g id="edge3" class="edge">
<title>Node1&#45;&gt;Node4</title>
<path fill="none" stroke="midnightblue" d="M206.06,-56.32C196.35,-48.26 181.68,-36.08 170,-26.37"/>
<polygon fill="midnightblue" stroke="midnightblue" points="172.06,-23.53 162.13,-19.83 167.59,-28.92 172.06,-23.53"/>
</g>
<!-- Node5 -->
<g id="node5" class="node">
<title>Node5</title>
<g id="a_node5"><a xlink:title=" ">
<polygon fill="white" stroke="#bfbfbf" points="192.5,-0.5 192.5,-19.5 240.5,-19.5 240.5,-0.5 192.5,-0.5"/>
<text text-anchor="middle" x="216.5" y="-7.5" font-family="Helvetica,sans-Serif" font-size="10.00">string.h</text>
</a>
</g>
</g>
<!-- Node1&#45;&gt;Node5 -->
<g id="edge4" class="edge">
<title>Node1&#45;&gt;Node5</title>
<path fill="none" stroke="midnightblue" d="M216.5,-56.08C216.5,-49.01 216.5,-38.86 216.5,-29.99"/>
<polygon fill="midnightblue" stroke="midnightblue" points="220,-29.75 216.5,-19.75 213,-29.75 220,-29.75"/>
</g>
<!-- Node6 -->
<g id="node6" class="node">
<title>Node6</title>
<g id="a_node6"><a xlink:title=" ">
<polygon fill="white" stroke="#bfbfbf" points="259,-0.5 259,-19.5 314,-19.5 314,-0.5 259,-0.5"/>
<text text-anchor="middle" x="286.5" y="-7.5" font-family="Helvetica,sans-Serif" font-size="10.00">mwalib.h</text>
</a>
</g>
</g>
<!-- Node1&#45;&gt;Node6 -->
<g id="edge5" class="edge">
<title>Node1&#45;&gt;Node6</title>
<path fill="none" stroke="midnightblue" d="M227.75,-56.32C238.3,-48.18 254.3,-35.84 266.94,-26.09"/>
<polygon fill="midnightblue" stroke="midnightblue" points="269.27,-28.71 275.05,-19.83 264.99,-23.17 269.27,-28.71"/>
</g>
<!-- Node7 -->
<g id="node7" class="node">
<title>Node7</title>
<g id="a_node7"><a xlink:title=" ">
<polygon fill="white" stroke="#bfbfbf" points="332.5,-0.5 332.5,-19.5 396.5,-19.5 396.5,-0.5 332.5,-0.5"/>
<text text-anchor="middle" x="364.5" y="-7.5" font-family="Helvetica,sans-Serif" font-size="10.00">vcsbeam.h</text>
</a>
</g>
</g>
<!-- Node1&#45;&gt;Node7 -->
<g id="edge6" class="edge">
<title>Node1&#45;&gt;Node7</title>
<path fill="none" stroke="midnightblue" d="M239.95,-56.44C264.63,-47.44 303.69,-33.19 331.48,-23.05"/>
<polygon fill="midnightblue" stroke="midnightblue" points="332.96,-26.23 341.16,-19.52 330.56,-19.66 332.96,-26.23"/>
</g>
<!-- Node8 -->
<g id="node8" class="node">
<title>Node8</title>
<g id="a_node8"><a xlink:title=" ">
<polygon fill="white" stroke="#bfbfbf" points="415,-0.5 415,-19.5 492,-19.5 492,-0.5 415,-0.5"/>
<text text-anchor="middle" x="453.5" y="-7.5" font-family="Helvetica,sans-Serif" font-size="10.00">gpu_macros.h</text>
</a>
</g>
</g>
<!-- Node1&#45;&gt;Node8 -->
<g id="edge7" class="edge">
<title>Node1&#45;&gt;Node8</title>
<path fill="none" stroke="midnightblue" d="M250.71,-57.21C291.59,-47.89 360.21,-32.26 406.16,-21.79"/>
<polygon fill="midnightblue" stroke="midnightblue" points="407.2,-25.14 416.17,-19.5 405.65,-18.31 407.2,-25.14"/>
</g>
</g>
</svg>
