<?xml version="1.0" encoding="UTF-8" standalone="no"?>
<!DOCTYPE svg PUBLIC "-//W3C//DTD SVG 1.1//EN"
 "http://www.w3.org/Graphics/SVG/1.1/DTD/svg11.dtd">
<!-- Generated by graphviz version 2.44.0 ()
 -->
<!-- Title: overview Pages: 1 -->
<svg width="234pt" height="372pt"
 viewBox="0.00 0.00 234.00 371.50" xmlns="http://www.w3.org/2000/svg" xmlns:xlink="http://www.w3.org/1999/xlink">
<g id="graph0" class="graph" transform="scale(1 1) rotate(0) translate(4 367.5)">
<title>overview</title>
<polygon fill="white" stroke="transparent" points="-4,4 -4,-367.5 230,-367.5 230,4 -4,4"/>
<!-- mwax -->
<g id="node1" class="node">
<title>mwax</title>
<path fill="green" stroke="black" d="M111,-358.85C111,-361.49 86.12,-363.63 55.5,-363.63 24.88,-363.63 0,-361.49 0,-358.85 0,-358.85 0,-315.9 0,-315.9 0,-313.26 24.88,-311.12 55.5,-311.12 86.12,-311.12 111,-313.26 111,-315.9 111,-315.9 111,-358.85 111,-358.85"/>
<path fill="none" stroke="black" d="M111,-358.85C111,-356.22 86.12,-354.08 55.5,-354.08 24.88,-354.08 0,-356.22 0,-358.85"/>
<text text-anchor="middle" x="55.5" y="-341.18" font-family="Times,serif" font-size="14.00">MWAX</text>
<text text-anchor="middle" x="55.5" y="-326.18" font-family="Times,serif" font-size="14.00">(coarse channels)</text>
</g>
<!-- forwardpfb -->
<g id="node3" class="node">
<title>forwardpfb</title>
<polygon fill="lightgrey" stroke="black" points="20.5,-236.75 20.5,-274.75 130.5,-274.75 130.5,-236.75 20.5,-236.75"/>
<text text-anchor="middle" x="75.5" y="-259.55" font-family="Times,serif" font-size="14.00">Analysis PFB</text>
<text text-anchor="middle" x="75.5" y="-244.55" font-family="Times,serif" font-size="14.00">(→fine channels)</text>
</g>
<!-- mwax&#45;&gt;forwardpfb -->
<g id="edge1" class="edge">
<title>mwax&#45;&gt;forwardpfb</title>
<path fill="none" stroke="black" d="M61.83,-311.18C63.91,-302.89 66.24,-293.61 68.38,-285.1"/>
<polygon fill="black" stroke="black" points="71.82,-285.77 70.86,-275.22 65.03,-284.06 71.82,-285.77"/>
</g>
<!-- legacy -->
<g id="node2" class="node">
<title>legacy</title>
<path fill="green" stroke="black" d="M226,-358.85C226,-361.49 204.26,-363.63 177.5,-363.63 150.74,-363.63 129,-361.49 129,-358.85 129,-358.85 129,-315.9 129,-315.9 129,-313.26 150.74,-311.12 177.5,-311.12 204.26,-311.12 226,-313.26 226,-315.9 226,-315.9 226,-358.85 226,-358.85"/>
<path fill="none" stroke="black" d="M226,-358.85C226,-356.22 204.26,-354.08 177.5,-354.08 150.74,-354.08 129,-356.22 129,-358.85"/>
<text text-anchor="middle" x="177.5" y="-341.18" font-family="Times,serif" font-size="14.00">Legacy</text>
<text text-anchor="middle" x="177.5" y="-326.18" font-family="Times,serif" font-size="14.00">(fine channels)</text>
</g>
<!-- beamforming -->
<g id="node7" class="node">
<title>beamforming</title>
<polygon fill="lightgrey" stroke="black" points="70,-163.75 70,-199.75 163,-199.75 163,-163.75 70,-163.75"/>
<text text-anchor="middle" x="116.5" y="-178.05" font-family="Times,serif" font-size="14.00">Beamforming</text>
</g>
<!-- legacy&#45;&gt;beamforming -->
<g id="edge3" class="edge">
<title>legacy&#45;&gt;beamforming</title>
<path fill="none" stroke="black" d="M168.27,-311.16C160.76,-290.84 149.75,-261.59 139.5,-236.25 135.92,-227.4 131.85,-217.79 128.14,-209.2"/>
<polygon fill="black" stroke="black" points="131.35,-207.79 124.15,-200.02 124.93,-210.58 131.35,-207.79"/>
</g>
<!-- forwardpfb&#45;&gt;beamforming -->
<g id="edge2" class="edge">
<title>forwardpfb&#45;&gt;beamforming</title>
<path fill="none" stroke="black" d="M85.85,-236.58C90.61,-228.21 96.36,-218.11 101.59,-208.94"/>
<polygon fill="black" stroke="black" points="104.67,-210.59 106.58,-200.17 98.59,-207.13 104.67,-210.59"/>
</g>
<!-- inversepfb -->
<g id="node4" class="node">
<title>inversepfb</title>
<polygon fill="lightgrey" stroke="black" points="9.5,-88.75 9.5,-126.75 133.5,-126.75 133.5,-88.75 9.5,-88.75"/>
<text text-anchor="middle" x="71.5" y="-111.55" font-family="Times,serif" font-size="14.00">Synthesis PFB</text>
<text text-anchor="middle" x="71.5" y="-96.55" font-family="Times,serif" font-size="14.00">(→coarse channels)</text>
</g>
<!-- vdif -->
<g id="node6" class="node">
<title>vdif</title>
<path fill="green" stroke="black" d="M111,-47.6C111,-50.24 86.12,-52.38 55.5,-52.38 24.88,-52.38 0,-50.24 0,-47.6 0,-47.6 0,-4.65 0,-4.65 0,-2.01 24.88,0.13 55.5,0.13 86.12,0.13 111,-2.01 111,-4.65 111,-4.65 111,-47.6 111,-47.6"/>
<path fill="none" stroke="black" d="M111,-47.6C111,-44.97 86.12,-42.83 55.5,-42.83 24.88,-42.83 0,-44.97 0,-47.6"/>
<text text-anchor="middle" x="55.5" y="-29.93" font-family="Times,serif" font-size="14.00">VDIF</text>
<text text-anchor="middle" x="55.5" y="-14.93" font-family="Times,serif" font-size="14.00">(coarse channels)</text>
</g>
<!-- inversepfb&#45;&gt;vdif -->
<g id="edge6" class="edge">
<title>inversepfb&#45;&gt;vdif</title>
<path fill="none" stroke="black" d="M67.87,-88.68C66.3,-80.88 64.41,-71.47 62.59,-62.39"/>
<polygon fill="black" stroke="black" points="65.97,-61.48 60.57,-52.36 59.11,-62.86 65.97,-61.48"/>
</g>
<!-- psrfits -->
<g id="node5" class="node">
<title>psrfits</title>
<path fill="green" stroke="black" d="M226,-47.6C226,-50.24 204.26,-52.38 177.5,-52.38 150.74,-52.38 129,-50.24 129,-47.6 129,-47.6 129,-4.65 129,-4.65 129,-2.01 150.74,0.13 177.5,0.13 204.26,0.13 226,-2.01 226,-4.65 226,-4.65 226,-47.6 226,-47.6"/>
<path fill="none" stroke="black" d="M226,-47.6C226,-44.97 204.26,-42.83 177.5,-42.83 150.74,-42.83 129,-44.97 129,-47.6"/>
<text text-anchor="middle" x="177.5" y="-29.93" font-family="Times,serif" font-size="14.00">PSRFITS</text>
<text text-anchor="middle" x="177.5" y="-14.93" font-family="Times,serif" font-size="14.00">(fine channels)</text>
</g>
<!-- beamforming&#45;&gt;inversepfb -->
<g id="edge5" class="edge">
<title>beamforming&#45;&gt;inversepfb</title>
<path fill="none" stroke="black" d="M105.84,-163.69C100.6,-155.3 94.16,-145.01 88.28,-135.6"/>
<polygon fill="black" stroke="black" points="91.14,-133.57 82.87,-126.95 85.21,-137.28 91.14,-133.57"/>
</g>
<!-- beamforming&#45;&gt;psrfits -->
<g id="edge4" class="edge">
<title>beamforming&#45;&gt;psrfits</title>
<path fill="none" stroke="black" d="M125.45,-163.63C130.72,-153.25 137.34,-139.64 142.5,-127.25 151.36,-105.97 159.92,-81.56 166.36,-62.17"/>
<polygon fill="black" stroke="black" points="169.73,-63.12 169.52,-52.53 163.08,-60.94 169.73,-63.12"/>
</g>
</g>
</svg>
