<?xml version="1.0" encoding="UTF-8" standalone="no"?>
<!DOCTYPE svg PUBLIC "-//W3C//DTD SVG 1.1//EN"
 "http://www.w3.org/Graphics/SVG/1.1/DTD/svg11.dtd">
<!-- Generated by graphviz version 2.44.0 ()
 -->
<!-- Title: overview Pages: 1 -->
<!--zoomable 961 -->
<svg id="main" version="1.1" xmlns="http://www.w3.org/2000/svg" xmlns:xlink="http://www.w3.org/1999/xlink" xml:space="preserve" onload="init(evt)">
<style type="text/css"><![CDATA[
.edge:hover path { stroke: red; }
.edge:hover polygon { stroke: red; fill: red; }
]]></style>
<script type="text/javascript"><![CDATA[
var edges = document.getElementsByTagName('g');
if (edges && edges.length) {
  for (var i=0;i<edges.length;i++) {
    if (edges[i].id.substr(0,4)=='edge') {
      edges[i].setAttribute('class','edge');
    }
  }
}
]]></script>
        <defs>
                <circle id="rim" cx="0" cy="0" r="7"/>
                <circle id="rim2" cx="0" cy="0" r="3.5"/>
                <g id="zoomPlus">
                        <use xlink:href="#rim" fill="#404040">
                                <set attributeName="fill" to="#808080" begin="zoomplus.mouseover" end="zoomplus.mouseout"/>
                        </use>
                        <path d="M-4,0h8M0,-4v8" fill="none" stroke="white" stroke-width="1.5" pointer-events="none"/>
                </g>
                <g id="zoomMin">
                        <use xlink:href="#rim" fill="#404040">
                                <set attributeName="fill" to="#808080" begin="zoomminus.mouseover" end="zoomminus.mouseout"/>
                        </use>
                        <path d="M-4,0h8" fill="none" stroke="white" stroke-width="1.5" pointer-events="none"/>
                </g>
                <g id="dirArrow">
                        <path fill="none" stroke="white" stroke-width="1.5" d="M0,-3.0v7 M-2.5,-0.5L0,-3.0L2.5,-0.5"/>
                </g>
               <g id="resetDef">
                       <use xlink:href="#rim2" fill="#404040">
                               <set attributeName="fill" to="#808080" begin="reset.mouseover" end="reset.mouseout"/>
                       </use>
               </g>
        </defs>

<script type="text/javascript">
var viewWidth = 716;
var viewHeight = 961;
</script>
<script xlink:href="svgpan.js"/>
<svg id="graph" class="graph">
<g id="viewport">
<title>overview</title>
<polygon fill="white" stroke="transparent" points="-4,4 -4,-956.75 712,-956.75 712,4 -4,4"/>
<!-- targetobs -->
<g id="node1" class="node">
<title>targetobs</title>
<ellipse fill="lightgrey" stroke="black" cx="109" cy="-909.75" rx="43" ry="43"/>
<text text-anchor="middle" x="109" y="-913.55" font-family="Times,serif" font-size="14.00">Target</text>
<text text-anchor="middle" x="109" y="-898.55" font-family="Times,serif" font-size="14.00">Obs</text>
</g>
<!-- date -->
<g id="node4" class="node">
<title>date</title>
<polygon fill="yellow" stroke="black" points="109,-824.75 35,-786.75 109,-748.75 183,-786.75 109,-824.75"/>
<text text-anchor="middle" x="109" y="-790.55" font-family="Times,serif" font-size="14.00">Before</text>
<text text-anchor="middle" x="109" y="-775.55" font-family="Times,serif" font-size="14.00">Sep 2021?</text>
</g>
<!-- targetobs&#45;&gt;date -->
<g id="edge1" class="edge">
<title>targetobs&#45;&gt;date</title>
<path fill="none" stroke="black" d="M109,-866.43C109,-856.31 109,-845.44 109,-835.11"/>
<polygon fill="black" stroke="black" points="112.5,-835.01 109,-825.01 105.5,-835.01 112.5,-835.01"/>
</g>
<!-- calobs -->
<g id="node2" class="node">
<title>calobs</title>
<ellipse fill="lightgrey" stroke="black" cx="550" cy="-909.75" rx="43" ry="43"/>
<text text-anchor="middle" x="550" y="-913.55" font-family="Times,serif" font-size="14.00">Calibration</text>
<text text-anchor="middle" x="550" y="-898.55" font-family="Times,serif" font-size="14.00">Obs</text>
</g>
<!-- calvcs -->
<g id="node3" class="node">
<title>calvcs</title>
<polygon fill="yellow" stroke="black" points="550,-829.75 460,-786.75 550,-743.75 640,-786.75 550,-829.75"/>
<text text-anchor="middle" x="550" y="-790.55" font-family="Times,serif" font-size="14.00">Is data VCS or</text>
<text text-anchor="middle" x="550" y="-775.55" font-family="Times,serif" font-size="14.00">correlated visibilities?</text>
</g>
<!-- calobs&#45;&gt;calvcs -->
<g id="edge14" class="edge">
<title>calobs&#45;&gt;calvcs</title>
<path fill="none" stroke="black" d="M550,-866.43C550,-857.91 550,-848.85 550,-840.04"/>
<polygon fill="black" stroke="black" points="553.5,-839.84 550,-829.84 546.5,-839.84 553.5,-839.84"/>
</g>
<!-- date2 -->
<g id="node5" class="node">
<title>date2</title>
<polygon fill="yellow" stroke="black" points="473,-692.75 399,-654.75 473,-616.75 547,-654.75 473,-692.75"/>
<text text-anchor="middle" x="473" y="-658.55" font-family="Times,serif" font-size="14.00">Before</text>
<text text-anchor="middle" x="473" y="-643.55" font-family="Times,serif" font-size="14.00">Sep 2021?</text>
</g>
<!-- calvcs&#45;&gt;date2 -->
<g id="edge15" class="edge">
<title>calvcs&#45;&gt;date2</title>
<path fill="none" stroke="black" d="M530.57,-752.95C519.72,-734.63 506.18,-711.76 494.95,-692.81"/>
<polygon fill="black" stroke="black" points="497.92,-690.95 489.81,-684.13 491.89,-694.52 497.92,-690.95"/>
<text text-anchor="middle" x="528" y="-714.55" font-family="Times,serif" font-size="14.00">VCS</text>
</g>
<!-- rts -->
<g id="node16" class="node">
<title>rts</title>
<g id="a_node16"><a xlink:href="usersguidecalibration.html" target="_top" xlink:title="RTS/Hyperdrive">
<polygon fill="lightgrey" stroke="black" points="392.5,-380 392.5,-416 499.5,-416 499.5,-380 392.5,-380"/>
<text text-anchor="middle" x="446" y="-394.3" font-family="Times,serif" font-size="14.00" fill="blue">RTS/Hyperdrive</text>
</a>
</g>
</g>
<!-- calvcs&#45;&gt;rts -->
<g id="edge20" class="edge">
<title>calvcs&#45;&gt;rts</title>
<path fill="none" stroke="black" d="M566.62,-751.59C577.61,-725.87 590,-689.4 590,-655.75 590,-655.75 590,-655.75 590,-478.62 590,-439.12 547.98,-419.06 509.34,-408.97"/>
<polygon fill="black" stroke="black" points="510.16,-405.56 499.62,-406.61 508.51,-412.37 510.16,-405.56"/>
<text text-anchor="middle" x="649" y="-557.55" font-family="Times,serif" font-size="14.00">Correlated visibilities</text>
</g>
<!-- raw -->
<g id="node6" class="node">
<title>raw</title>
<path fill="green" stroke="black" d="M98,-676.23C98,-678.86 76.04,-681 49,-681 21.96,-681 0,-678.86 0,-676.23 0,-676.23 0,-633.27 0,-633.27 0,-630.64 21.96,-628.5 49,-628.5 76.04,-628.5 98,-630.64 98,-633.27 98,-633.27 98,-676.23 98,-676.23"/>
<path fill="none" stroke="black" d="M98,-676.23C98,-673.59 76.04,-671.45 49,-671.45 21.96,-671.45 0,-673.59 0,-676.23"/>
<text text-anchor="middle" x="49" y="-658.55" font-family="Times,serif" font-size="14.00">Fine channel</text>
<text text-anchor="middle" x="49" y="-643.55" font-family="Times,serif" font-size="14.00">voltages (.raw)</text>
</g>
<!-- date&#45;&gt;raw -->
<g id="edge2" class="edge">
<title>date&#45;&gt;raw</title>
<path fill="none" stroke="black" d="M95.08,-755.6C86.06,-736.04 74.28,-710.51 64.88,-690.16"/>
<polygon fill="black" stroke="black" points="67.99,-688.54 60.62,-680.93 61.63,-691.48 67.99,-688.54"/>
<text text-anchor="middle" x="41.41" y="-722.18" font-family="Times,serif" font-size="14.00">Yes (Legacy)</text>
</g>
<!-- sub -->
<g id="node7" class="node">
<title>sub</title>
<path fill="green" stroke="black" d="M217.5,-676.23C217.5,-678.86 194.87,-681 167,-681 139.13,-681 116.5,-678.86 116.5,-676.23 116.5,-676.23 116.5,-633.27 116.5,-633.27 116.5,-630.64 139.13,-628.5 167,-628.5 194.87,-628.5 217.5,-630.64 217.5,-633.27 217.5,-633.27 217.5,-676.23 217.5,-676.23"/>
<path fill="none" stroke="black" d="M217.5,-676.23C217.5,-673.59 194.87,-671.45 167,-671.45 139.13,-671.45 116.5,-673.59 116.5,-676.23"/>
<text text-anchor="middle" x="167" y="-658.55" font-family="Times,serif" font-size="14.00">Coarse channel</text>
<text text-anchor="middle" x="167" y="-643.55" font-family="Times,serif" font-size="14.00">voltages (.sub)</text>
</g>
<!-- date&#45;&gt;sub -->
<g id="edge3" class="edge">
<title>date&#45;&gt;sub</title>
<path fill="none" stroke="black" d="M122.45,-755.6C131.18,-736.04 142.57,-710.51 151.65,-690.16"/>
<polygon fill="black" stroke="black" points="154.89,-691.49 155.77,-680.93 148.49,-688.64 154.89,-691.49"/>
<text text-anchor="middle" x="179" y="-714.55" font-family="Times,serif" font-size="14.00">No (MWAX)</text>
</g>
<!-- offlinecorrlegacy -->
<g id="node18" class="node">
<title>offlinecorrlegacy</title>
<g id="a_node18"><a xlink:href="applicationsofflinecorrelator.html" target="_top" xlink:title="offline_correlator">
<polygon fill="lightgrey" stroke="black" points="264,-543.25 264,-579.25 374,-579.25 374,-543.25 264,-543.25"/>
<text text-anchor="middle" x="319" y="-557.55" font-family="Times,serif" font-size="14.00" fill="blue">offline_correlator</text>
</a>
</g>
</g>
<!-- date2&#45;&gt;offlinecorrlegacy -->
<g id="edge16" class="edge">
<title>date2&#45;&gt;offlinecorrlegacy</title>
<path fill="none" stroke="black" d="M439.58,-633.9C415.05,-619.32 381.72,-599.52 356.32,-584.42"/>
<polygon fill="black" stroke="black" points="358.08,-581.4 347.69,-579.3 354.5,-587.41 358.08,-581.4"/>
<text text-anchor="middle" x="383" y="-610.31" font-family="Times,serif" font-size="14.00">Yes</text>
</g>
<!-- offlinecorrmwax -->
<g id="node19" class="node">
<title>offlinecorrmwax</title>
<g id="a_node19"><a xlink:href="https://wiki.mwatelescope.org/display/MP/MWAX+Offline+Correlator" target="_top" xlink:title="MWAX Offline Correlator">
<polygon fill="lightgrey" stroke="black" points="392,-543.25 392,-579.25 554,-579.25 554,-543.25 392,-543.25"/>
<text text-anchor="middle" x="473" y="-557.55" font-family="Times,serif" font-size="14.00" fill="blue">MWAX Offline Correlator</text>
</a>
</g>
</g>
<!-- date2&#45;&gt;offlinecorrmwax -->
<g id="edge17" class="edge">
<title>date2&#45;&gt;offlinecorrmwax</title>
<path fill="none" stroke="black" d="M473,-616.53C473,-607.49 473,-597.98 473,-589.5"/>
<polygon fill="black" stroke="black" points="476.5,-589.41 473,-579.41 469.5,-589.41 476.5,-589.41"/>
<text text-anchor="middle" x="464" y="-601.93" font-family="Times,serif" font-size="14.00">No</text>
</g>
<!-- recombine -->
<g id="node14" class="node">
<title>recombine</title>
<g id="a_node14"><a xlink:href="https://github.com/ICRAR/mwa-voltage.git" target="_top" xlink:title="recombine">
<polygon fill="lightgrey" stroke="black" points="12,-543.25 12,-579.25 86,-579.25 86,-543.25 12,-543.25"/>
<text text-anchor="middle" x="49" y="-557.55" font-family="Times,serif" font-size="14.00" fill="blue">recombine</text>
</a>
</g>
</g>
<!-- raw&#45;&gt;recombine -->
<g id="edge5" class="edge">
<title>raw&#45;&gt;recombine</title>
<path fill="none" stroke="black" d="M49,-628.26C49,-616.24 49,-601.87 49,-589.62"/>
<polygon fill="black" stroke="black" points="52.5,-589.51 49,-579.51 45.5,-589.51 52.5,-589.51"/>
</g>
<!-- tiedarray -->
<g id="node15" class="node">
<title>tiedarray</title>
<g id="a_node15"><a xlink:href="applicationsmakemwatiedarraybeam.html" target="_top" xlink:title="make_mwa_tied_array_beam">
<polygon fill="lightgrey" stroke="black" points="148,-216.75 148,-252.75 324,-252.75 324,-216.75 148,-216.75"/>
<text text-anchor="middle" x="236" y="-231.05" font-family="Times,serif" font-size="14.00" fill="blue">make_mwa_tied_array_beam</text>
</a>
</g>
</g>
<!-- sub&#45;&gt;tiedarray -->
<g id="edge4" class="edge">
<title>sub&#45;&gt;tiedarray</title>
<path fill="none" stroke="black" d="M199.88,-628.63C217.66,-612.02 236,-588.51 236,-562.25 236,-562.25 236,-562.25 236,-315.38 236,-298.02 236,-278.54 236,-263.19"/>
<polygon fill="black" stroke="black" points="239.5,-262.84 236,-252.84 232.5,-262.84 239.5,-262.84"/>
</g>
<!-- offlinepfb -->
<g id="node17" class="node">
<title>offlinepfb</title>
<g id="a_node17"><a xlink:href="applicationsfinepfboffline.html" target="_top" xlink:title="fine_pfb_offline">
<polygon fill="lightgrey" stroke="black" points="104,-543.25 104,-579.25 208,-579.25 208,-543.25 104,-543.25"/>
<text text-anchor="middle" x="156" y="-557.55" font-family="Times,serif" font-size="14.00" fill="blue">fine_pfb_offline</text>
</a>
</g>
</g>
<!-- sub&#45;&gt;offlinepfb -->
<g id="edge7" class="edge">
<title>sub&#45;&gt;offlinepfb</title>
<path fill="none" stroke="black" d="M163.94,-628.26C162.49,-616.24 160.76,-601.87 159.29,-589.62"/>
<polygon fill="black" stroke="black" points="162.74,-589.02 158.07,-579.51 155.79,-589.85 162.74,-589.02"/>
</g>
<!-- dat -->
<g id="node8" class="node">
<title>dat</title>
<path fill="green" stroke="black" d="M203,-501.1C203,-503.74 181.93,-505.88 156,-505.88 130.07,-505.88 109,-503.74 109,-501.1 109,-501.1 109,-458.15 109,-458.15 109,-455.51 130.07,-453.37 156,-453.37 181.93,-453.37 203,-455.51 203,-458.15 203,-458.15 203,-501.1 203,-501.1"/>
<path fill="none" stroke="black" d="M203,-501.1C203,-498.47 181.93,-496.33 156,-496.33 130.07,-496.33 109,-498.47 109,-501.1"/>
<text text-anchor="middle" x="156" y="-483.43" font-family="Times,serif" font-size="14.00">Recombined</text>
<text text-anchor="middle" x="156" y="-468.43" font-family="Times,serif" font-size="14.00">voltages (.dat)</text>
</g>
<!-- dat&#45;&gt;tiedarray -->
<g id="edge9" class="edge">
<title>dat&#45;&gt;tiedarray</title>
<path fill="none" stroke="black" d="M163.48,-453.22C175.18,-413.94 198.88,-336.21 222,-271.25 223.03,-268.35 224.15,-265.33 225.29,-262.33"/>
<polygon fill="black" stroke="black" points="228.56,-263.58 228.93,-253 222.04,-261.04 228.56,-263.58"/>
</g>
<!-- vis -->
<g id="node9" class="node">
<title>vis</title>
<path fill="green" stroke="black" d="M498.5,-501.1C498.5,-503.74 474.97,-505.88 446,-505.88 417.03,-505.88 393.5,-503.74 393.5,-501.1 393.5,-501.1 393.5,-458.15 393.5,-458.15 393.5,-455.51 417.03,-453.37 446,-453.37 474.97,-453.37 498.5,-455.51 498.5,-458.15 498.5,-458.15 498.5,-501.1 498.5,-501.1"/>
<path fill="none" stroke="black" d="M498.5,-501.1C498.5,-498.47 474.97,-496.33 446,-496.33 417.03,-496.33 393.5,-498.47 393.5,-501.1"/>
<text text-anchor="middle" x="446" y="-483.43" font-family="Times,serif" font-size="14.00">Correlated</text>
<text text-anchor="middle" x="446" y="-468.43" font-family="Times,serif" font-size="14.00">visibilities (.fits)</text>
</g>
<!-- vis&#45;&gt;rts -->
<g id="edge21" class="edge">
<title>vis&#45;&gt;rts</title>
<path fill="none" stroke="black" d="M446,-453.43C446,-444.88 446,-435.28 446,-426.56"/>
<polygon fill="black" stroke="black" points="449.5,-426.47 446,-416.47 442.5,-426.47 449.5,-426.47"/>
</g>
<!-- outputchannelisation -->
<g id="node10" class="node">
<title>outputchannelisation</title>
<polygon fill="yellow" stroke="black" points="236,-179.25 135,-141.25 236,-103.25 337,-141.25 236,-179.25"/>
<text text-anchor="middle" x="236" y="-145.05" font-family="Times,serif" font-size="14.00">Output</text>
<text text-anchor="middle" x="236" y="-130.05" font-family="Times,serif" font-size="14.00">channelisation?</text>
</g>
<!-- psrfits -->
<g id="node11" class="node">
<title>psrfits</title>
<path fill="green" stroke="black" d="M230.5,-47.6C230.5,-50.24 212.8,-52.38 191,-52.38 169.2,-52.38 151.5,-50.24 151.5,-47.6 151.5,-47.6 151.5,-4.65 151.5,-4.65 151.5,-2.01 169.2,0.13 191,0.13 212.8,0.13 230.5,-2.01 230.5,-4.65 230.5,-4.65 230.5,-47.6 230.5,-47.6"/>
<path fill="none" stroke="black" d="M230.5,-47.6C230.5,-44.97 212.8,-42.83 191,-42.83 169.2,-42.83 151.5,-44.97 151.5,-47.6"/>
<text text-anchor="middle" x="191" y="-29.93" font-family="Times,serif" font-size="14.00">PSRFITS</text>
<text text-anchor="middle" x="191" y="-14.93" font-family="Times,serif" font-size="14.00">Full Stokes</text>
</g>
<!-- outputchannelisation&#45;&gt;psrfits -->
<g id="edge11" class="edge">
<title>outputchannelisation&#45;&gt;psrfits</title>
<path fill="none" stroke="black" d="M223.1,-107.83C217.41,-93.51 210.7,-76.64 204.89,-62.04"/>
<polygon fill="black" stroke="black" points="207.99,-60.36 201.04,-52.36 201.48,-62.94 207.99,-60.36"/>
<text text-anchor="middle" x="191.5" y="-83.7" font-family="Times,serif" font-size="14.00">10 kHz</text>
</g>
<!-- vdif -->
<g id="node12" class="node">
<title>vdif</title>
<path fill="green" stroke="black" d="M313,-47.6C313,-50.24 298.66,-52.38 281,-52.38 263.34,-52.38 249,-50.24 249,-47.6 249,-47.6 249,-4.65 249,-4.65 249,-2.01 263.34,0.13 281,0.13 298.66,0.13 313,-2.01 313,-4.65 313,-4.65 313,-47.6 313,-47.6"/>
<path fill="none" stroke="black" d="M313,-47.6C313,-44.97 298.66,-42.83 281,-42.83 263.34,-42.83 249,-44.97 249,-47.6"/>
<text text-anchor="middle" x="281" y="-29.93" font-family="Times,serif" font-size="14.00">VDIF</text>
<text text-anchor="middle" x="281" y="-14.93" font-family="Times,serif" font-size="14.00">Voltages</text>
</g>
<!-- outputchannelisation&#45;&gt;vdif -->
<g id="edge12" class="edge">
<title>outputchannelisation&#45;&gt;vdif</title>
<path fill="none" stroke="black" d="M248.9,-107.83C254.59,-93.51 261.3,-76.64 267.11,-62.04"/>
<polygon fill="black" stroke="black" points="270.52,-62.94 270.96,-52.36 264.01,-60.36 270.52,-62.94"/>
<text text-anchor="middle" x="291" y="-74.05" font-family="Times,serif" font-size="14.00">1.28 MHz</text>
</g>
<!-- calsol -->
<g id="node13" class="node">
<title>calsol</title>
<path fill="green" stroke="black" d="M462.5,-337.85C462.5,-340.49 434.49,-342.63 400,-342.63 365.51,-342.63 337.5,-340.49 337.5,-337.85 337.5,-337.85 337.5,-294.9 337.5,-294.9 337.5,-292.26 365.51,-290.12 400,-290.12 434.49,-290.12 462.5,-292.26 462.5,-294.9 462.5,-294.9 462.5,-337.85 462.5,-337.85"/>
<path fill="none" stroke="black" d="M462.5,-337.85C462.5,-335.22 434.49,-333.08 400,-333.08 365.51,-333.08 337.5,-335.22 337.5,-337.85"/>
<text text-anchor="middle" x="400" y="-320.18" font-family="Times,serif" font-size="14.00">Calibration solution</text>
<text text-anchor="middle" x="400" y="-305.18" font-family="Times,serif" font-size="14.00">(.bin or RTS)</text>
</g>
<!-- calsol&#45;&gt;tiedarray -->
<g id="edge13" class="edge">
<title>calsol&#45;&gt;tiedarray</title>
<path fill="none" stroke="black" d="M350.35,-291.27C328.09,-280.46 302.05,-267.82 280.45,-257.33"/>
<polygon fill="black" stroke="black" points="281.7,-254.05 271.17,-252.83 278.64,-260.34 281.7,-254.05"/>
</g>
<!-- recombine&#45;&gt;dat -->
<g id="edge6" class="edge">
<title>recombine&#45;&gt;dat</title>
<path fill="none" stroke="black" d="M71.95,-543.17C84.38,-533.92 100.1,-522.22 114.58,-511.45"/>
<polygon fill="black" stroke="black" points="117,-514.01 122.93,-505.23 112.82,-508.4 117,-514.01"/>
</g>
<!-- tiedarray&#45;&gt;outputchannelisation -->
<g id="edge10" class="edge">
<title>tiedarray&#45;&gt;outputchannelisation</title>
<path fill="none" stroke="black" d="M236,-216.54C236,-208.78 236,-199.19 236,-189.52"/>
<polygon fill="black" stroke="black" points="239.5,-189.47 236,-179.47 232.5,-189.47 239.5,-189.47"/>
</g>
<!-- rts&#45;&gt;calsol -->
<g id="edge22" class="edge">
<title>rts&#45;&gt;calsol</title>
<path fill="none" stroke="black" d="M436.02,-379.72C431.24,-371.46 425.35,-361.26 419.73,-351.53"/>
<polygon fill="black" stroke="black" points="422.71,-349.69 414.68,-342.78 416.65,-353.19 422.71,-349.69"/>
</g>
<!-- offlinepfb&#45;&gt;dat -->
<g id="edge8" class="edge">
<title>offlinepfb&#45;&gt;dat</title>
<path fill="none" stroke="black" d="M156,-542.97C156,-535.13 156,-525.55 156,-516.27"/>
<polygon fill="black" stroke="black" points="159.5,-516.03 156,-506.03 152.5,-516.03 159.5,-516.03"/>
</g>
<!-- offlinecorrlegacy&#45;&gt;vis -->
<g id="edge18" class="edge">
<title>offlinecorrlegacy&#45;&gt;vis</title>
<path fill="none" stroke="black" d="M346.24,-543.17C361.26,-533.75 380.35,-521.78 397.8,-510.84"/>
<polygon fill="black" stroke="black" points="400.14,-513.51 406.75,-505.23 396.42,-507.58 400.14,-513.51"/>
</g>
<!-- offlinecorrmwax&#45;&gt;vis -->
<g id="edge19" class="edge">
<title>offlinecorrmwax&#45;&gt;vis</title>
<path fill="none" stroke="black" d="M467.14,-542.97C464.42,-534.96 461.09,-525.13 457.88,-515.67"/>
<polygon fill="black" stroke="black" points="461.14,-514.38 454.62,-506.03 454.51,-516.63 461.14,-514.38"/>
</g>
</g>
</svg>
        <g id="navigator" transform="translate(0 0)" fill="#404254">
                <rect fill="#f2f5e9" fill-opacity="0.5" stroke="#606060" stroke-width=".5" x="0" y="0" width="60" height="60"/>
                <use id="zoomplus" xlink:href="#zoomPlus" x="17" y="9" onmousedown="handleZoom(evt,'in')"/>
                <use id="zoomminus" xlink:href="#zoomMin" x="42" y="9" onmousedown="handleZoom(evt,'out')"/>
                <use id="reset" xlink:href="#resetDef" x="30" y="36" onmousedown="handleReset()"/>
                <g id="arrowUp" xlink:href="#dirArrow" transform="translate(30 24)" onmousedown="handlePan(0,-1)">
                  <use xlink:href="#rim" fill="#404040">
                        <set attributeName="fill" to="#808080" begin="arrowUp.mouseover" end="arrowUp.mouseout"/>
                  </use>
                  <path fill="none" stroke="white" stroke-width="1.5" d="M0,-3.0v7 M-2.5,-0.5L0,-3.0L2.5,-0.5"/>
                </g>
                <g id="arrowRight" xlink:href="#dirArrow" transform="rotate(90) translate(36 -43)" onmousedown="handlePan(1,0)">
                  <use xlink:href="#rim" fill="#404040">
                        <set attributeName="fill" to="#808080" begin="arrowRight.mouseover" end="arrowRight.mouseout"/>
                  </use>
                  <path fill="none" stroke="white" stroke-width="1.5" d="M0,-3.0v7 M-2.5,-0.5L0,-3.0L2.5,-0.5"/>
                </g>
                <g id="arrowDown" xlink:href="#dirArrow" transform="rotate(180) translate(-30 -48)" onmousedown="handlePan(0,1)">
                  <use xlink:href="#rim" fill="#404040">
                        <set attributeName="fill" to="#808080" begin="arrowDown.mouseover" end="arrowDown.mouseout"/>
                  </use>
                  <path fill="none" stroke="white" stroke-width="1.5" d="M0,-3.0v7 M-2.5,-0.5L0,-3.0L2.5,-0.5"/>
                </g>
                <g id="arrowLeft" xlink:href="#dirArrow" transform="rotate(270) translate(-36 17)" onmousedown="handlePan(-1,0)">
                  <use xlink:href="#rim" fill="#404040">
                        <set attributeName="fill" to="#808080" begin="arrowLeft.mouseover" end="arrowLeft.mouseout"/>
                  </use>
                  <path fill="none" stroke="white" stroke-width="1.5" d="M0,-3.0v7 M-2.5,-0.5L0,-3.0L2.5,-0.5"/>
                </g>
        </g>
        <svg viewBox="0 0 15 15" width="100%" height="30px" preserveAspectRatio="xMaxYMin meet">
         <g id="arrow_out" transform="scale(0.3 0.3)">
          <a xlink:href="dot_beamforming_org.svg" target="_base">
           <rect id="button" ry="5" rx="5" y="6" x="6" height="38" width="38"
                fill="#f2f5e9" fill-opacity="0.5" stroke="#606060" stroke-width="1.0"/>
           <path id="arrow"
             d="M 11.500037,31.436501 C 11.940474,20.09759 22.043105,11.32322 32.158766,21.979434 L 37.068811,17.246167 C 37.068811,17.246167 37.088388,32 37.088388,32 L 22.160133,31.978069 C 22.160133,31.978069 26.997745,27.140456 26.997745,27.140456 C 18.528582,18.264221 13.291696,25.230495 11.500037,31.436501 z"
             style="fill:#404040;"/>
          </a>
         </g>
        </svg>
</svg>
