<?xml version="1.0" encoding="UTF-8" standalone="no"?>
<!DOCTYPE svg PUBLIC "-//W3C//DTD SVG 1.1//EN"
 "http://www.w3.org/Graphics/SVG/1.1/DTD/svg11.dtd">
<!-- Generated by graphviz version 2.44.0 ()
 -->
<!-- Title: overview Pages: 1 -->
<svg width="310pt" height="849pt"
 viewBox="0.00 0.00 310.00 848.75" xmlns="http://www.w3.org/2000/svg" xmlns:xlink="http://www.w3.org/1999/xlink">
<g id="graph0" class="graph" transform="scale(1 1) rotate(0) translate(4 844.75)">
<title>overview</title>
<polygon fill="white" stroke="transparent" points="-4,4 -4,-844.75 306,-844.75 306,4 -4,4"/>
<!-- targetobs -->
<g id="node1" class="node">
<title>targetobs</title>
<ellipse fill="lightgreen" stroke="black" cx="96.5" cy="-797.75" rx="43" ry="43"/>
<text text-anchor="middle" x="96.5" y="-801.55" font-family="Times,serif" font-size="14.00">Target</text>
<text text-anchor="middle" x="96.5" y="-786.55" font-family="Times,serif" font-size="14.00">Obs</text>
</g>
<!-- date -->
<g id="node3" class="node">
<title>date</title>
<polygon fill="#ffec8b" stroke="black" points="96.5,-717.75 6.5,-674.75 96.5,-631.75 186.5,-674.75 96.5,-717.75"/>
<text text-anchor="middle" x="96.5" y="-678.55" font-family="Times,serif" font-size="14.00">Before</text>
<text text-anchor="middle" x="96.5" y="-663.55" font-family="Times,serif" font-size="14.00">Sep 2021?</text>
</g>
<!-- targetobs&#45;&gt;date -->
<g id="edge1" class="edge">
<title>targetobs&#45;&gt;date</title>
<path fill="none" stroke="black" d="M96.5,-754.43C96.5,-745.91 96.5,-736.85 96.5,-728.04"/>
<polygon fill="black" stroke="black" points="100,-727.84 96.5,-717.84 93,-727.84 100,-727.84"/>
</g>
<!-- calobs -->
<g id="node2" class="node">
<title>calobs</title>
<ellipse fill="lightgreen" stroke="black" cx="245.5" cy="-797.75" rx="43" ry="43"/>
<text text-anchor="middle" x="245.5" y="-801.55" font-family="Times,serif" font-size="14.00">Calibration</text>
<text text-anchor="middle" x="245.5" y="-786.55" font-family="Times,serif" font-size="14.00">Obs</text>
</g>
<!-- callink -->
<g id="node13" class="node">
<title>callink</title>
<g id="a_node13"><a xlink:href="usersguidecalibration.html" target="_top" xlink:title="Calibration\nworkflow">
<ellipse fill="white" stroke="black" cx="245.5" cy="-573.75" rx="36" ry="36"/>
<ellipse fill="none" stroke="black" cx="245.5" cy="-573.75" rx="40" ry="40"/>
<text text-anchor="middle" x="245.5" y="-577.55" font-family="Times,serif" font-size="14.00" fill="blue">Calibration</text>
<text text-anchor="middle" x="245.5" y="-562.55" font-family="Times,serif" font-size="14.00" fill="blue">workflow</text>
</a>
</g>
</g>
<!-- calobs&#45;&gt;callink -->
<g id="edge14" class="edge">
<title>calobs&#45;&gt;callink</title>
<path fill="none" stroke="black" d="M245.5,-754.73C245.5,-717.58 245.5,-663.33 245.5,-624.12"/>
<polygon fill="black" stroke="black" points="249,-623.99 245.5,-613.99 242,-623.99 249,-623.99"/>
</g>
<!-- raw -->
<g id="node4" class="node">
<title>raw</title>
<path fill="lightskyblue" stroke="black" d="M217.5,-511.1C217.5,-513.74 195.54,-515.88 168.5,-515.88 141.46,-515.88 119.5,-513.74 119.5,-511.1 119.5,-511.1 119.5,-468.15 119.5,-468.15 119.5,-465.51 141.46,-463.37 168.5,-463.37 195.54,-463.37 217.5,-465.51 217.5,-468.15 217.5,-468.15 217.5,-511.1 217.5,-511.1"/>
<path fill="none" stroke="black" d="M217.5,-511.1C217.5,-508.47 195.54,-506.33 168.5,-506.33 141.46,-506.33 119.5,-508.47 119.5,-511.1"/>
<text text-anchor="middle" x="168.5" y="-493.43" font-family="Times,serif" font-size="14.00">Fine channel</text>
<text text-anchor="middle" x="168.5" y="-478.43" font-family="Times,serif" font-size="14.00">voltages (.raw)</text>
</g>
<!-- date&#45;&gt;raw -->
<g id="edge2" class="edge">
<title>date&#45;&gt;raw</title>
<path fill="none" stroke="black" d="M122.15,-643.82C128.95,-634.65 135.73,-624.21 140.5,-613.75 153.3,-585.71 160.49,-551.32 164.36,-526.02"/>
<polygon fill="black" stroke="black" points="167.83,-526.52 165.78,-516.12 160.9,-525.52 167.83,-526.52"/>
<text text-anchor="middle" x="115.52" y="-586.29" font-family="Times,serif" font-size="14.00">Yes (Legacy)</text>
</g>
<!-- sub -->
<g id="node5" class="node">
<title>sub</title>
<path fill="lightskyblue" stroke="black" d="M101,-511.1C101,-513.74 78.37,-515.88 50.5,-515.88 22.63,-515.88 0,-513.74 0,-511.1 0,-511.1 0,-468.15 0,-468.15 0,-465.51 22.63,-463.37 50.5,-463.37 78.37,-463.37 101,-465.51 101,-468.15 101,-468.15 101,-511.1 101,-511.1"/>
<path fill="none" stroke="black" d="M101,-511.1C101,-508.47 78.37,-506.33 50.5,-506.33 22.63,-506.33 0,-508.47 0,-511.1"/>
<text text-anchor="middle" x="50.5" y="-493.43" font-family="Times,serif" font-size="14.00">Coarse channel</text>
<text text-anchor="middle" x="50.5" y="-478.43" font-family="Times,serif" font-size="14.00">voltages (.sub)</text>
</g>
<!-- date&#45;&gt;sub -->
<g id="edge3" class="edge">
<title>date&#45;&gt;sub</title>
<path fill="none" stroke="black" d="M77.47,-640.62C73.27,-632.09 69.26,-622.77 66.5,-613.75 57.74,-585.07 53.78,-551.2 51.98,-526.25"/>
<polygon fill="black" stroke="black" points="55.47,-525.9 51.34,-516.14 48.48,-526.34 55.47,-525.9"/>
<text text-anchor="middle" x="103.5" y="-570.05" font-family="Times,serif" font-size="14.00">No (MWAX)</text>
</g>
<!-- recombine -->
<g id="node11" class="node">
<title>recombine</title>
<g id="a_node11"><a xlink:href="https://github.com/ICRAR/mwa-voltage.git" target="_top" xlink:title="recombine">
<polygon fill="lightgrey" stroke="black" points="137.5,-390 137.5,-426 211.5,-426 211.5,-390 137.5,-390"/>
<text text-anchor="middle" x="174.5" y="-404.3" font-family="Times,serif" font-size="14.00" fill="blue">recombine</text>
</a>
</g>
</g>
<!-- raw&#45;&gt;recombine -->
<g id="edge5" class="edge">
<title>raw&#45;&gt;recombine</title>
<path fill="none" stroke="black" d="M170.4,-463.43C171.04,-454.88 171.77,-445.28 172.42,-436.56"/>
<polygon fill="black" stroke="black" points="175.92,-436.71 173.18,-426.47 168.94,-436.18 175.92,-436.71"/>
</g>
<!-- tiedarray -->
<g id="node12" class="node">
<title>tiedarray</title>
<g id="a_node12"><a xlink:href="applicationsmakemwatiedarraybeam.html" target="_top" xlink:title="make_mwa_tied_array_beam">
<polygon fill="lightgrey" stroke="black" points="16.5,-226.75 16.5,-262.75 192.5,-262.75 192.5,-226.75 16.5,-226.75"/>
<text text-anchor="middle" x="104.5" y="-241.05" font-family="Times,serif" font-size="14.00" fill="blue">make_mwa_tied_array_beam</text>
</a>
</g>
</g>
<!-- sub&#45;&gt;tiedarray -->
<g id="edge4" class="edge">
<title>sub&#45;&gt;tiedarray</title>
<path fill="none" stroke="black" d="M27.26,-463.38C19.02,-452.8 10.75,-439.85 6.5,-426.5 1.51,-410.83 2.91,-405.55 6.5,-389.5 16.06,-346.72 23.05,-335.94 48.5,-300.25 56.33,-289.27 66.53,-278.6 76.07,-269.65"/>
<polygon fill="black" stroke="black" points="78.48,-272.19 83.52,-262.87 73.77,-267.01 78.48,-272.19"/>
</g>
<!-- offlinepfb -->
<g id="node14" class="node">
<title>offlinepfb</title>
<g id="a_node14"><a xlink:href="applicationsfinepfboffline.html" target="_top" xlink:title="fine_pfb_offline">
<polygon fill="lightgrey" stroke="black" points="15.5,-390 15.5,-426 119.5,-426 119.5,-390 15.5,-390"/>
<text text-anchor="middle" x="67.5" y="-404.3" font-family="Times,serif" font-size="14.00" fill="blue">fine_pfb_offline</text>
</a>
</g>
</g>
<!-- sub&#45;&gt;offlinepfb -->
<g id="edge7" class="edge">
<title>sub&#45;&gt;offlinepfb</title>
<path fill="none" stroke="black" d="M55.88,-463.43C57.72,-454.79 59.8,-445.07 61.68,-436.27"/>
<polygon fill="black" stroke="black" points="65.1,-436.98 63.77,-426.47 58.26,-435.52 65.1,-436.98"/>
</g>
<!-- dat -->
<g id="node6" class="node">
<title>dat</title>
<path fill="lightskyblue" stroke="black" d="M151.5,-347.85C151.5,-350.49 130.43,-352.63 104.5,-352.63 78.57,-352.63 57.5,-350.49 57.5,-347.85 57.5,-347.85 57.5,-304.9 57.5,-304.9 57.5,-302.26 78.57,-300.12 104.5,-300.12 130.43,-300.12 151.5,-302.26 151.5,-304.9 151.5,-304.9 151.5,-347.85 151.5,-347.85"/>
<path fill="none" stroke="black" d="M151.5,-347.85C151.5,-345.22 130.43,-343.08 104.5,-343.08 78.57,-343.08 57.5,-345.22 57.5,-347.85"/>
<text text-anchor="middle" x="104.5" y="-330.18" font-family="Times,serif" font-size="14.00">Recombined</text>
<text text-anchor="middle" x="104.5" y="-315.18" font-family="Times,serif" font-size="14.00">voltages (.dat)</text>
</g>
<!-- dat&#45;&gt;tiedarray -->
<g id="edge9" class="edge">
<title>dat&#45;&gt;tiedarray</title>
<path fill="none" stroke="black" d="M104.5,-300.18C104.5,-291.63 104.5,-282.03 104.5,-273.31"/>
<polygon fill="black" stroke="black" points="108,-273.22 104.5,-263.22 101,-273.22 108,-273.22"/>
</g>
<!-- outputchannelisation -->
<g id="node7" class="node">
<title>outputchannelisation</title>
<polygon fill="#ffec8b" stroke="black" points="104.5,-189.25 14.5,-146.25 104.5,-103.25 194.5,-146.25 104.5,-189.25"/>
<text text-anchor="middle" x="104.5" y="-150.05" font-family="Times,serif" font-size="14.00">Output</text>
<text text-anchor="middle" x="104.5" y="-135.05" font-family="Times,serif" font-size="14.00">channelisation?</text>
</g>
<!-- psrfits -->
<g id="node8" class="node">
<title>psrfits</title>
<path fill="lightskyblue" stroke="black" d="M99,-47.6C99,-50.24 81.3,-52.38 59.5,-52.38 37.7,-52.38 20,-50.24 20,-47.6 20,-47.6 20,-4.65 20,-4.65 20,-2.01 37.7,0.13 59.5,0.13 81.3,0.13 99,-2.01 99,-4.65 99,-4.65 99,-47.6 99,-47.6"/>
<path fill="none" stroke="black" d="M99,-47.6C99,-44.97 81.3,-42.83 59.5,-42.83 37.7,-42.83 20,-44.97 20,-47.6"/>
<text text-anchor="middle" x="59.5" y="-29.93" font-family="Times,serif" font-size="14.00">PSRFITS</text>
<text text-anchor="middle" x="59.5" y="-14.93" font-family="Times,serif" font-size="14.00">Full Stokes</text>
</g>
<!-- outputchannelisation&#45;&gt;psrfits -->
<g id="edge11" class="edge">
<title>outputchannelisation&#45;&gt;psrfits</title>
<path fill="none" stroke="black" d="M90.88,-109.49C85.1,-94.34 78.4,-76.75 72.68,-61.73"/>
<polygon fill="black" stroke="black" points="75.91,-60.37 69.08,-52.28 69.37,-62.87 75.91,-60.37"/>
<text text-anchor="middle" x="59.51" y="-84.77" font-family="Times,serif" font-size="14.00">10 kHz</text>
</g>
<!-- vdif -->
<g id="node9" class="node">
<title>vdif</title>
<path fill="lightskyblue" stroke="black" d="M181.5,-47.6C181.5,-50.24 167.16,-52.38 149.5,-52.38 131.84,-52.38 117.5,-50.24 117.5,-47.6 117.5,-47.6 117.5,-4.65 117.5,-4.65 117.5,-2.01 131.84,0.13 149.5,0.13 167.16,0.13 181.5,-2.01 181.5,-4.65 181.5,-4.65 181.5,-47.6 181.5,-47.6"/>
<path fill="none" stroke="black" d="M181.5,-47.6C181.5,-44.97 167.16,-42.83 149.5,-42.83 131.84,-42.83 117.5,-44.97 117.5,-47.6"/>
<text text-anchor="middle" x="149.5" y="-29.93" font-family="Times,serif" font-size="14.00">VDIF</text>
<text text-anchor="middle" x="149.5" y="-14.93" font-family="Times,serif" font-size="14.00">Voltages</text>
</g>
<!-- outputchannelisation&#45;&gt;vdif -->
<g id="edge12" class="edge">
<title>outputchannelisation&#45;&gt;vdif</title>
<path fill="none" stroke="black" d="M118.12,-109.49C123.9,-94.34 130.6,-76.75 136.32,-61.73"/>
<polygon fill="black" stroke="black" points="139.63,-62.87 139.92,-52.28 133.09,-60.37 139.63,-62.87"/>
<text text-anchor="middle" x="160.5" y="-74.05" font-family="Times,serif" font-size="14.00">1.28 MHz</text>
</g>
<!-- calsol -->
<g id="node10" class="node">
<title>calsol</title>
<path fill="lightskyblue" stroke="black" d="M302,-347.85C302,-350.49 273.99,-352.63 239.5,-352.63 205.01,-352.63 177,-350.49 177,-347.85 177,-347.85 177,-304.9 177,-304.9 177,-302.26 205.01,-300.12 239.5,-300.12 273.99,-300.12 302,-302.26 302,-304.9 302,-304.9 302,-347.85 302,-347.85"/>
<path fill="none" stroke="black" d="M302,-347.85C302,-345.22 273.99,-343.08 239.5,-343.08 205.01,-343.08 177,-345.22 177,-347.85"/>
<text text-anchor="middle" x="239.5" y="-330.18" font-family="Times,serif" font-size="14.00">Calibration solution</text>
<text text-anchor="middle" x="239.5" y="-315.18" font-family="Times,serif" font-size="14.00">(.bin or RTS)</text>
</g>
<!-- calsol&#45;&gt;tiedarray -->
<g id="edge13" class="edge">
<title>calsol&#45;&gt;tiedarray</title>
<path fill="none" stroke="black" d="M197.53,-300.62C179.86,-290.2 159.46,-278.17 142.27,-268.03"/>
<polygon fill="black" stroke="black" points="144,-264.99 133.61,-262.92 140.45,-271.02 144,-264.99"/>
</g>
<!-- recombine&#45;&gt;dat -->
<g id="edge6" class="edge">
<title>recombine&#45;&gt;dat</title>
<path fill="none" stroke="black" d="M159.31,-389.72C151.75,-381.12 142.35,-370.43 133.48,-360.34"/>
<polygon fill="black" stroke="black" points="136.07,-357.98 126.84,-352.78 130.81,-362.61 136.07,-357.98"/>
</g>
<!-- tiedarray&#45;&gt;outputchannelisation -->
<g id="edge10" class="edge">
<title>tiedarray&#45;&gt;outputchannelisation</title>
<path fill="none" stroke="black" d="M104.5,-226.5C104.5,-218.85 104.5,-209.41 104.5,-199.73"/>
<polygon fill="black" stroke="black" points="108,-199.64 104.5,-189.64 101,-199.64 108,-199.64"/>
</g>
<!-- callink&#45;&gt;calsol -->
<g id="edge15" class="edge">
<title>callink&#45;&gt;calsol</title>
<path fill="none" stroke="black" d="M244.54,-533.6C243.39,-486.5 241.47,-408.12 240.37,-362.77"/>
<polygon fill="black" stroke="black" points="243.86,-362.44 240.12,-352.53 236.86,-362.61 243.86,-362.44"/>
</g>
<!-- offlinepfb&#45;&gt;dat -->
<g id="edge8" class="edge">
<title>offlinepfb&#45;&gt;dat</title>
<path fill="none" stroke="black" d="M75.53,-389.72C79.29,-381.63 83.91,-371.68 88.35,-362.12"/>
<polygon fill="black" stroke="black" points="91.65,-363.33 92.69,-352.78 85.3,-360.38 91.65,-363.33"/>
</g>
</g>
</svg>
