<?xml version="1.0" encoding="UTF-8" standalone="no"?>
<!DOCTYPE svg PUBLIC "-//W3C//DTD SVG 1.1//EN"
 "http://www.w3.org/Graphics/SVG/1.1/DTD/svg11.dtd">
<!-- Generated by graphviz version 2.44.0 ()
 -->
<!-- Title: overview Pages: 1 -->
<svg width="294pt" height="368pt"
 viewBox="0.00 0.00 294.00 367.50" xmlns="http://www.w3.org/2000/svg" xmlns:xlink="http://www.w3.org/1999/xlink">
<g id="graph0" class="graph" transform="scale(1 1) rotate(0) translate(4 363.5)">
<title>overview</title>
<polygon fill="white" stroke="transparent" points="-4,4 -4,-363.5 290,-363.5 290,4 -4,4"/>
<!-- mwax -->
<g id="node1" class="node">
<title>mwax</title>
<path fill="green" stroke="black" d="M165,-354.85C165,-357.49 140.12,-359.63 109.5,-359.63 78.88,-359.63 54,-357.49 54,-354.85 54,-354.85 54,-311.9 54,-311.9 54,-309.26 78.88,-307.12 109.5,-307.12 140.12,-307.12 165,-309.26 165,-311.9 165,-311.9 165,-354.85 165,-354.85"/>
<path fill="none" stroke="black" d="M165,-354.85C165,-352.22 140.12,-350.08 109.5,-350.08 78.88,-350.08 54,-352.22 54,-354.85"/>
<text text-anchor="middle" x="109.5" y="-337.18" font-family="Times,serif" font-size="14.00">MWAX</text>
<text text-anchor="middle" x="109.5" y="-322.18" font-family="Times,serif" font-size="14.00">(coarse channels)</text>
</g>
<!-- forwardpfb -->
<g id="node3" class="node">
<title>forwardpfb</title>
<polygon fill="lightgrey" stroke="black" points="15,-234.75 15,-270.75 204,-270.75 204,-234.75 15,-234.75"/>
<text text-anchor="middle" x="109.5" y="-249.05" font-family="Times,serif" font-size="14.00">Analysis PFB (→fine channels)</text>
</g>
<!-- mwax&#45;&gt;forwardpfb -->
<g id="edge1" class="edge">
<title>mwax&#45;&gt;forwardpfb</title>
<path fill="none" stroke="black" d="M109.5,-307.06C109.5,-298.73 109.5,-289.43 109.5,-280.96"/>
<polygon fill="black" stroke="black" points="113,-280.82 109.5,-270.82 106,-280.82 113,-280.82"/>
</g>
<!-- legacy -->
<g id="node2" class="node">
<title>legacy</title>
<path fill="green" stroke="black" d="M281,-354.85C281,-357.49 259.26,-359.63 232.5,-359.63 205.74,-359.63 184,-357.49 184,-354.85 184,-354.85 184,-311.9 184,-311.9 184,-309.26 205.74,-307.12 232.5,-307.12 259.26,-307.12 281,-309.26 281,-311.9 281,-311.9 281,-354.85 281,-354.85"/>
<path fill="none" stroke="black" d="M281,-354.85C281,-352.22 259.26,-350.08 232.5,-350.08 205.74,-350.08 184,-352.22 184,-354.85"/>
<text text-anchor="middle" x="232.5" y="-337.18" font-family="Times,serif" font-size="14.00">Legacy</text>
<text text-anchor="middle" x="232.5" y="-322.18" font-family="Times,serif" font-size="14.00">(fine channels)</text>
</g>
<!-- beamforming -->
<g id="node7" class="node">
<title>beamforming</title>
<polygon fill="lightgrey" stroke="black" points="124,-161.75 124,-197.75 217,-197.75 217,-161.75 124,-161.75"/>
<text text-anchor="middle" x="170.5" y="-176.05" font-family="Times,serif" font-size="14.00">Beamforming</text>
</g>
<!-- legacy&#45;&gt;beamforming -->
<g id="edge3" class="edge">
<title>legacy&#45;&gt;beamforming</title>
<path fill="none" stroke="black" d="M230.98,-307.16C228.96,-286.7 224.3,-257.55 213.5,-234.25 208.79,-224.09 201.74,-214.18 194.71,-205.71"/>
<polygon fill="black" stroke="black" points="197.26,-203.3 188.05,-198.06 191.98,-207.9 197.26,-203.3"/>
</g>
<!-- forwardpfb&#45;&gt;beamforming -->
<g id="edge2" class="edge">
<title>forwardpfb&#45;&gt;beamforming</title>
<path fill="none" stroke="black" d="M124.27,-234.56C131.76,-225.84 141,-215.09 149.24,-205.5"/>
<polygon fill="black" stroke="black" points="152.01,-207.64 155.87,-197.78 146.7,-203.08 152.01,-207.64"/>
</g>
<!-- inversepfb -->
<g id="node4" class="node">
<title>inversepfb</title>
<polygon fill="lightgrey" stroke="black" points="0,-88.75 0,-124.75 209,-124.75 209,-88.75 0,-88.75"/>
<text text-anchor="middle" x="104.5" y="-103.05" font-family="Times,serif" font-size="14.00">Synthesis PFB (→coarse channels)</text>
</g>
<!-- vdif -->
<g id="node6" class="node">
<title>vdif</title>
<path fill="green" stroke="black" d="M160,-47.6C160,-50.24 135.12,-52.38 104.5,-52.38 73.88,-52.38 49,-50.24 49,-47.6 49,-47.6 49,-4.65 49,-4.65 49,-2.01 73.88,0.13 104.5,0.13 135.12,0.13 160,-2.01 160,-4.65 160,-4.65 160,-47.6 160,-47.6"/>
<path fill="none" stroke="black" d="M160,-47.6C160,-44.97 135.12,-42.83 104.5,-42.83 73.88,-42.83 49,-44.97 49,-47.6"/>
<text text-anchor="middle" x="104.5" y="-29.93" font-family="Times,serif" font-size="14.00">VDIF</text>
<text text-anchor="middle" x="104.5" y="-14.93" font-family="Times,serif" font-size="14.00">(coarse channels)</text>
</g>
<!-- inversepfb&#45;&gt;vdif -->
<g id="edge6" class="edge">
<title>inversepfb&#45;&gt;vdif</title>
<path fill="none" stroke="black" d="M104.5,-88.69C104.5,-81.01 104.5,-71.64 104.5,-62.56"/>
<polygon fill="black" stroke="black" points="108,-62.52 104.5,-52.52 101,-62.52 108,-62.52"/>
</g>
<!-- psrfits -->
<g id="node5" class="node">
<title>psrfits</title>
<path fill="green" stroke="black" d="M286,-47.6C286,-50.24 264.26,-52.38 237.5,-52.38 210.74,-52.38 189,-50.24 189,-47.6 189,-47.6 189,-4.65 189,-4.65 189,-2.01 210.74,0.13 237.5,0.13 264.26,0.13 286,-2.01 286,-4.65 286,-4.65 286,-47.6 286,-47.6"/>
<path fill="none" stroke="black" d="M286,-47.6C286,-44.97 264.26,-42.83 237.5,-42.83 210.74,-42.83 189,-44.97 189,-47.6"/>
<text text-anchor="middle" x="237.5" y="-29.93" font-family="Times,serif" font-size="14.00">PSRFITS</text>
<text text-anchor="middle" x="237.5" y="-14.93" font-family="Times,serif" font-size="14.00">(fine channels)</text>
</g>
<!-- beamforming&#45;&gt;inversepfb -->
<g id="edge5" class="edge">
<title>beamforming&#45;&gt;inversepfb</title>
<path fill="none" stroke="black" d="M154.52,-161.56C146.34,-152.75 136.22,-141.88 127.24,-132.21"/>
<polygon fill="black" stroke="black" points="129.7,-129.72 120.33,-124.78 124.57,-134.49 129.7,-129.72"/>
</g>
<!-- beamforming&#45;&gt;psrfits -->
<g id="edge4" class="edge">
<title>beamforming&#45;&gt;psrfits</title>
<path fill="none" stroke="black" d="M190.62,-161.33C200.51,-151.67 211.72,-138.88 218.5,-125.25 228.14,-105.85 232.9,-82.02 235.24,-62.71"/>
<polygon fill="black" stroke="black" points="238.75,-62.81 236.31,-52.5 231.79,-62.08 238.75,-62.81"/>
</g>
</g>
</svg>
