<?xml version="1.0" encoding="UTF-8" standalone="no"?>
<!DOCTYPE svg PUBLIC "-//W3C//DTD SVG 1.1//EN"
 "http://www.w3.org/Graphics/SVG/1.1/DTD/svg11.dtd">
<!-- Generated by graphviz version 2.44.0 ()
 -->
<!-- Title: overview Pages: 1 -->
<svg width="411pt" height="695pt"
 viewBox="0.00 0.00 410.50 694.50" xmlns="http://www.w3.org/2000/svg" xmlns:xlink="http://www.w3.org/1999/xlink">
<g id="graph0" class="graph" transform="scale(1 1) rotate(0) translate(4 690.5)">
<title>overview</title>
<polygon fill="white" stroke="transparent" points="-4,4 -4,-690.5 406.5,-690.5 406.5,4 -4,4"/>
<!-- calobs -->
<g id="node1" class="node">
<title>calobs</title>
<ellipse fill="lightgreen" stroke="black" cx="312.5" cy="-643.5" rx="43" ry="43"/>
<text text-anchor="middle" x="312.5" y="-647.3" font-family="Times,serif" font-size="14.00">Calibration</text>
<text text-anchor="middle" x="312.5" y="-632.3" font-family="Times,serif" font-size="14.00">Obs</text>
</g>
<!-- calvcs -->
<g id="node2" class="node">
<title>calvcs</title>
<polygon fill="#ffec8b" stroke="black" points="312.5,-563.5 222.5,-520.5 312.5,-477.5 402.5,-520.5 312.5,-563.5"/>
<text text-anchor="middle" x="312.5" y="-524.3" font-family="Times,serif" font-size="14.00">VCS or correlated</text>
<text text-anchor="middle" x="312.5" y="-509.3" font-family="Times,serif" font-size="14.00">VISibilities?</text>
</g>
<!-- calobs&#45;&gt;calvcs -->
<g id="edge1" class="edge">
<title>calobs&#45;&gt;calvcs</title>
<path fill="none" stroke="black" d="M312.5,-600.18C312.5,-591.66 312.5,-582.6 312.5,-573.79"/>
<polygon fill="black" stroke="black" points="316,-573.59 312.5,-563.59 309,-573.59 316,-573.59"/>
</g>
<!-- date2 -->
<g id="node3" class="node">
<title>date2</title>
<polygon fill="#ffec8b" stroke="black" points="253.5,-426.5 163.5,-383.5 253.5,-340.5 343.5,-383.5 253.5,-426.5"/>
<text text-anchor="middle" x="253.5" y="-387.3" font-family="Times,serif" font-size="14.00">Before</text>
<text text-anchor="middle" x="253.5" y="-372.3" font-family="Times,serif" font-size="14.00">Sep 2021?</text>
</g>
<!-- calvcs&#45;&gt;date2 -->
<g id="edge2" class="edge">
<title>calvcs&#45;&gt;date2</title>
<path fill="none" stroke="black" d="M297.31,-484.73C289.86,-467.7 280.82,-447 272.88,-428.85"/>
<polygon fill="black" stroke="black" points="276.06,-427.38 268.85,-419.62 269.65,-430.18 276.06,-427.38"/>
<text text-anchor="middle" x="298.5" y="-448.3" font-family="Times,serif" font-size="14.00">VCS</text>
</g>
<!-- mwaxvis -->
<g id="node5" class="node">
<title>mwaxvis</title>
<path fill="lightskyblue" stroke="black" d="M315,-210.85C315,-213.49 291.47,-215.63 262.5,-215.63 233.53,-215.63 210,-213.49 210,-210.85 210,-210.85 210,-167.9 210,-167.9 210,-165.26 233.53,-163.12 262.5,-163.12 291.47,-163.12 315,-165.26 315,-167.9 315,-167.9 315,-210.85 315,-210.85"/>
<path fill="none" stroke="black" d="M315,-210.85C315,-208.22 291.47,-206.08 262.5,-206.08 233.53,-206.08 210,-208.22 210,-210.85"/>
<text text-anchor="middle" x="262.5" y="-193.18" font-family="Times,serif" font-size="14.00">Correlated</text>
<text text-anchor="middle" x="262.5" y="-178.18" font-family="Times,serif" font-size="14.00">visibilities (.fits)</text>
</g>
<!-- calvcs&#45;&gt;mwaxvis -->
<g id="edge7" class="edge">
<title>calvcs&#45;&gt;mwaxvis</title>
<path fill="none" stroke="black" d="M329.92,-485.71C354.59,-432.82 392.47,-328.66 352.5,-252.5 345.55,-239.25 334.34,-228.27 322.17,-219.42"/>
<polygon fill="black" stroke="black" points="323.87,-216.34 313.62,-213.63 319.94,-222.14 323.87,-216.34"/>
<text text-anchor="middle" x="380.5" y="-311.3" font-family="Times,serif" font-size="14.00">VIS</text>
</g>
<!-- offlinecorrlegacy -->
<g id="node9" class="node">
<title>offlinecorrlegacy</title>
<g id="a_node9"><a xlink:href="applicationsofflinecorrelator.html" target="_top" xlink:title="(Legacy) offline_correlator">
<polygon fill="lightgrey" stroke="black" points="0,-253 0,-289 163,-289 163,-253 0,-253"/>
<text text-anchor="middle" x="81.5" y="-267.3" font-family="Times,serif" font-size="14.00" fill="blue">(Legacy) offline_correlator</text>
</a>
</g>
</g>
<!-- date2&#45;&gt;offlinecorrlegacy -->
<g id="edge3" class="edge">
<title>date2&#45;&gt;offlinecorrlegacy</title>
<path fill="none" stroke="black" d="M215.75,-358.25C186.27,-339.31 145.6,-313.18 116.77,-294.66"/>
<polygon fill="black" stroke="black" points="118.53,-291.63 108.22,-289.17 114.75,-297.52 118.53,-291.63"/>
<text text-anchor="middle" x="151.43" y="-327.47" font-family="Times,serif" font-size="14.00">Yes</text>
</g>
<!-- offlinecorrmwax -->
<g id="node10" class="node">
<title>offlinecorrmwax</title>
<g id="a_node10"><a xlink:href="https://wiki.mwatelescope.org/display/MP/MWAX+Offline+Correlator" target="_top" xlink:title="MWAX Offline Correlator">
<polygon fill="lightgrey" stroke="black" points="181.5,-253 181.5,-289 343.5,-289 343.5,-253 181.5,-253"/>
<text text-anchor="middle" x="262.5" y="-267.3" font-family="Times,serif" font-size="14.00" fill="blue">MWAX Offline Correlator</text>
</a>
</g>
</g>
<!-- date2&#45;&gt;offlinecorrmwax -->
<g id="edge4" class="edge">
<title>date2&#45;&gt;offlinecorrmwax</title>
<path fill="none" stroke="black" d="M256.8,-341.98C257.96,-327.74 259.24,-312.08 260.28,-299.2"/>
<polygon fill="black" stroke="black" points="263.78,-299.37 261.11,-289.12 256.81,-298.8 263.78,-299.37"/>
<text text-anchor="middle" x="249.97" y="-319.12" font-family="Times,serif" font-size="14.00">No</text>
</g>
<!-- legacyvis -->
<g id="node4" class="node">
<title>legacyvis</title>
<path fill="lightskyblue" stroke="black" d="M182,-210.85C182,-213.49 149.95,-215.63 110.5,-215.63 71.05,-215.63 39,-213.49 39,-210.85 39,-210.85 39,-167.9 39,-167.9 39,-165.26 71.05,-163.12 110.5,-163.12 149.95,-163.12 182,-165.26 182,-167.9 182,-167.9 182,-210.85 182,-210.85"/>
<path fill="none" stroke="black" d="M182,-210.85C182,-208.22 149.95,-206.08 110.5,-206.08 71.05,-206.08 39,-208.22 39,-210.85"/>
<text text-anchor="middle" x="110.5" y="-193.18" font-family="Times,serif" font-size="14.00">(Headerless) correlated</text>
<text text-anchor="middle" x="110.5" y="-178.18" font-family="Times,serif" font-size="14.00">visibilities (.fits)</text>
</g>
<!-- rts -->
<g id="node7" class="node">
<title>rts</title>
<g id="a_node7"><a xlink:href="https://wiki.mwatelescope.org/display/MP/Documentation#Documentation-CalibratingwiththeRealTimeSystem(RTS)" target="_top" xlink:title="RTS">
<polygon fill="lightgrey" stroke="black" points="151.5,-89.75 151.5,-125.75 205.5,-125.75 205.5,-89.75 151.5,-89.75"/>
<text text-anchor="middle" x="178.5" y="-104.05" font-family="Times,serif" font-size="14.00" fill="blue">RTS</text>
</a>
</g>
</g>
<!-- legacyvis&#45;&gt;rts -->
<g id="edge8" class="edge">
<title>legacyvis&#45;&gt;rts</title>
<path fill="none" stroke="black" d="M132.02,-163.18C139.96,-153.88 148.96,-143.34 156.91,-134.03"/>
<polygon fill="black" stroke="black" points="159.74,-136.1 163.58,-126.22 154.42,-131.56 159.74,-136.1"/>
</g>
<!-- mwaxvis&#45;&gt;rts -->
<g id="edge9" class="edge">
<title>mwaxvis&#45;&gt;rts</title>
<path fill="none" stroke="black" d="M235.92,-163.18C225.73,-153.52 214.14,-142.53 204.05,-132.97"/>
<polygon fill="black" stroke="black" points="206.34,-130.32 196.68,-125.98 201.52,-135.4 206.34,-130.32"/>
</g>
<!-- hyperdrive -->
<g id="node8" class="node">
<title>hyperdrive</title>
<g id="a_node8"><a xlink:href="https://wiki.mwatelescope.org/pages/viewpage.action?pageId=52068764" target="_top" xlink:title="Hyperdrive">
<polygon fill="lightgrey" stroke="black" points="224,-89.75 224,-125.75 301,-125.75 301,-89.75 224,-89.75"/>
<text text-anchor="middle" x="262.5" y="-104.05" font-family="Times,serif" font-size="14.00" fill="blue">Hyperdrive</text>
</a>
</g>
</g>
<!-- mwaxvis&#45;&gt;hyperdrive -->
<g id="edge10" class="edge">
<title>mwaxvis&#45;&gt;hyperdrive</title>
<path fill="none" stroke="black" d="M262.5,-163.18C262.5,-154.63 262.5,-145.03 262.5,-136.31"/>
<polygon fill="black" stroke="black" points="266,-136.22 262.5,-126.22 259,-136.22 266,-136.22"/>
</g>
<!-- calsol -->
<g id="node6" class="node">
<title>calsol</title>
<path fill="lightskyblue" stroke="black" d="M258.5,-47.6C258.5,-50.24 241.02,-52.38 219.5,-52.38 197.98,-52.38 180.5,-50.24 180.5,-47.6 180.5,-47.6 180.5,-4.65 180.5,-4.65 180.5,-2.01 197.98,0.13 219.5,0.13 241.02,0.13 258.5,-2.01 258.5,-4.65 258.5,-4.65 258.5,-47.6 258.5,-47.6"/>
<path fill="none" stroke="black" d="M258.5,-47.6C258.5,-44.97 241.02,-42.83 219.5,-42.83 197.98,-42.83 180.5,-44.97 180.5,-47.6"/>
<text text-anchor="middle" x="219.5" y="-29.93" font-family="Times,serif" font-size="14.00">Calibration</text>
<text text-anchor="middle" x="219.5" y="-14.93" font-family="Times,serif" font-size="14.00">solution</text>
</g>
<!-- rts&#45;&gt;calsol -->
<g id="edge11" class="edge">
<title>rts&#45;&gt;calsol</title>
<path fill="none" stroke="black" d="M187.4,-89.47C191.61,-81.29 196.8,-71.22 201.76,-61.57"/>
<polygon fill="black" stroke="black" points="204.95,-63.03 206.42,-52.53 198.73,-59.82 204.95,-63.03"/>
</g>
<!-- hyperdrive&#45;&gt;calsol -->
<g id="edge12" class="edge">
<title>hyperdrive&#45;&gt;calsol</title>
<path fill="none" stroke="black" d="M253.17,-89.47C248.75,-81.29 243.31,-71.22 238.1,-61.57"/>
<polygon fill="black" stroke="black" points="241.05,-59.67 233.22,-52.53 234.89,-63 241.05,-59.67"/>
</g>
<!-- offlinecorrlegacy&#45;&gt;legacyvis -->
<g id="edge5" class="edge">
<title>offlinecorrlegacy&#45;&gt;legacyvis</title>
<path fill="none" stroke="black" d="M87.79,-252.72C90.71,-244.71 94.29,-234.88 97.74,-225.42"/>
<polygon fill="black" stroke="black" points="101.11,-226.38 101.25,-215.78 94.53,-223.98 101.11,-226.38"/>
</g>
<!-- offlinecorrmwax&#45;&gt;mwaxvis -->
<g id="edge6" class="edge">
<title>offlinecorrmwax&#45;&gt;mwaxvis</title>
<path fill="none" stroke="black" d="M262.5,-252.72C262.5,-244.88 262.5,-235.3 262.5,-226.02"/>
<polygon fill="black" stroke="black" points="266,-225.78 262.5,-215.78 259,-225.78 266,-225.78"/>
</g>
</g>
</svg>
