<?xml version="1.0" encoding="UTF-8" standalone="no"?>
<!DOCTYPE svg PUBLIC "-//W3C//DTD SVG 1.1//EN"
 "http://www.w3.org/Graphics/SVG/1.1/DTD/svg11.dtd">
<!-- Generated by graphviz version 2.44.0 ()
 -->
<!-- Title: filter.c Pages: 1 -->
<svg width="426pt" height="84pt"
 viewBox="0.00 0.00 426.00 84.00" xmlns="http://www.w3.org/2000/svg" xmlns:xlink="http://www.w3.org/1999/xlink">
<g id="graph0" class="graph" transform="scale(1 1) rotate(0) translate(4 80)">
<title>filter.c</title>
<polygon fill="white" stroke="transparent" points="-4,4 -4,-80 422,-80 422,4 -4,4"/>
<!-- Node1 -->
<g id="node1" class="node">
<title>Node1</title>
<g id="a_node1"><a xlink:title=" ">
<polygon fill="#bfbfbf" stroke="black" points="162.5,-56.5 162.5,-75.5 204.5,-75.5 204.5,-56.5 162.5,-56.5"/>
<text text-anchor="middle" x="183.5" y="-63.5" font-family="Helvetica,sans-Serif" font-size="10.00">filter.c</text>
</a>
</g>
</g>
<!-- Node2 -->
<g id="node2" class="node">
<title>Node2</title>
<g id="a_node2"><a xlink:title=" ">
<polygon fill="white" stroke="#bfbfbf" points="0,-0.5 0,-19.5 47,-19.5 47,-0.5 0,-0.5"/>
<text text-anchor="middle" x="23.5" y="-7.5" font-family="Helvetica,sans-Serif" font-size="10.00">stdlib.h</text>
</a>
</g>
</g>
<!-- Node1&#45;&gt;Node2 -->
<g id="edge1" class="edge">
<title>Node1&#45;&gt;Node2</title>
<path fill="none" stroke="midnightblue" d="M162.25,-57.83C135.33,-48.74 88.62,-32.98 56.91,-22.27"/>
<polygon fill="midnightblue" stroke="midnightblue" points="57.77,-18.87 47.18,-18.99 55.54,-25.51 57.77,-18.87"/>
</g>
<!-- Node3 -->
<g id="node3" class="node">
<title>Node3</title>
<g id="a_node3"><a xlink:title=" ">
<polygon fill="white" stroke="#bfbfbf" points="65,-0.5 65,-19.5 110,-19.5 110,-0.5 65,-0.5"/>
<text text-anchor="middle" x="87.5" y="-7.5" font-family="Helvetica,sans-Serif" font-size="10.00">stdio.h</text>
</a>
</g>
</g>
<!-- Node1&#45;&gt;Node3 -->
<g id="edge2" class="edge">
<title>Node1&#45;&gt;Node3</title>
<path fill="none" stroke="midnightblue" d="M168.08,-56.32C152.96,-47.82 129.68,-34.73 112.03,-24.8"/>
<polygon fill="midnightblue" stroke="midnightblue" points="113.32,-21.51 102.89,-19.65 109.89,-27.61 113.32,-21.51"/>
</g>
<!-- Node4 -->
<g id="node4" class="node">
<title>Node4</title>
<g id="a_node4"><a xlink:title=" ">
<polygon fill="white" stroke="#bfbfbf" points="128.5,-0.5 128.5,-19.5 174.5,-19.5 174.5,-0.5 128.5,-0.5"/>
<text text-anchor="middle" x="151.5" y="-7.5" font-family="Helvetica,sans-Serif" font-size="10.00">math.h</text>
</a>
</g>
</g>
<!-- Node1&#45;&gt;Node4 -->
<g id="edge3" class="edge">
<title>Node1&#45;&gt;Node4</title>
<path fill="none" stroke="midnightblue" d="M178.22,-56.08C173.79,-48.61 167.34,-37.72 161.88,-28.52"/>
<polygon fill="midnightblue" stroke="midnightblue" points="164.79,-26.57 156.69,-19.75 158.77,-30.14 164.79,-26.57"/>
</g>
<!-- Node5 -->
<g id="node5" class="node">
<title>Node5</title>
<g id="a_node5"><a xlink:title=" ">
<polygon fill="white" stroke="#bfbfbf" points="192.5,-0.5 192.5,-19.5 240.5,-19.5 240.5,-0.5 192.5,-0.5"/>
<text text-anchor="middle" x="216.5" y="-7.5" font-family="Helvetica,sans-Serif" font-size="10.00">string.h</text>
</a>
</g>
</g>
<!-- Node1&#45;&gt;Node5 -->
<g id="edge4" class="edge">
<title>Node1&#45;&gt;Node5</title>
<path fill="none" stroke="midnightblue" d="M188.95,-56.08C193.51,-48.61 200.17,-37.72 205.79,-28.52"/>
<polygon fill="midnightblue" stroke="midnightblue" points="208.92,-30.11 211.15,-19.75 202.95,-26.46 208.92,-30.11"/>
</g>
<!-- Node6 -->
<g id="node6" class="node">
<title>Node6</title>
<g id="a_node6"><a xlink:title=" ">
<polygon fill="white" stroke="#bfbfbf" points="258.5,-0.5 258.5,-19.5 322.5,-19.5 322.5,-0.5 258.5,-0.5"/>
<text text-anchor="middle" x="290.5" y="-7.5" font-family="Helvetica,sans-Serif" font-size="10.00">vcsbeam.h</text>
</a>
</g>
</g>
<!-- Node1&#45;&gt;Node6 -->
<g id="edge5" class="edge">
<title>Node1&#45;&gt;Node6</title>
<path fill="none" stroke="midnightblue" d="M200.69,-56.32C217.85,-47.66 244.45,-34.24 264.25,-24.25"/>
<polygon fill="midnightblue" stroke="midnightblue" points="266,-27.28 273.35,-19.65 262.85,-21.04 266,-27.28"/>
</g>
<!-- Node7 -->
<g id="node7" class="node">
<title>Node7</title>
<g id="a_node7"><a xlink:title=" ">
<polygon fill="white" stroke="#bfbfbf" points="341,-0.5 341,-19.5 418,-19.5 418,-0.5 341,-0.5"/>
<text text-anchor="middle" x="379.5" y="-7.5" font-family="Helvetica,sans-Serif" font-size="10.00">gpu_macros.h</text>
</a>
</g>
</g>
<!-- Node1&#45;&gt;Node7 -->
<g id="edge6" class="edge">
<title>Node1&#45;&gt;Node7</title>
<path fill="none" stroke="midnightblue" d="M204.85,-59.12C236.86,-50.3 297.89,-33.49 338.64,-22.26"/>
<polygon fill="midnightblue" stroke="midnightblue" points="339.83,-25.56 348.54,-19.53 337.97,-18.81 339.83,-25.56"/>
</g>
</g>
</svg>
