<?xml version="1.0" encoding="UTF-8" standalone="no"?>
<!DOCTYPE svg PUBLIC "-//W3C//DTD SVG 1.1//EN"
 "http://www.w3.org/Graphics/SVG/1.1/DTD/svg11.dtd">
<!-- Generated by graphviz version 2.44.0 ()
 -->
<!-- Title: form_beam.cpp Pages: 1 -->
<svg width="575pt" height="140pt"
 viewBox="0.00 0.00 574.50 140.00" xmlns="http://www.w3.org/2000/svg" xmlns:xlink="http://www.w3.org/1999/xlink">
<g id="graph0" class="graph" transform="scale(1 1) rotate(0) translate(4 136)">
<title>form_beam.cpp</title>
<polygon fill="white" stroke="transparent" points="-4,4 -4,-136 570.5,-136 570.5,4 -4,4"/>
<!-- Node1 -->
<g id="node1" class="node">
<title>Node1</title>
<g id="a_node1"><a xlink:title=" ">
<polygon fill="#bfbfbf" stroke="black" points="211,-112.5 211,-131.5 294,-131.5 294,-112.5 211,-112.5"/>
<text text-anchor="middle" x="252.5" y="-119.5" font-family="Helvetica,sans-Serif" font-size="10.00">form_beam.cpp</text>
</a>
</g>
</g>
<!-- Node2 -->
<g id="node2" class="node">
<title>Node2</title>
<g id="a_node2"><a xlink:title=" ">
<polygon fill="white" stroke="#bfbfbf" points="0,-56.5 0,-75.5 47,-75.5 47,-56.5 0,-56.5"/>
<text text-anchor="middle" x="23.5" y="-63.5" font-family="Helvetica,sans-Serif" font-size="10.00">stdlib.h</text>
</a>
</g>
</g>
<!-- Node1&#45;&gt;Node2 -->
<g id="edge1" class="edge">
<title>Node1&#45;&gt;Node2</title>
<path fill="none" stroke="midnightblue" d="M213.34,-112.5C175.79,-104.24 117.26,-91.08 57.29,-76.12"/>
<polygon fill="midnightblue" stroke="midnightblue" points="57.81,-72.64 47.26,-73.6 56.11,-79.43 57.81,-72.64"/>
</g>
<!-- Node3 -->
<g id="node3" class="node">
<title>Node3</title>
<g id="a_node3"><a xlink:title=" ">
<polygon fill="white" stroke="#bfbfbf" points="65,-56.5 65,-75.5 110,-75.5 110,-56.5 65,-56.5"/>
<text text-anchor="middle" x="87.5" y="-63.5" font-family="Helvetica,sans-Serif" font-size="10.00">stdio.h</text>
</a>
</g>
</g>
<!-- Node1&#45;&gt;Node3 -->
<g id="edge2" class="edge">
<title>Node1&#45;&gt;Node3</title>
<path fill="none" stroke="midnightblue" d="M226.36,-112.44C197.41,-102.97 150.74,-87.7 119.6,-77.5"/>
<polygon fill="midnightblue" stroke="midnightblue" points="120.67,-74.17 110.08,-74.39 118.49,-80.83 120.67,-74.17"/>
</g>
<!-- Node4 -->
<g id="node4" class="node">
<title>Node4</title>
<g id="a_node4"><a xlink:title=" ">
<polygon fill="white" stroke="#bfbfbf" points="128.5,-56.5 128.5,-75.5 178.5,-75.5 178.5,-56.5 128.5,-56.5"/>
<text text-anchor="middle" x="153.5" y="-63.5" font-family="Helvetica,sans-Serif" font-size="10.00">unistd.h</text>
</a>
</g>
</g>
<!-- Node1&#45;&gt;Node4 -->
<g id="edge3" class="edge">
<title>Node1&#45;&gt;Node4</title>
<path fill="none" stroke="midnightblue" d="M236.59,-112.32C220.86,-103.74 196.56,-90.49 178.29,-80.52"/>
<polygon fill="midnightblue" stroke="midnightblue" points="179.82,-77.37 169.37,-75.65 176.47,-83.52 179.82,-77.37"/>
</g>
<!-- Node5 -->
<g id="node5" class="node">
<title>Node5</title>
<g id="a_node5"><a xlink:title=" ">
<polygon fill="white" stroke="#bfbfbf" points="196.5,-56.5 196.5,-75.5 244.5,-75.5 244.5,-56.5 196.5,-56.5"/>
<text text-anchor="middle" x="220.5" y="-63.5" font-family="Helvetica,sans-Serif" font-size="10.00">string.h</text>
</a>
</g>
</g>
<!-- Node1&#45;&gt;Node5 -->
<g id="edge4" class="edge">
<title>Node1&#45;&gt;Node5</title>
<path fill="none" stroke="midnightblue" d="M247.22,-112.08C242.79,-104.61 236.34,-93.72 230.88,-84.52"/>
<polygon fill="midnightblue" stroke="midnightblue" points="233.79,-82.57 225.69,-75.75 227.77,-86.14 233.79,-82.57"/>
</g>
<!-- Node6 -->
<g id="node6" class="node">
<title>Node6</title>
<g id="a_node6"><a xlink:title=" ">
<polygon fill="white" stroke="#bfbfbf" points="263,-56.5 263,-75.5 306,-75.5 306,-56.5 263,-56.5"/>
<text text-anchor="middle" x="284.5" y="-63.5" font-family="Helvetica,sans-Serif" font-size="10.00">time.h</text>
</a>
</g>
</g>
<!-- Node1&#45;&gt;Node6 -->
<g id="edge5" class="edge">
<title>Node1&#45;&gt;Node6</title>
<path fill="none" stroke="midnightblue" d="M257.78,-112.08C262.21,-104.61 268.66,-93.72 274.12,-84.52"/>
<polygon fill="midnightblue" stroke="midnightblue" points="277.23,-86.14 279.31,-75.75 271.21,-82.57 277.23,-86.14"/>
</g>
<!-- Node7 -->
<g id="node7" class="node">
<title>Node7</title>
<g id="a_node7"><a xlink:href="gpu__fft_8hpp.html" target="_top" xlink:title=" ">
<polygon fill="white" stroke="black" points="324.5,-56.5 324.5,-75.5 388.5,-75.5 388.5,-56.5 324.5,-56.5"/>
<text text-anchor="middle" x="356.5" y="-63.5" font-family="Helvetica,sans-Serif" font-size="10.00">gpu_fft.hpp</text>
</a>
</g>
</g>
<!-- Node1&#45;&gt;Node7 -->
<g id="edge6" class="edge">
<title>Node1&#45;&gt;Node7</title>
<path fill="none" stroke="midnightblue" d="M269.21,-112.32C285.81,-103.7 311.5,-90.36 330.72,-80.39"/>
<polygon fill="midnightblue" stroke="midnightblue" points="332.57,-83.37 339.83,-75.65 329.34,-77.16 332.57,-83.37"/>
</g>
<!-- Node9 -->
<g id="node9" class="node">
<title>Node9</title>
<g id="a_node9"><a xlink:title=" ">
<polygon fill="white" stroke="#bfbfbf" points="407,-56.5 407,-75.5 484,-75.5 484,-56.5 407,-56.5"/>
<text text-anchor="middle" x="445.5" y="-63.5" font-family="Helvetica,sans-Serif" font-size="10.00">gpu_macros.h</text>
</a>
</g>
</g>
<!-- Node1&#45;&gt;Node9 -->
<g id="edge8" class="edge">
<title>Node1&#45;&gt;Node9</title>
<path fill="none" stroke="midnightblue" d="M283.08,-112.44C316.11,-103.2 368.89,-88.44 405.27,-78.26"/>
<polygon fill="midnightblue" stroke="midnightblue" points="406.37,-81.58 415.06,-75.52 404.49,-74.84 406.37,-81.58"/>
</g>
<!-- Node10 -->
<g id="node10" class="node">
<title>Node10</title>
<g id="a_node10"><a xlink:title=" ">
<polygon fill="white" stroke="#bfbfbf" points="502.5,-56.5 502.5,-75.5 566.5,-75.5 566.5,-56.5 502.5,-56.5"/>
<text text-anchor="middle" x="534.5" y="-63.5" font-family="Helvetica,sans-Serif" font-size="10.00">vcsbeam.h</text>
</a>
</g>
</g>
<!-- Node1&#45;&gt;Node10 -->
<g id="edge9" class="edge">
<title>Node1&#45;&gt;Node10</title>
<path fill="none" stroke="midnightblue" d="M294.37,-113.59C340.44,-105.36 416.91,-91.41 492.17,-76.22"/>
<polygon fill="midnightblue" stroke="midnightblue" points="493.19,-79.59 502.29,-74.17 491.8,-72.73 493.19,-79.59"/>
</g>
<!-- Node8 -->
<g id="node8" class="node">
<title>Node8</title>
<g id="a_node8"><a xlink:title=" ">
<polygon fill="white" stroke="#bfbfbf" points="334,-0.5 334,-19.5 379,-19.5 379,-0.5 334,-0.5"/>
<text text-anchor="middle" x="356.5" y="-7.5" font-family="Helvetica,sans-Serif" font-size="10.00">hipfft.h</text>
</a>
</g>
</g>
<!-- Node7&#45;&gt;Node8 -->
<g id="edge7" class="edge">
<title>Node7&#45;&gt;Node8</title>
<path fill="none" stroke="midnightblue" d="M356.5,-56.08C356.5,-49.01 356.5,-38.86 356.5,-29.99"/>
<polygon fill="midnightblue" stroke="midnightblue" points="360,-29.75 356.5,-19.75 353,-29.75 360,-29.75"/>
</g>
</g>
</svg>
