<?xml version="1.0" encoding="UTF-8" standalone="no"?>
<!DOCTYPE svg PUBLIC "-//W3C//DTD SVG 1.1//EN"
 "http://www.w3.org/Graphics/SVG/1.1/DTD/svg11.dtd">
<!-- Generated by graphviz version 2.44.0 ()
 -->
<!-- Title: form_beam.cu Pages: 1 -->
<svg width="589pt" height="84pt"
 viewBox="0.00 0.00 588.50 84.00" xmlns="http://www.w3.org/2000/svg" xmlns:xlink="http://www.w3.org/1999/xlink">
<g id="graph0" class="graph" transform="scale(1 1) rotate(0) translate(4 80)">
<title>form_beam.cu</title>
<polygon fill="white" stroke="transparent" points="-4,4 -4,-80 584.5,-80 584.5,4 -4,4"/>
<!-- Node1 -->
<g id="node1" class="node">
<title>Node1</title>
<g id="a_node1"><a xlink:title=" ">
<polygon fill="#bfbfbf" stroke="black" points="213.5,-56.5 213.5,-75.5 291.5,-75.5 291.5,-56.5 213.5,-56.5"/>
<text text-anchor="middle" x="252.5" y="-63.5" font-family="Helvetica,sans-Serif" font-size="10.00">form_beam.cu</text>
</a>
</g>
</g>
<!-- Node2 -->
<g id="node2" class="node">
<title>Node2</title>
<g id="a_node2"><a xlink:title=" ">
<polygon fill="white" stroke="#bfbfbf" points="0,-0.5 0,-19.5 47,-19.5 47,-0.5 0,-0.5"/>
<text text-anchor="middle" x="23.5" y="-7.5" font-family="Helvetica,sans-Serif" font-size="10.00">stdlib.h</text>
</a>
</g>
</g>
<!-- Node1&#45;&gt;Node2 -->
<g id="edge1" class="edge">
<title>Node1&#45;&gt;Node2</title>
<path fill="none" stroke="midnightblue" d="M213.49,-56.69C175.75,-48.51 116.71,-35.37 57.17,-20.34"/>
<polygon fill="midnightblue" stroke="midnightblue" points="57.78,-16.89 47.23,-17.82 56.06,-23.67 57.78,-16.89"/>
</g>
<!-- Node3 -->
<g id="node3" class="node">
<title>Node3</title>
<g id="a_node3"><a xlink:title=" ">
<polygon fill="white" stroke="#bfbfbf" points="65,-0.5 65,-19.5 110,-19.5 110,-0.5 65,-0.5"/>
<text text-anchor="middle" x="87.5" y="-7.5" font-family="Helvetica,sans-Serif" font-size="10.00">stdio.h</text>
</a>
</g>
</g>
<!-- Node1&#45;&gt;Node3 -->
<g id="edge2" class="edge">
<title>Node1&#45;&gt;Node3</title>
<path fill="none" stroke="midnightblue" d="M226.36,-56.44C197.41,-46.97 150.74,-31.7 119.6,-21.5"/>
<polygon fill="midnightblue" stroke="midnightblue" points="120.67,-18.17 110.08,-18.39 118.49,-24.83 120.67,-18.17"/>
</g>
<!-- Node4 -->
<g id="node4" class="node">
<title>Node4</title>
<g id="a_node4"><a xlink:title=" ">
<polygon fill="white" stroke="#bfbfbf" points="128.5,-0.5 128.5,-19.5 178.5,-19.5 178.5,-0.5 128.5,-0.5"/>
<text text-anchor="middle" x="153.5" y="-7.5" font-family="Helvetica,sans-Serif" font-size="10.00">unistd.h</text>
</a>
</g>
</g>
<!-- Node1&#45;&gt;Node4 -->
<g id="edge3" class="edge">
<title>Node1&#45;&gt;Node4</title>
<path fill="none" stroke="midnightblue" d="M236.59,-56.32C220.86,-47.74 196.56,-34.49 178.29,-24.52"/>
<polygon fill="midnightblue" stroke="midnightblue" points="179.82,-21.37 169.37,-19.65 176.47,-27.52 179.82,-21.37"/>
</g>
<!-- Node5 -->
<g id="node5" class="node">
<title>Node5</title>
<g id="a_node5"><a xlink:title=" ">
<polygon fill="white" stroke="#bfbfbf" points="196.5,-0.5 196.5,-19.5 244.5,-19.5 244.5,-0.5 196.5,-0.5"/>
<text text-anchor="middle" x="220.5" y="-7.5" font-family="Helvetica,sans-Serif" font-size="10.00">string.h</text>
</a>
</g>
</g>
<!-- Node1&#45;&gt;Node5 -->
<g id="edge4" class="edge">
<title>Node1&#45;&gt;Node5</title>
<path fill="none" stroke="midnightblue" d="M247.22,-56.08C242.79,-48.61 236.34,-37.72 230.88,-28.52"/>
<polygon fill="midnightblue" stroke="midnightblue" points="233.79,-26.57 225.69,-19.75 227.77,-30.14 233.79,-26.57"/>
</g>
<!-- Node6 -->
<g id="node6" class="node">
<title>Node6</title>
<g id="a_node6"><a xlink:title=" ">
<polygon fill="white" stroke="#bfbfbf" points="263,-0.5 263,-19.5 306,-19.5 306,-0.5 263,-0.5"/>
<text text-anchor="middle" x="284.5" y="-7.5" font-family="Helvetica,sans-Serif" font-size="10.00">time.h</text>
</a>
</g>
</g>
<!-- Node1&#45;&gt;Node6 -->
<g id="edge5" class="edge">
<title>Node1&#45;&gt;Node6</title>
<path fill="none" stroke="midnightblue" d="M257.78,-56.08C262.21,-48.61 268.66,-37.72 274.12,-28.52"/>
<polygon fill="midnightblue" stroke="midnightblue" points="277.23,-30.14 279.31,-19.75 271.21,-26.57 277.23,-30.14"/>
</g>
<!-- Node7 -->
<g id="node7" class="node">
<title>Node7</title>
<g id="a_node7"><a xlink:title=" ">
<polygon fill="white" stroke="#bfbfbf" points="324.5,-0.5 324.5,-19.5 396.5,-19.5 396.5,-0.5 324.5,-0.5"/>
<text text-anchor="middle" x="360.5" y="-7.5" font-family="Helvetica,sans-Serif" font-size="10.00">cuComplex.h</text>
</a>
</g>
</g>
<!-- Node1&#45;&gt;Node7 -->
<g id="edge6" class="edge">
<title>Node1&#45;&gt;Node7</title>
<path fill="none" stroke="midnightblue" d="M269.85,-56.32C287.17,-47.66 314.02,-34.24 334,-24.25"/>
<polygon fill="midnightblue" stroke="midnightblue" points="335.81,-27.26 343.19,-19.65 332.68,-21 335.81,-27.26"/>
</g>
<!-- Node8 -->
<g id="node8" class="node">
<title>Node8</title>
<g id="a_node8"><a xlink:title=" ">
<polygon fill="white" stroke="#bfbfbf" points="415,-0.5 415,-19.5 498,-19.5 498,-0.5 415,-0.5"/>
<text text-anchor="middle" x="456.5" y="-7.5" font-family="Helvetica,sans-Serif" font-size="10.00">cuda_runtime.h</text>
</a>
</g>
</g>
<!-- Node1&#45;&gt;Node8 -->
<g id="edge7" class="edge">
<title>Node1&#45;&gt;Node8</title>
<path fill="none" stroke="midnightblue" d="M284.82,-56.44C319.89,-47.16 376,-32.31 414.46,-22.13"/>
<polygon fill="midnightblue" stroke="midnightblue" points="415.56,-25.46 424.33,-19.52 413.76,-18.69 415.56,-25.46"/>
</g>
<!-- Node9 -->
<g id="node9" class="node">
<title>Node9</title>
<g id="a_node9"><a xlink:title=" ">
<polygon fill="white" stroke="#bfbfbf" points="516.5,-0.5 516.5,-19.5 580.5,-19.5 580.5,-0.5 516.5,-0.5"/>
<text text-anchor="middle" x="548.5" y="-7.5" font-family="Helvetica,sans-Serif" font-size="10.00">vcsbeam.h</text>
</a>
</g>
</g>
<!-- Node1&#45;&gt;Node9 -->
<g id="edge8" class="edge">
<title>Node1&#45;&gt;Node9</title>
<path fill="none" stroke="midnightblue" d="M291.91,-58.57C340.13,-50.58 424.51,-36.23 506.33,-20.17"/>
<polygon fill="midnightblue" stroke="midnightblue" points="507.16,-23.57 516.3,-18.2 505.81,-16.7 507.16,-23.57"/>
</g>
</g>
</svg>
