<?xml version="1.0" encoding="UTF-8" standalone="no"?>
<!DOCTYPE svg PUBLIC "-//W3C//DTD SVG 1.1//EN"
 "http://www.w3.org/Graphics/SVG/1.1/DTD/svg11.dtd">
<!-- Generated by graphviz version 2.44.0 ()
 -->
<!-- Title: form_beam.cpp Pages: 1 -->
<svg width="639pt" height="140pt"
 viewBox="0.00 0.00 638.50 140.00" xmlns="http://www.w3.org/2000/svg" xmlns:xlink="http://www.w3.org/1999/xlink">
<g id="graph0" class="graph" transform="scale(1 1) rotate(0) translate(4 136)">
<title>form_beam.cpp</title>
<polygon fill="white" stroke="transparent" points="-4,4 -4,-136 634.5,-136 634.5,4 -4,4"/>
<!-- Node1 -->
<g id="node1" class="node">
<title>Node1</title>
<g id="a_node1"><a xlink:title=" ">
<polygon fill="#bfbfbf" stroke="black" points="243,-112.5 243,-131.5 326,-131.5 326,-112.5 243,-112.5"/>
<text text-anchor="middle" x="284.5" y="-119.5" font-family="Helvetica,sans-Serif" font-size="10.00">form_beam.cpp</text>
</a>
</g>
</g>
<!-- Node2 -->
<g id="node2" class="node">
<title>Node2</title>
<g id="a_node2"><a xlink:title=" ">
<polygon fill="white" stroke="#bfbfbf" points="0,-56.5 0,-75.5 47,-75.5 47,-56.5 0,-56.5"/>
<text text-anchor="middle" x="23.5" y="-63.5" font-family="Helvetica,sans-Serif" font-size="10.00">stdlib.h</text>
</a>
</g>
</g>
<!-- Node1&#45;&gt;Node2 -->
<g id="edge1" class="edge">
<title>Node1&#45;&gt;Node2</title>
<path fill="none" stroke="midnightblue" d="M242.7,-113.68C198.89,-105.79 127.86,-92.44 57.21,-76.03"/>
<polygon fill="midnightblue" stroke="midnightblue" points="57.78,-72.57 47.24,-73.69 56.18,-79.38 57.78,-72.57"/>
</g>
<!-- Node3 -->
<g id="node3" class="node">
<title>Node3</title>
<g id="a_node3"><a xlink:title=" ">
<polygon fill="white" stroke="#bfbfbf" points="65,-56.5 65,-75.5 110,-75.5 110,-56.5 65,-56.5"/>
<text text-anchor="middle" x="87.5" y="-63.5" font-family="Helvetica,sans-Serif" font-size="10.00">stdio.h</text>
</a>
</g>
</g>
<!-- Node1&#45;&gt;Node3 -->
<g id="edge2" class="edge">
<title>Node1&#45;&gt;Node3</title>
<path fill="none" stroke="midnightblue" d="M252.85,-112.45C221.56,-103.98 172.09,-90.53 119.98,-76.12"/>
<polygon fill="midnightblue" stroke="midnightblue" points="120.79,-72.71 110.22,-73.41 118.92,-79.46 120.79,-72.71"/>
</g>
<!-- Node4 -->
<g id="node4" class="node">
<title>Node4</title>
<g id="a_node4"><a xlink:title=" ">
<polygon fill="white" stroke="#bfbfbf" points="128.5,-56.5 128.5,-75.5 178.5,-75.5 178.5,-56.5 128.5,-56.5"/>
<text text-anchor="middle" x="153.5" y="-63.5" font-family="Helvetica,sans-Serif" font-size="10.00">unistd.h</text>
</a>
</g>
</g>
<!-- Node1&#45;&gt;Node4 -->
<g id="edge3" class="edge">
<title>Node1&#45;&gt;Node4</title>
<path fill="none" stroke="midnightblue" d="M263.74,-112.44C242.18,-103.56 208.24,-89.56 183.71,-79.45"/>
<polygon fill="midnightblue" stroke="midnightblue" points="184.74,-76.09 174.16,-75.52 182.07,-82.56 184.74,-76.09"/>
</g>
<!-- Node5 -->
<g id="node5" class="node">
<title>Node5</title>
<g id="a_node5"><a xlink:title=" ">
<polygon fill="white" stroke="#bfbfbf" points="196.5,-56.5 196.5,-75.5 244.5,-75.5 244.5,-56.5 196.5,-56.5"/>
<text text-anchor="middle" x="220.5" y="-63.5" font-family="Helvetica,sans-Serif" font-size="10.00">string.h</text>
</a>
</g>
</g>
<!-- Node1&#45;&gt;Node5 -->
<g id="edge4" class="edge">
<title>Node1&#45;&gt;Node5</title>
<path fill="none" stroke="midnightblue" d="M274.22,-112.32C264.66,-104.26 250.22,-92.08 238.72,-82.37"/>
<polygon fill="midnightblue" stroke="midnightblue" points="240.87,-79.61 230.97,-75.83 236.36,-84.96 240.87,-79.61"/>
</g>
<!-- Node6 -->
<g id="node6" class="node">
<title>Node6</title>
<g id="a_node6"><a xlink:title=" ">
<polygon fill="white" stroke="#bfbfbf" points="263,-56.5 263,-75.5 306,-75.5 306,-56.5 263,-56.5"/>
<text text-anchor="middle" x="284.5" y="-63.5" font-family="Helvetica,sans-Serif" font-size="10.00">time.h</text>
</a>
</g>
</g>
<!-- Node1&#45;&gt;Node6 -->
<g id="edge5" class="edge">
<title>Node1&#45;&gt;Node6</title>
<path fill="none" stroke="midnightblue" d="M284.5,-112.08C284.5,-105.01 284.5,-94.86 284.5,-85.99"/>
<polygon fill="midnightblue" stroke="midnightblue" points="288,-85.75 284.5,-75.75 281,-85.75 288,-85.75"/>
</g>
<!-- Node7 -->
<g id="node7" class="node">
<title>Node7</title>
<g id="a_node7"><a xlink:title=" ">
<polygon fill="white" stroke="#bfbfbf" points="324.5,-56.5 324.5,-75.5 370.5,-75.5 370.5,-56.5 324.5,-56.5"/>
<text text-anchor="middle" x="347.5" y="-63.5" font-family="Helvetica,sans-Serif" font-size="10.00">math.h</text>
</a>
</g>
</g>
<!-- Node1&#45;&gt;Node7 -->
<g id="edge6" class="edge">
<title>Node1&#45;&gt;Node7</title>
<path fill="none" stroke="midnightblue" d="M294.62,-112.32C304.03,-104.26 318.24,-92.08 329.57,-82.37"/>
<polygon fill="midnightblue" stroke="midnightblue" points="331.88,-85 337.19,-75.83 327.32,-79.68 331.88,-85"/>
</g>
<!-- Node8 -->
<g id="node8" class="node">
<title>Node8</title>
<g id="a_node8"><a xlink:href="gpu__fft_8hpp.html" target="_top" xlink:title=" ">
<polygon fill="white" stroke="black" points="388.5,-56.5 388.5,-75.5 452.5,-75.5 452.5,-56.5 388.5,-56.5"/>
<text text-anchor="middle" x="420.5" y="-63.5" font-family="Helvetica,sans-Serif" font-size="10.00">gpu_fft.hpp</text>
</a>
</g>
</g>
<!-- Node1&#45;&gt;Node8 -->
<g id="edge7" class="edge">
<title>Node1&#45;&gt;Node8</title>
<path fill="none" stroke="midnightblue" d="M306.05,-112.44C328.53,-103.52 363.99,-89.44 389.48,-79.32"/>
<polygon fill="midnightblue" stroke="midnightblue" points="391.05,-82.46 399.05,-75.52 388.47,-75.95 391.05,-82.46"/>
</g>
<!-- Node10 -->
<g id="node10" class="node">
<title>Node10</title>
<g id="a_node10"><a xlink:title=" ">
<polygon fill="white" stroke="#bfbfbf" points="471,-56.5 471,-75.5 548,-75.5 548,-56.5 471,-56.5"/>
<text text-anchor="middle" x="509.5" y="-63.5" font-family="Helvetica,sans-Serif" font-size="10.00">gpu_macros.h</text>
</a>
</g>
</g>
<!-- Node1&#45;&gt;Node10 -->
<g id="edge9" class="edge">
<title>Node1&#45;&gt;Node10</title>
<path fill="none" stroke="midnightblue" d="M320.15,-112.44C359.16,-103.08 421.77,-88.06 464.22,-77.87"/>
<polygon fill="midnightblue" stroke="midnightblue" points="465.11,-81.25 474.01,-75.52 463.47,-74.45 465.11,-81.25"/>
</g>
<!-- Node11 -->
<g id="node11" class="node">
<title>Node11</title>
<g id="a_node11"><a xlink:title=" ">
<polygon fill="white" stroke="#bfbfbf" points="566.5,-56.5 566.5,-75.5 630.5,-75.5 630.5,-56.5 566.5,-56.5"/>
<text text-anchor="middle" x="598.5" y="-63.5" font-family="Helvetica,sans-Serif" font-size="10.00">vcsbeam.h</text>
</a>
</g>
</g>
<!-- Node1&#45;&gt;Node11 -->
<g id="edge10" class="edge">
<title>Node1&#45;&gt;Node11</title>
<path fill="none" stroke="midnightblue" d="M326.25,-114.82C377.92,-107.01 468.82,-92.78 556.22,-76.17"/>
<polygon fill="midnightblue" stroke="midnightblue" points="557.14,-79.55 566.3,-74.24 555.82,-72.68 557.14,-79.55"/>
</g>
<!-- Node9 -->
<g id="node9" class="node">
<title>Node9</title>
<g id="a_node9"><a xlink:title=" ">
<polygon fill="white" stroke="#bfbfbf" points="386,-0.5 386,-19.5 455,-19.5 455,-0.5 386,-0.5"/>
<text text-anchor="middle" x="420.5" y="-7.5" font-family="Helvetica,sans-Serif" font-size="10.00">hipfft/hipfft.h</text>
</a>
</g>
</g>
<!-- Node8&#45;&gt;Node9 -->
<g id="edge8" class="edge">
<title>Node8&#45;&gt;Node9</title>
<path fill="none" stroke="midnightblue" d="M420.5,-56.08C420.5,-49.01 420.5,-38.86 420.5,-29.99"/>
<polygon fill="midnightblue" stroke="midnightblue" points="424,-29.75 420.5,-19.75 417,-29.75 424,-29.75"/>
</g>
</g>
</svg>
