<?xml version="1.0" encoding="UTF-8" standalone="no"?>
<!DOCTYPE svg PUBLIC "-//W3C//DTD SVG 1.1//EN"
 "http://www.w3.org/Graphics/SVG/1.1/DTD/svg11.dtd">
<!-- Generated by graphviz version 2.44.0 ()
 -->
<!-- Title: geometry.c Pages: 1 -->
<svg width="662pt" height="84pt"
 viewBox="0.00 0.00 662.00 84.00" xmlns="http://www.w3.org/2000/svg" xmlns:xlink="http://www.w3.org/1999/xlink">
<g id="graph0" class="graph" transform="scale(1 1) rotate(0) translate(4 80)">
<title>geometry.c</title>
<polygon fill="white" stroke="transparent" points="-4,4 -4,-80 658,-80 658,4 -4,4"/>
<!-- Node1 -->
<g id="node1" class="node">
<title>Node1</title>
<g id="a_node1"><a xlink:title=" ">
<polygon fill="#bfbfbf" stroke="black" points="249.5,-56.5 249.5,-75.5 313.5,-75.5 313.5,-56.5 249.5,-56.5"/>
<text text-anchor="middle" x="281.5" y="-63.5" font-family="Helvetica,sans-Serif" font-size="10.00">geometry.c</text>
</a>
</g>
</g>
<!-- Node2 -->
<g id="node2" class="node">
<title>Node2</title>
<g id="a_node2"><a xlink:title=" ">
<polygon fill="white" stroke="#bfbfbf" points="0,-0.5 0,-19.5 47,-19.5 47,-0.5 0,-0.5"/>
<text text-anchor="middle" x="23.5" y="-7.5" font-family="Helvetica,sans-Serif" font-size="10.00">stdlib.h</text>
</a>
</g>
</g>
<!-- Node1&#45;&gt;Node2 -->
<g id="edge1" class="edge">
<title>Node1&#45;&gt;Node2</title>
<path fill="none" stroke="midnightblue" d="M249.14,-59.37C207.01,-51.87 130.87,-37.7 57.13,-20.26"/>
<polygon fill="midnightblue" stroke="midnightblue" points="57.75,-16.81 47.21,-17.89 56.12,-23.62 57.75,-16.81"/>
</g>
<!-- Node3 -->
<g id="node3" class="node">
<title>Node3</title>
<g id="a_node3"><a xlink:title=" ">
<polygon fill="white" stroke="#bfbfbf" points="65,-0.5 65,-19.5 110,-19.5 110,-0.5 65,-0.5"/>
<text text-anchor="middle" x="87.5" y="-7.5" font-family="Helvetica,sans-Serif" font-size="10.00">stdio.h</text>
</a>
</g>
</g>
<!-- Node1&#45;&gt;Node3 -->
<g id="edge2" class="edge">
<title>Node1&#45;&gt;Node3</title>
<path fill="none" stroke="midnightblue" d="M250.22,-56.5C219.37,-48.08 170.62,-34.7 119.99,-20.4"/>
<polygon fill="midnightblue" stroke="midnightblue" points="120.75,-16.98 110.18,-17.62 118.85,-23.71 120.75,-16.98"/>
</g>
<!-- Node4 -->
<g id="node4" class="node">
<title>Node4</title>
<g id="a_node4"><a xlink:title=" ">
<polygon fill="white" stroke="#bfbfbf" points="128,-0.5 128,-19.5 171,-19.5 171,-0.5 128,-0.5"/>
<text text-anchor="middle" x="149.5" y="-7.5" font-family="Helvetica,sans-Serif" font-size="10.00">time.h</text>
</a>
</g>
</g>
<!-- Node1&#45;&gt;Node4 -->
<g id="edge3" class="edge">
<title>Node1&#45;&gt;Node4</title>
<path fill="none" stroke="midnightblue" d="M260.58,-56.44C238.76,-47.52 204.35,-33.44 179.61,-23.32"/>
<polygon fill="midnightblue" stroke="midnightblue" points="180.9,-20.06 170.32,-19.52 178.25,-26.54 180.9,-20.06"/>
</g>
<!-- Node5 -->
<g id="node5" class="node">
<title>Node5</title>
<g id="a_node5"><a xlink:title=" ">
<polygon fill="white" stroke="#bfbfbf" points="189.5,-0.5 189.5,-19.5 235.5,-19.5 235.5,-0.5 189.5,-0.5"/>
<text text-anchor="middle" x="212.5" y="-7.5" font-family="Helvetica,sans-Serif" font-size="10.00">math.h</text>
</a>
</g>
</g>
<!-- Node1&#45;&gt;Node5 -->
<g id="edge4" class="edge">
<title>Node1&#45;&gt;Node5</title>
<path fill="none" stroke="midnightblue" d="M270.41,-56.32C260.01,-48.18 244.24,-35.84 231.78,-26.09"/>
<polygon fill="midnightblue" stroke="midnightblue" points="233.82,-23.24 223.79,-19.83 229.51,-28.75 233.82,-23.24"/>
</g>
<!-- Node6 -->
<g id="node6" class="node">
<title>Node6</title>
<g id="a_node6"><a xlink:title=" ">
<polygon fill="white" stroke="#bfbfbf" points="254,-0.5 254,-19.5 309,-19.5 309,-0.5 254,-0.5"/>
<text text-anchor="middle" x="281.5" y="-7.5" font-family="Helvetica,sans-Serif" font-size="10.00">mwalib.h</text>
</a>
</g>
</g>
<!-- Node1&#45;&gt;Node6 -->
<g id="edge5" class="edge">
<title>Node1&#45;&gt;Node6</title>
<path fill="none" stroke="midnightblue" d="M281.5,-56.08C281.5,-49.01 281.5,-38.86 281.5,-29.99"/>
<polygon fill="midnightblue" stroke="midnightblue" points="285,-29.75 281.5,-19.75 278,-29.75 285,-29.75"/>
</g>
<!-- Node7 -->
<g id="node7" class="node">
<title>Node7</title>
<g id="a_node7"><a xlink:title=" ">
<polygon fill="white" stroke="#bfbfbf" points="327.5,-0.5 327.5,-19.5 383.5,-19.5 383.5,-0.5 327.5,-0.5"/>
<text text-anchor="middle" x="355.5" y="-7.5" font-family="Helvetica,sans-Serif" font-size="10.00">star/pal.h</text>
</a>
</g>
</g>
<!-- Node1&#45;&gt;Node7 -->
<g id="edge6" class="edge">
<title>Node1&#45;&gt;Node7</title>
<path fill="none" stroke="midnightblue" d="M293.39,-56.32C304.65,-48.11 321.79,-35.6 335.21,-25.81"/>
<polygon fill="midnightblue" stroke="midnightblue" points="337.38,-28.56 343.39,-19.83 333.25,-22.9 337.38,-28.56"/>
</g>
<!-- Node8 -->
<g id="node8" class="node">
<title>Node8</title>
<g id="a_node8"><a xlink:title=" ">
<polygon fill="white" stroke="#bfbfbf" points="401,-0.5 401,-19.5 476,-19.5 476,-0.5 401,-0.5"/>
<text text-anchor="middle" x="438.5" y="-7.5" font-family="Helvetica,sans-Serif" font-size="10.00">star/palmac.h</text>
</a>
</g>
</g>
<!-- Node1&#45;&gt;Node8 -->
<g id="edge7" class="edge">
<title>Node1&#45;&gt;Node8</title>
<path fill="none" stroke="midnightblue" d="M306.38,-56.44C332.79,-47.36 374.72,-32.94 404.24,-22.78"/>
<polygon fill="midnightblue" stroke="midnightblue" points="405.42,-26.08 413.74,-19.52 403.14,-19.46 405.42,-26.08"/>
</g>
<!-- Node9 -->
<g id="node9" class="node">
<title>Node9</title>
<g id="a_node9"><a xlink:title=" ">
<polygon fill="white" stroke="#bfbfbf" points="494.5,-0.5 494.5,-19.5 558.5,-19.5 558.5,-0.5 494.5,-0.5"/>
<text text-anchor="middle" x="526.5" y="-7.5" font-family="Helvetica,sans-Serif" font-size="10.00">vcsbeam.h</text>
</a>
</g>
</g>
<!-- Node1&#45;&gt;Node9 -->
<g id="edge8" class="edge">
<title>Node1&#45;&gt;Node9</title>
<path fill="none" stroke="midnightblue" d="M313.53,-57.94C357.37,-48.28 436.12,-30.92 484.6,-20.23"/>
<polygon fill="midnightblue" stroke="midnightblue" points="485.45,-23.63 494.46,-18.06 483.94,-16.8 485.45,-23.63"/>
</g>
<!-- Node10 -->
<g id="node10" class="node">
<title>Node10</title>
<g id="a_node10"><a xlink:title=" ">
<polygon fill="white" stroke="#bfbfbf" points="577,-0.5 577,-19.5 654,-19.5 654,-0.5 577,-0.5"/>
<text text-anchor="middle" x="615.5" y="-7.5" font-family="Helvetica,sans-Serif" font-size="10.00">gpu_macros.h</text>
</a>
</g>
</g>
<!-- Node1&#45;&gt;Node10 -->
<g id="edge9" class="edge">
<title>Node1&#45;&gt;Node10</title>
<path fill="none" stroke="midnightblue" d="M313.72,-60.25C364.97,-52.61 468.45,-36.93 566.65,-20.1"/>
<polygon fill="midnightblue" stroke="midnightblue" points="567.48,-23.51 576.74,-18.37 566.3,-16.61 567.48,-23.51"/>
</g>
</g>
</svg>
