<?xml version="1.0" encoding="UTF-8" standalone="no"?>
<!DOCTYPE svg PUBLIC "-//W3C//DTD SVG 1.1//EN"
 "http://www.w3.org/Graphics/SVG/1.1/DTD/svg11.dtd">
<!-- Generated by graphviz version 2.44.0 ()
 -->
<!-- Title: jones.c Pages: 1 -->
<svg width="630pt" height="84pt"
 viewBox="0.00 0.00 630.00 84.00" xmlns="http://www.w3.org/2000/svg" xmlns:xlink="http://www.w3.org/1999/xlink">
<g id="graph0" class="graph" transform="scale(1 1) rotate(0) translate(4 80)">
<title>jones.c</title>
<polygon fill="white" stroke="transparent" points="-4,4 -4,-80 626,-80 626,4 -4,4"/>
<!-- Node1 -->
<g id="node1" class="node">
<title>Node1</title>
<g id="a_node1"><a xlink:title=" ">
<polygon fill="#bfbfbf" stroke="black" points="258,-56.5 258,-75.5 305,-75.5 305,-56.5 258,-56.5"/>
<text text-anchor="middle" x="281.5" y="-63.5" font-family="Helvetica,sans-Serif" font-size="10.00">jones.c</text>
</a>
</g>
</g>
<!-- Node2 -->
<g id="node2" class="node">
<title>Node2</title>
<g id="a_node2"><a xlink:title=" ">
<polygon fill="white" stroke="#bfbfbf" points="0,-0.5 0,-19.5 45,-19.5 45,-0.5 0,-0.5"/>
<text text-anchor="middle" x="22.5" y="-7.5" font-family="Helvetica,sans-Serif" font-size="10.00">stdio.h</text>
</a>
</g>
</g>
<!-- Node1&#45;&gt;Node2 -->
<g id="edge1" class="edge">
<title>Node1&#45;&gt;Node2</title>
<path fill="none" stroke="midnightblue" d="M257.72,-61.01C217.79,-54.17 134.59,-39.27 55.28,-20.28"/>
<polygon fill="midnightblue" stroke="midnightblue" points="55.67,-16.77 45.13,-17.82 54.02,-23.57 55.67,-16.77"/>
</g>
<!-- Node3 -->
<g id="node3" class="node">
<title>Node3</title>
<g id="a_node3"><a xlink:title=" ">
<polygon fill="white" stroke="#bfbfbf" points="63,-0.5 63,-19.5 110,-19.5 110,-0.5 63,-0.5"/>
<text text-anchor="middle" x="86.5" y="-7.5" font-family="Helvetica,sans-Serif" font-size="10.00">stdlib.h</text>
</a>
</g>
</g>
<!-- Node1&#45;&gt;Node3 -->
<g id="edge2" class="edge">
<title>Node1&#45;&gt;Node3</title>
<path fill="none" stroke="midnightblue" d="M257.98,-58.49C223.5,-48.94 159.08,-31.1 119.76,-20.21"/>
<polygon fill="midnightblue" stroke="midnightblue" points="120.68,-16.83 110.1,-17.54 118.81,-23.58 120.68,-16.83"/>
</g>
<!-- Node4 -->
<g id="node4" class="node">
<title>Node4</title>
<g id="a_node4"><a xlink:title=" ">
<polygon fill="white" stroke="#bfbfbf" points="128.5,-0.5 128.5,-19.5 178.5,-19.5 178.5,-0.5 128.5,-0.5"/>
<text text-anchor="middle" x="153.5" y="-7.5" font-family="Helvetica,sans-Serif" font-size="10.00">unistd.h</text>
</a>
</g>
</g>
<!-- Node1&#45;&gt;Node4 -->
<g id="edge3" class="edge">
<title>Node1&#45;&gt;Node4</title>
<path fill="none" stroke="midnightblue" d="M261.22,-56.44C240.15,-47.56 206.98,-33.56 183.01,-23.45"/>
<polygon fill="midnightblue" stroke="midnightblue" points="184.26,-20.18 173.69,-19.52 181.54,-26.63 184.26,-20.18"/>
</g>
<!-- Node5 -->
<g id="node5" class="node">
<title>Node5</title>
<g id="a_node5"><a xlink:title=" ">
<polygon fill="white" stroke="#bfbfbf" points="197,-0.5 197,-19.5 240,-19.5 240,-0.5 197,-0.5"/>
<text text-anchor="middle" x="218.5" y="-7.5" font-family="Helvetica,sans-Serif" font-size="10.00">time.h</text>
</a>
</g>
</g>
<!-- Node1&#45;&gt;Node5 -->
<g id="edge4" class="edge">
<title>Node1&#45;&gt;Node5</title>
<path fill="none" stroke="midnightblue" d="M271.38,-56.32C261.97,-48.26 247.76,-36.08 236.43,-26.37"/>
<polygon fill="midnightblue" stroke="midnightblue" points="238.68,-23.68 228.81,-19.83 234.12,-29 238.68,-23.68"/>
</g>
<!-- Node6 -->
<g id="node6" class="node">
<title>Node6</title>
<g id="a_node6"><a xlink:title=" ">
<polygon fill="white" stroke="#bfbfbf" points="258.5,-0.5 258.5,-19.5 304.5,-19.5 304.5,-0.5 258.5,-0.5"/>
<text text-anchor="middle" x="281.5" y="-7.5" font-family="Helvetica,sans-Serif" font-size="10.00">math.h</text>
</a>
</g>
</g>
<!-- Node1&#45;&gt;Node6 -->
<g id="edge5" class="edge">
<title>Node1&#45;&gt;Node6</title>
<path fill="none" stroke="midnightblue" d="M281.5,-56.08C281.5,-49.01 281.5,-38.86 281.5,-29.99"/>
<polygon fill="midnightblue" stroke="midnightblue" points="285,-29.75 281.5,-19.75 278,-29.75 285,-29.75"/>
</g>
<!-- Node7 -->
<g id="node7" class="node">
<title>Node7</title>
<g id="a_node7"><a xlink:title=" ">
<polygon fill="white" stroke="#bfbfbf" points="322.5,-0.5 322.5,-19.5 370.5,-19.5 370.5,-0.5 322.5,-0.5"/>
<text text-anchor="middle" x="346.5" y="-7.5" font-family="Helvetica,sans-Serif" font-size="10.00">string.h</text>
</a>
</g>
</g>
<!-- Node1&#45;&gt;Node7 -->
<g id="edge6" class="edge">
<title>Node1&#45;&gt;Node7</title>
<path fill="none" stroke="midnightblue" d="M291.94,-56.32C301.65,-48.26 316.32,-36.08 328,-26.37"/>
<polygon fill="midnightblue" stroke="midnightblue" points="330.41,-28.92 335.87,-19.83 325.94,-23.53 330.41,-28.92"/>
</g>
<!-- Node8 -->
<g id="node8" class="node">
<title>Node8</title>
<g id="a_node8"><a xlink:title=" ">
<polygon fill="white" stroke="#bfbfbf" points="389,-0.5 389,-19.5 444,-19.5 444,-0.5 389,-0.5"/>
<text text-anchor="middle" x="416.5" y="-7.5" font-family="Helvetica,sans-Serif" font-size="10.00">mwalib.h</text>
</a>
</g>
</g>
<!-- Node1&#45;&gt;Node8 -->
<g id="edge7" class="edge">
<title>Node1&#45;&gt;Node8</title>
<path fill="none" stroke="midnightblue" d="M302.89,-56.44C325.21,-47.52 360.4,-33.44 385.71,-23.32"/>
<polygon fill="midnightblue" stroke="midnightblue" points="387.22,-26.48 395.21,-19.52 384.62,-19.98 387.22,-26.48"/>
</g>
<!-- Node9 -->
<g id="node9" class="node">
<title>Node9</title>
<g id="a_node9"><a xlink:title=" ">
<polygon fill="white" stroke="#bfbfbf" points="462.5,-0.5 462.5,-19.5 526.5,-19.5 526.5,-0.5 462.5,-0.5"/>
<text text-anchor="middle" x="494.5" y="-7.5" font-family="Helvetica,sans-Serif" font-size="10.00">vcsbeam.h</text>
</a>
</g>
</g>
<!-- Node1&#45;&gt;Node9 -->
<g id="edge8" class="edge">
<title>Node1&#45;&gt;Node9</title>
<path fill="none" stroke="midnightblue" d="M305.11,-59.01C340.68,-50 408.54,-32.79 452.63,-21.61"/>
<polygon fill="midnightblue" stroke="midnightblue" points="453.65,-24.97 462.48,-19.12 451.93,-18.18 453.65,-24.97"/>
</g>
<!-- Node10 -->
<g id="node10" class="node">
<title>Node10</title>
<g id="a_node10"><a xlink:title=" ">
<polygon fill="white" stroke="#bfbfbf" points="545,-0.5 545,-19.5 622,-19.5 622,-0.5 545,-0.5"/>
<text text-anchor="middle" x="583.5" y="-7.5" font-family="Helvetica,sans-Serif" font-size="10.00">gpu_macros.h</text>
</a>
</g>
</g>
<!-- Node1&#45;&gt;Node10 -->
<g id="edge9" class="edge">
<title>Node1&#45;&gt;Node10</title>
<path fill="none" stroke="midnightblue" d="M305.33,-60.86C348.75,-53.3 443.91,-36.65 535.05,-20.07"/>
<polygon fill="midnightblue" stroke="midnightblue" points="535.78,-23.49 544.99,-18.25 534.53,-16.6 535.78,-23.49"/>
</g>
</g>
</svg>
