<?xml version="1.0" encoding="UTF-8" standalone="no"?>
<!DOCTYPE svg PUBLIC "-//W3C//DTD SVG 1.1//EN"
 "http://www.w3.org/Graphics/SVG/1.1/DTD/svg11.dtd">
<!-- Generated by graphviz version 2.44.0 ()
 -->
<!-- Title: metadata.c Pages: 1 -->
<svg width="497pt" height="84pt"
 viewBox="0.00 0.00 497.00 84.00" xmlns="http://www.w3.org/2000/svg" xmlns:xlink="http://www.w3.org/1999/xlink">
<g id="graph0" class="graph" transform="scale(1 1) rotate(0) translate(4 80)">
<title>metadata.c</title>
<polygon fill="white" stroke="transparent" points="-4,4 -4,-80 493,-80 493,4 -4,4"/>
<!-- Node1 -->
<g id="node1" class="node">
<title>Node1</title>
<g id="a_node1"><a xlink:title=" ">
<polygon fill="#bfbfbf" stroke="black" points="181,-56.5 181,-75.5 246,-75.5 246,-56.5 181,-56.5"/>
<text text-anchor="middle" x="213.5" y="-63.5" font-family="Helvetica,sans-Serif" font-size="10.00">metadata.c</text>
</a>
</g>
</g>
<!-- Node2 -->
<g id="node2" class="node">
<title>Node2</title>
<g id="a_node2"><a xlink:title=" ">
<polygon fill="white" stroke="#bfbfbf" points="0,-0.5 0,-19.5 47,-19.5 47,-0.5 0,-0.5"/>
<text text-anchor="middle" x="23.5" y="-7.5" font-family="Helvetica,sans-Serif" font-size="10.00">stdlib.h</text>
</a>
</g>
</g>
<!-- Node1&#45;&gt;Node2 -->
<g id="edge1" class="edge">
<title>Node1&#45;&gt;Node2</title>
<path fill="none" stroke="midnightblue" d="M183.39,-56.44C149.01,-46.67 92.91,-30.73 57.13,-20.56"/>
<polygon fill="midnightblue" stroke="midnightblue" points="57.74,-17.09 47.16,-17.73 55.82,-23.83 57.74,-17.09"/>
</g>
<!-- Node3 -->
<g id="node3" class="node">
<title>Node3</title>
<g id="a_node3"><a xlink:title=" ">
<polygon fill="white" stroke="#bfbfbf" points="65,-0.5 65,-19.5 110,-19.5 110,-0.5 65,-0.5"/>
<text text-anchor="middle" x="87.5" y="-7.5" font-family="Helvetica,sans-Serif" font-size="10.00">stdio.h</text>
</a>
</g>
</g>
<!-- Node1&#45;&gt;Node3 -->
<g id="edge2" class="edge">
<title>Node1&#45;&gt;Node3</title>
<path fill="none" stroke="midnightblue" d="M193.53,-56.44C172.89,-47.6 140.44,-33.69 116.87,-23.59"/>
<polygon fill="midnightblue" stroke="midnightblue" points="117.94,-20.24 107.37,-19.52 115.18,-26.67 117.94,-20.24"/>
</g>
<!-- Node4 -->
<g id="node4" class="node">
<title>Node4</title>
<g id="a_node4"><a xlink:title=" ">
<polygon fill="white" stroke="#bfbfbf" points="128,-0.5 128,-19.5 171,-19.5 171,-0.5 128,-0.5"/>
<text text-anchor="middle" x="149.5" y="-7.5" font-family="Helvetica,sans-Serif" font-size="10.00">time.h</text>
</a>
</g>
</g>
<!-- Node1&#45;&gt;Node4 -->
<g id="edge3" class="edge">
<title>Node1&#45;&gt;Node4</title>
<path fill="none" stroke="midnightblue" d="M203.22,-56.32C193.66,-48.26 179.22,-36.08 167.72,-26.37"/>
<polygon fill="midnightblue" stroke="midnightblue" points="169.87,-23.61 159.97,-19.83 165.36,-28.96 169.87,-23.61"/>
</g>
<!-- Node5 -->
<g id="node5" class="node">
<title>Node5</title>
<g id="a_node5"><a xlink:title=" ">
<polygon fill="white" stroke="#bfbfbf" points="189.5,-0.5 189.5,-19.5 237.5,-19.5 237.5,-0.5 189.5,-0.5"/>
<text text-anchor="middle" x="213.5" y="-7.5" font-family="Helvetica,sans-Serif" font-size="10.00">string.h</text>
</a>
</g>
</g>
<!-- Node1&#45;&gt;Node5 -->
<g id="edge4" class="edge">
<title>Node1&#45;&gt;Node5</title>
<path fill="none" stroke="midnightblue" d="M213.5,-56.08C213.5,-49.01 213.5,-38.86 213.5,-29.99"/>
<polygon fill="midnightblue" stroke="midnightblue" points="217,-29.75 213.5,-19.75 210,-29.75 217,-29.75"/>
</g>
<!-- Node6 -->
<g id="node6" class="node">
<title>Node6</title>
<g id="a_node6"><a xlink:title=" ">
<polygon fill="white" stroke="#bfbfbf" points="256,-0.5 256,-19.5 311,-19.5 311,-0.5 256,-0.5"/>
<text text-anchor="middle" x="283.5" y="-7.5" font-family="Helvetica,sans-Serif" font-size="10.00">mwalib.h</text>
</a>
</g>
</g>
<!-- Node1&#45;&gt;Node6 -->
<g id="edge5" class="edge">
<title>Node1&#45;&gt;Node6</title>
<path fill="none" stroke="midnightblue" d="M224.75,-56.32C235.3,-48.18 251.3,-35.84 263.94,-26.09"/>
<polygon fill="midnightblue" stroke="midnightblue" points="266.27,-28.71 272.05,-19.83 261.99,-23.17 266.27,-28.71"/>
</g>
<!-- Node7 -->
<g id="node7" class="node">
<title>Node7</title>
<g id="a_node7"><a xlink:title=" ">
<polygon fill="white" stroke="#bfbfbf" points="329.5,-0.5 329.5,-19.5 393.5,-19.5 393.5,-0.5 329.5,-0.5"/>
<text text-anchor="middle" x="361.5" y="-7.5" font-family="Helvetica,sans-Serif" font-size="10.00">vcsbeam.h</text>
</a>
</g>
</g>
<!-- Node1&#45;&gt;Node7 -->
<g id="edge6" class="edge">
<title>Node1&#45;&gt;Node7</title>
<path fill="none" stroke="midnightblue" d="M236.95,-56.44C261.63,-47.44 300.69,-33.19 328.48,-23.05"/>
<polygon fill="midnightblue" stroke="midnightblue" points="329.96,-26.23 338.16,-19.52 327.56,-19.66 329.96,-26.23"/>
</g>
<!-- Node8 -->
<g id="node8" class="node">
<title>Node8</title>
<g id="a_node8"><a xlink:title=" ">
<polygon fill="white" stroke="#bfbfbf" points="412,-0.5 412,-19.5 489,-19.5 489,-0.5 412,-0.5"/>
<text text-anchor="middle" x="450.5" y="-7.5" font-family="Helvetica,sans-Serif" font-size="10.00">gpu_macros.h</text>
</a>
</g>
</g>
<!-- Node1&#45;&gt;Node8 -->
<g id="edge7" class="edge">
<title>Node1&#45;&gt;Node8</title>
<path fill="none" stroke="midnightblue" d="M246.45,-57.49C287.22,-48.2 356.9,-32.33 403.32,-21.75"/>
<polygon fill="midnightblue" stroke="midnightblue" points="404.17,-25.15 413.14,-19.51 402.62,-18.32 404.17,-25.15"/>
</g>
</g>
</svg>
