<?xml version="1.0" encoding="UTF-8" standalone="no"?>
<!DOCTYPE svg PUBLIC "-//W3C//DTD SVG 1.1//EN"
 "http://www.w3.org/Graphics/SVG/1.1/DTD/svg11.dtd">
<!-- Generated by graphviz version 2.44.0 ()
 -->
<!-- Title: performance.c Pages: 1 -->
<svg width="467pt" height="84pt"
 viewBox="0.00 0.00 466.50 84.00" xmlns="http://www.w3.org/2000/svg" xmlns:xlink="http://www.w3.org/1999/xlink">
<g id="graph0" class="graph" transform="scale(1 1) rotate(0) translate(4 80)">
<title>performance.c</title>
<polygon fill="white" stroke="transparent" points="-4,4 -4,-80 462.5,-80 462.5,4 -4,4"/>
<!-- Node1 -->
<g id="node1" class="node">
<title>Node1</title>
<g id="a_node1"><a xlink:title=" ">
<polygon fill="#bfbfbf" stroke="black" points="187.5,-56.5 187.5,-75.5 265.5,-75.5 265.5,-56.5 187.5,-56.5"/>
<text text-anchor="middle" x="226.5" y="-63.5" font-family="Helvetica,sans-Serif" font-size="10.00">performance.c</text>
</a>
</g>
</g>
<!-- Node2 -->
<g id="node2" class="node">
<title>Node2</title>
<g id="a_node2"><a xlink:title=" ">
<polygon fill="white" stroke="#bfbfbf" points="0,-0.5 0,-19.5 47,-19.5 47,-0.5 0,-0.5"/>
<text text-anchor="middle" x="23.5" y="-7.5" font-family="Helvetica,sans-Serif" font-size="10.00">stdlib.h</text>
</a>
</g>
</g>
<!-- Node1&#45;&gt;Node2 -->
<g id="edge1" class="edge">
<title>Node1&#45;&gt;Node2</title>
<path fill="none" stroke="midnightblue" d="M193.35,-56.45C160.89,-48.05 109.77,-34.7 57.1,-20.41"/>
<polygon fill="midnightblue" stroke="midnightblue" points="57.82,-16.98 47.25,-17.73 55.98,-23.73 57.82,-16.98"/>
</g>
<!-- Node3 -->
<g id="node3" class="node">
<title>Node3</title>
<g id="a_node3"><a xlink:title=" ">
<polygon fill="white" stroke="#bfbfbf" points="65,-0.5 65,-19.5 110,-19.5 110,-0.5 65,-0.5"/>
<text text-anchor="middle" x="87.5" y="-7.5" font-family="Helvetica,sans-Serif" font-size="10.00">stdio.h</text>
</a>
</g>
</g>
<!-- Node1&#45;&gt;Node3 -->
<g id="edge2" class="edge">
<title>Node1&#45;&gt;Node3</title>
<path fill="none" stroke="midnightblue" d="M204.48,-56.44C181.4,-47.48 144.94,-33.31 118.86,-23.18"/>
<polygon fill="midnightblue" stroke="midnightblue" points="120.01,-19.88 109.42,-19.52 117.48,-26.4 120.01,-19.88"/>
</g>
<!-- Node4 -->
<g id="node4" class="node">
<title>Node4</title>
<g id="a_node4"><a xlink:title=" ">
<polygon fill="white" stroke="#bfbfbf" points="128.5,-0.5 128.5,-19.5 184.5,-19.5 184.5,-0.5 128.5,-0.5"/>
<text text-anchor="middle" x="156.5" y="-7.5" font-family="Helvetica,sans-Serif" font-size="10.00">stdbool.h</text>
</a>
</g>
</g>
<!-- Node1&#45;&gt;Node4 -->
<g id="edge3" class="edge">
<title>Node1&#45;&gt;Node4</title>
<path fill="none" stroke="midnightblue" d="M215.25,-56.32C204.7,-48.18 188.7,-35.84 176.06,-26.09"/>
<polygon fill="midnightblue" stroke="midnightblue" points="178.01,-23.17 167.95,-19.83 173.73,-28.71 178.01,-23.17"/>
</g>
<!-- Node5 -->
<g id="node5" class="node">
<title>Node5</title>
<g id="a_node5"><a xlink:title=" ">
<polygon fill="white" stroke="#bfbfbf" points="202.5,-0.5 202.5,-19.5 250.5,-19.5 250.5,-0.5 202.5,-0.5"/>
<text text-anchor="middle" x="226.5" y="-7.5" font-family="Helvetica,sans-Serif" font-size="10.00">string.h</text>
</a>
</g>
</g>
<!-- Node1&#45;&gt;Node5 -->
<g id="edge4" class="edge">
<title>Node1&#45;&gt;Node5</title>
<path fill="none" stroke="midnightblue" d="M226.5,-56.08C226.5,-49.01 226.5,-38.86 226.5,-29.99"/>
<polygon fill="midnightblue" stroke="midnightblue" points="230,-29.75 226.5,-19.75 223,-29.75 230,-29.75"/>
</g>
<!-- Node6 -->
<g id="node6" class="node">
<title>Node6</title>
<g id="a_node6"><a xlink:title=" ">
<polygon fill="white" stroke="#bfbfbf" points="269,-0.5 269,-19.5 312,-19.5 312,-0.5 269,-0.5"/>
<text text-anchor="middle" x="290.5" y="-7.5" font-family="Helvetica,sans-Serif" font-size="10.00">time.h</text>
</a>
</g>
</g>
<!-- Node1&#45;&gt;Node6 -->
<g id="edge5" class="edge">
<title>Node1&#45;&gt;Node6</title>
<path fill="none" stroke="midnightblue" d="M236.78,-56.32C246.34,-48.26 260.78,-36.08 272.28,-26.37"/>
<polygon fill="midnightblue" stroke="midnightblue" points="274.64,-28.96 280.03,-19.83 270.13,-23.61 274.64,-28.96"/>
</g>
<!-- Node7 -->
<g id="node7" class="node">
<title>Node7</title>
<g id="a_node7"><a xlink:title=" ">
<polygon fill="white" stroke="#bfbfbf" points="330.5,-0.5 330.5,-19.5 376.5,-19.5 376.5,-0.5 330.5,-0.5"/>
<text text-anchor="middle" x="353.5" y="-7.5" font-family="Helvetica,sans-Serif" font-size="10.00">math.h</text>
</a>
</g>
</g>
<!-- Node1&#45;&gt;Node7 -->
<g id="edge6" class="edge">
<title>Node1&#45;&gt;Node7</title>
<path fill="none" stroke="midnightblue" d="M246.62,-56.44C267.52,-47.56 300.43,-33.56 324.22,-23.45"/>
<polygon fill="midnightblue" stroke="midnightblue" points="325.64,-26.65 333.47,-19.52 322.9,-20.21 325.64,-26.65"/>
</g>
<!-- Node8 -->
<g id="node8" class="node">
<title>Node8</title>
<g id="a_node8"><a xlink:title=" ">
<polygon fill="white" stroke="#bfbfbf" points="394.5,-0.5 394.5,-19.5 458.5,-19.5 458.5,-0.5 394.5,-0.5"/>
<text text-anchor="middle" x="426.5" y="-7.5" font-family="Helvetica,sans-Serif" font-size="10.00">vcsbeam.h</text>
</a>
</g>
</g>
<!-- Node1&#45;&gt;Node8 -->
<g id="edge7" class="edge">
<title>Node1&#45;&gt;Node8</title>
<path fill="none" stroke="midnightblue" d="M258.19,-56.44C292.57,-47.16 347.58,-32.31 385.29,-22.13"/>
<polygon fill="midnightblue" stroke="midnightblue" points="386.22,-25.5 394.96,-19.52 384.39,-18.74 386.22,-25.5"/>
</g>
</g>
</svg>
