<?xml version="1.0" encoding="UTF-8" standalone="no"?>
<!DOCTYPE svg PUBLIC "-//W3C//DTD SVG 1.1//EN"
 "http://www.w3.org/Graphics/SVG/1.1/DTD/svg11.dtd">
<!-- Generated by graphviz version 2.44.0 ()
 -->
<!-- Title: pfb.cu Pages: 1 -->
<svg width="724pt" height="84pt"
 viewBox="0.00 0.00 723.50 84.00" xmlns="http://www.w3.org/2000/svg" xmlns:xlink="http://www.w3.org/1999/xlink">
<g id="graph0" class="graph" transform="scale(1 1) rotate(0) translate(4 80)">
<title>pfb.cu</title>
<polygon fill="white" stroke="transparent" points="-4,4 -4,-80 719.5,-80 719.5,4 -4,4"/>
<!-- Node1 -->
<g id="node1" class="node">
<title>Node1</title>
<g id="a_node1"><a xlink:title=" ">
<polygon fill="#bfbfbf" stroke="black" points="303,-56.5 303,-75.5 346,-75.5 346,-56.5 303,-56.5"/>
<text text-anchor="middle" x="324.5" y="-63.5" font-family="Helvetica,sans-Serif" font-size="10.00">pfb.cu</text>
</a>
</g>
</g>
<!-- Node2 -->
<g id="node2" class="node">
<title>Node2</title>
<g id="a_node2"><a xlink:title=" ">
<polygon fill="white" stroke="#bfbfbf" points="0,-0.5 0,-19.5 47,-19.5 47,-0.5 0,-0.5"/>
<text text-anchor="middle" x="23.5" y="-7.5" font-family="Helvetica,sans-Serif" font-size="10.00">stdlib.h</text>
</a>
</g>
</g>
<!-- Node1&#45;&gt;Node2 -->
<g id="edge1" class="edge">
<title>Node1&#45;&gt;Node2</title>
<path fill="none" stroke="midnightblue" d="M302.73,-62.17C258.28,-56.23 153.78,-41.38 57.12,-20.18"/>
<polygon fill="midnightblue" stroke="midnightblue" points="57.71,-16.73 47.19,-17.97 56.2,-23.56 57.71,-16.73"/>
</g>
<!-- Node3 -->
<g id="node3" class="node">
<title>Node3</title>
<g id="a_node3"><a xlink:title=" ">
<polygon fill="white" stroke="#bfbfbf" points="65,-0.5 65,-19.5 110,-19.5 110,-0.5 65,-0.5"/>
<text text-anchor="middle" x="87.5" y="-7.5" font-family="Helvetica,sans-Serif" font-size="10.00">stdio.h</text>
</a>
</g>
</g>
<!-- Node1&#45;&gt;Node3 -->
<g id="edge2" class="edge">
<title>Node1&#45;&gt;Node3</title>
<path fill="none" stroke="midnightblue" d="M302.86,-60.68C266.97,-53.43 192.7,-38.02 119.97,-20"/>
<polygon fill="midnightblue" stroke="midnightblue" points="120.73,-16.58 110.18,-17.55 119.04,-23.37 120.73,-16.58"/>
</g>
<!-- Node4 -->
<g id="node4" class="node">
<title>Node4</title>
<g id="a_node4"><a xlink:title=" ">
<polygon fill="white" stroke="#bfbfbf" points="128.5,-0.5 128.5,-19.5 176.5,-19.5 176.5,-0.5 128.5,-0.5"/>
<text text-anchor="middle" x="152.5" y="-7.5" font-family="Helvetica,sans-Serif" font-size="10.00">stdint.h</text>
</a>
</g>
</g>
<!-- Node1&#45;&gt;Node4 -->
<g id="edge3" class="edge">
<title>Node1&#45;&gt;Node4</title>
<path fill="none" stroke="midnightblue" d="M302.72,-58.16C273.34,-48.94 220.75,-32.43 186.24,-21.59"/>
<polygon fill="midnightblue" stroke="midnightblue" points="187.18,-18.22 176.59,-18.56 185.09,-24.9 187.18,-18.22"/>
</g>
<!-- Node5 -->
<g id="node5" class="node">
<title>Node5</title>
<g id="a_node5"><a xlink:title=" ">
<polygon fill="white" stroke="#bfbfbf" points="194.5,-0.5 194.5,-19.5 240.5,-19.5 240.5,-0.5 194.5,-0.5"/>
<text text-anchor="middle" x="217.5" y="-7.5" font-family="Helvetica,sans-Serif" font-size="10.00">math.h</text>
</a>
</g>
</g>
<!-- Node1&#45;&gt;Node5 -->
<g id="edge4" class="edge">
<title>Node1&#45;&gt;Node5</title>
<path fill="none" stroke="midnightblue" d="M307.31,-56.32C290.15,-47.66 263.55,-34.24 243.75,-24.25"/>
<polygon fill="midnightblue" stroke="midnightblue" points="245.15,-21.04 234.65,-19.65 242,-27.28 245.15,-21.04"/>
</g>
<!-- Node6 -->
<g id="node6" class="node">
<title>Node6</title>
<g id="a_node6"><a xlink:title=" ">
<polygon fill="white" stroke="#bfbfbf" points="258.5,-0.5 258.5,-19.5 306.5,-19.5 306.5,-0.5 258.5,-0.5"/>
<text text-anchor="middle" x="282.5" y="-7.5" font-family="Helvetica,sans-Serif" font-size="10.00">string.h</text>
</a>
</g>
</g>
<!-- Node1&#45;&gt;Node6 -->
<g id="edge5" class="edge">
<title>Node1&#45;&gt;Node6</title>
<path fill="none" stroke="midnightblue" d="M317.56,-56.08C311.57,-48.38 302.75,-37.03 295.45,-27.65"/>
<polygon fill="midnightblue" stroke="midnightblue" points="298.21,-25.5 289.31,-19.75 292.68,-29.79 298.21,-25.5"/>
</g>
<!-- Node7 -->
<g id="node7" class="node">
<title>Node7</title>
<g id="a_node7"><a xlink:title=" ">
<polygon fill="white" stroke="#bfbfbf" points="325,-0.5 325,-19.5 408,-19.5 408,-0.5 325,-0.5"/>
<text text-anchor="middle" x="366.5" y="-7.5" font-family="Helvetica,sans-Serif" font-size="10.00">cuda_runtime.h</text>
</a>
</g>
</g>
<!-- Node1&#45;&gt;Node7 -->
<g id="edge6" class="edge">
<title>Node1&#45;&gt;Node7</title>
<path fill="none" stroke="midnightblue" d="M331.44,-56.08C337.43,-48.38 346.25,-37.03 353.55,-27.65"/>
<polygon fill="midnightblue" stroke="midnightblue" points="356.32,-29.79 359.69,-19.75 350.79,-25.5 356.32,-29.79"/>
</g>
<!-- Node8 -->
<g id="node8" class="node">
<title>Node8</title>
<g id="a_node8"><a xlink:title=" ">
<polygon fill="white" stroke="#bfbfbf" points="426.5,-0.5 426.5,-19.5 498.5,-19.5 498.5,-0.5 426.5,-0.5"/>
<text text-anchor="middle" x="462.5" y="-7.5" font-family="Helvetica,sans-Serif" font-size="10.00">cuComplex.h</text>
</a>
</g>
</g>
<!-- Node1&#45;&gt;Node8 -->
<g id="edge7" class="edge">
<title>Node1&#45;&gt;Node8</title>
<path fill="none" stroke="midnightblue" d="M346.06,-56.56C368.92,-47.62 405.23,-33.41 431.22,-23.24"/>
<polygon fill="midnightblue" stroke="midnightblue" points="432.6,-26.46 440.63,-19.56 430.05,-19.94 432.6,-26.46"/>
</g>
<!-- Node9 -->
<g id="node9" class="node">
<title>Node9</title>
<g id="a_node9"><a xlink:title=" ">
<polygon fill="white" stroke="#bfbfbf" points="517,-0.5 517,-19.5 560,-19.5 560,-0.5 517,-0.5"/>
<text text-anchor="middle" x="538.5" y="-7.5" font-family="Helvetica,sans-Serif" font-size="10.00">cufft.h</text>
</a>
</g>
</g>
<!-- Node1&#45;&gt;Node9 -->
<g id="edge8" class="edge">
<title>Node1&#45;&gt;Node9</title>
<path fill="none" stroke="midnightblue" d="M346.27,-59.96C378.95,-52.32 442.87,-37.12 506.98,-20.05"/>
<polygon fill="midnightblue" stroke="midnightblue" points="508.1,-23.38 516.85,-17.41 506.29,-16.61 508.1,-23.38"/>
</g>
<!-- Node10 -->
<g id="node10" class="node">
<title>Node10</title>
<g id="a_node10"><a xlink:title=" ">
<polygon fill="white" stroke="#bfbfbf" points="578,-0.5 578,-19.5 633,-19.5 633,-0.5 578,-0.5"/>
<text text-anchor="middle" x="605.5" y="-7.5" font-family="Helvetica,sans-Serif" font-size="10.00">mwalib.h</text>
</a>
</g>
</g>
<!-- Node1&#45;&gt;Node10 -->
<g id="edge9" class="edge">
<title>Node1&#45;&gt;Node10</title>
<path fill="none" stroke="midnightblue" d="M346.22,-61.49C387.54,-54.7 480.46,-38.95 567.83,-20.27"/>
<polygon fill="midnightblue" stroke="midnightblue" points="568.6,-23.68 577.63,-18.15 567.12,-16.84 568.6,-23.68"/>
</g>
<!-- Node11 -->
<g id="node11" class="node">
<title>Node11</title>
<g id="a_node11"><a xlink:title=" ">
<polygon fill="white" stroke="#bfbfbf" points="651.5,-0.5 651.5,-19.5 715.5,-19.5 715.5,-0.5 651.5,-0.5"/>
<text text-anchor="middle" x="683.5" y="-7.5" font-family="Helvetica,sans-Serif" font-size="10.00">vcsbeam.h</text>
</a>
</g>
</g>
<!-- Node1&#45;&gt;Node11 -->
<g id="edge10" class="edge">
<title>Node1&#45;&gt;Node11</title>
<path fill="none" stroke="midnightblue" d="M346.18,-62.5C396.33,-56.61 524.39,-40.87 641.47,-20.07"/>
<polygon fill="midnightblue" stroke="midnightblue" points="642.09,-23.52 651.32,-18.31 640.86,-16.63 642.09,-23.52"/>
</g>
</g>
</svg>
