<?xml version="1.0" encoding="UTF-8" standalone="no"?>
<!DOCTYPE svg PUBLIC "-//W3C//DTD SVG 1.1//EN"
 "http://www.w3.org/Graphics/SVG/1.1/DTD/svg11.dtd">
<!-- Generated by graphviz version 2.44.0 ()
 -->
<!-- Title: primary_beam.c Pages: 1 -->
<svg width="546pt" height="84pt"
 viewBox="0.00 0.00 546.00 84.00" xmlns="http://www.w3.org/2000/svg" xmlns:xlink="http://www.w3.org/1999/xlink">
<g id="graph0" class="graph" transform="scale(1 1) rotate(0) translate(4 80)">
<title>primary_beam.c</title>
<polygon fill="white" stroke="transparent" points="-4,4 -4,-80 542,-80 542,4 -4,4"/>
<!-- Node1 -->
<g id="node1" class="node">
<title>Node1</title>
<g id="a_node1"><a xlink:title=" ">
<polygon fill="#bfbfbf" stroke="black" points="174,-56.5 174,-75.5 259,-75.5 259,-56.5 174,-56.5"/>
<text text-anchor="middle" x="216.5" y="-63.5" font-family="Helvetica,sans-Serif" font-size="10.00">primary_beam.c</text>
</a>
</g>
</g>
<!-- Node2 -->
<g id="node2" class="node">
<title>Node2</title>
<g id="a_node2"><a xlink:title=" ">
<polygon fill="white" stroke="#bfbfbf" points="0,-0.5 0,-19.5 47,-19.5 47,-0.5 0,-0.5"/>
<text text-anchor="middle" x="23.5" y="-7.5" font-family="Helvetica,sans-Serif" font-size="10.00">stdlib.h</text>
</a>
</g>
</g>
<!-- Node1&#45;&gt;Node2 -->
<g id="edge1" class="edge">
<title>Node1&#45;&gt;Node2</title>
<path fill="none" stroke="midnightblue" d="M185.93,-56.47C155.5,-47.98 107.21,-34.49 56.99,-20.42"/>
<polygon fill="midnightblue" stroke="midnightblue" points="57.84,-17.02 47.26,-17.69 55.95,-23.76 57.84,-17.02"/>
</g>
<!-- Node3 -->
<g id="node3" class="node">
<title>Node3</title>
<g id="a_node3"><a xlink:title=" ">
<polygon fill="white" stroke="#bfbfbf" points="65,-0.5 65,-19.5 110,-19.5 110,-0.5 65,-0.5"/>
<text text-anchor="middle" x="87.5" y="-7.5" font-family="Helvetica,sans-Serif" font-size="10.00">stdio.h</text>
</a>
</g>
</g>
<!-- Node1&#45;&gt;Node3 -->
<g id="edge2" class="edge">
<title>Node1&#45;&gt;Node3</title>
<path fill="none" stroke="midnightblue" d="M196.06,-56.44C174.83,-47.56 141.4,-33.56 117.25,-23.45"/>
<polygon fill="midnightblue" stroke="midnightblue" points="118.42,-20.15 107.84,-19.52 115.72,-26.61 118.42,-20.15"/>
</g>
<!-- Node4 -->
<g id="node4" class="node">
<title>Node4</title>
<g id="a_node4"><a xlink:title=" ">
<polygon fill="white" stroke="#bfbfbf" points="128,-0.5 128,-19.5 171,-19.5 171,-0.5 128,-0.5"/>
<text text-anchor="middle" x="149.5" y="-7.5" font-family="Helvetica,sans-Serif" font-size="10.00">time.h</text>
</a>
</g>
</g>
<!-- Node1&#45;&gt;Node4 -->
<g id="edge3" class="edge">
<title>Node1&#45;&gt;Node4</title>
<path fill="none" stroke="midnightblue" d="M205.74,-56.32C195.73,-48.26 180.61,-36.08 168.57,-26.37"/>
<polygon fill="midnightblue" stroke="midnightblue" points="170.44,-23.38 160.46,-19.83 166.05,-28.83 170.44,-23.38"/>
</g>
<!-- Node5 -->
<g id="node5" class="node">
<title>Node5</title>
<g id="a_node5"><a xlink:title=" ">
<polygon fill="white" stroke="#bfbfbf" points="189,-0.5 189,-19.5 244,-19.5 244,-0.5 189,-0.5"/>
<text text-anchor="middle" x="216.5" y="-7.5" font-family="Helvetica,sans-Serif" font-size="10.00">mwalib.h</text>
</a>
</g>
</g>
<!-- Node1&#45;&gt;Node5 -->
<g id="edge4" class="edge">
<title>Node1&#45;&gt;Node5</title>
<path fill="none" stroke="midnightblue" d="M216.5,-56.08C216.5,-49.01 216.5,-38.86 216.5,-29.99"/>
<polygon fill="midnightblue" stroke="midnightblue" points="220,-29.75 216.5,-19.75 213,-29.75 220,-29.75"/>
</g>
<!-- Node6 -->
<g id="node6" class="node">
<title>Node6</title>
<g id="a_node6"><a xlink:title=" ">
<polygon fill="white" stroke="#bfbfbf" points="262.5,-0.5 262.5,-19.5 360.5,-19.5 360.5,-0.5 262.5,-0.5"/>
<text text-anchor="middle" x="311.5" y="-7.5" font-family="Helvetica,sans-Serif" font-size="10.00">mwa_hyperbeam.h</text>
</a>
</g>
</g>
<!-- Node1&#45;&gt;Node6 -->
<g id="edge5" class="edge">
<title>Node1&#45;&gt;Node6</title>
<path fill="none" stroke="midnightblue" d="M231.76,-56.32C246.72,-47.82 269.75,-34.73 287.23,-24.8"/>
<polygon fill="midnightblue" stroke="midnightblue" points="289.31,-27.64 296.27,-19.65 285.85,-21.55 289.31,-27.64"/>
</g>
<!-- Node7 -->
<g id="node7" class="node">
<title>Node7</title>
<g id="a_node7"><a xlink:title=" ">
<polygon fill="white" stroke="#bfbfbf" points="378.5,-0.5 378.5,-19.5 442.5,-19.5 442.5,-0.5 378.5,-0.5"/>
<text text-anchor="middle" x="410.5" y="-7.5" font-family="Helvetica,sans-Serif" font-size="10.00">vcsbeam.h</text>
</a>
</g>
</g>
<!-- Node1&#45;&gt;Node7 -->
<g id="edge6" class="edge">
<title>Node1&#45;&gt;Node7</title>
<path fill="none" stroke="midnightblue" d="M247.24,-56.44C280.44,-47.2 333.49,-32.44 370.06,-22.26"/>
<polygon fill="midnightblue" stroke="midnightblue" points="371.21,-25.57 379.9,-19.52 369.33,-18.83 371.21,-25.57"/>
</g>
<!-- Node8 -->
<g id="node8" class="node">
<title>Node8</title>
<g id="a_node8"><a xlink:title=" ">
<polygon fill="white" stroke="#bfbfbf" points="461,-0.5 461,-19.5 538,-19.5 538,-0.5 461,-0.5"/>
<text text-anchor="middle" x="499.5" y="-7.5" font-family="Helvetica,sans-Serif" font-size="10.00">gpu_macros.h</text>
</a>
</g>
</g>
<!-- Node1&#45;&gt;Node8 -->
<g id="edge7" class="edge">
<title>Node1&#45;&gt;Node8</title>
<path fill="none" stroke="midnightblue" d="M259.17,-56.86C310.53,-47.06 396.56,-30.64 450.56,-20.34"/>
<polygon fill="midnightblue" stroke="midnightblue" points="451.42,-23.74 460.58,-18.43 450.1,-16.86 451.42,-23.74"/>
</g>
</g>
</svg>
