<?xml version="1.0" encoding="UTF-8" standalone="no"?>
<!DOCTYPE svg PUBLIC "-//W3C//DTD SVG 1.1//EN"
 "http://www.w3.org/Graphics/SVG/1.1/DTD/svg11.dtd">
<!-- Generated by graphviz version 2.44.0 ()
 -->
<!-- Title: primary_beam.c Pages: 1 -->
<svg width="611pt" height="84pt"
 viewBox="0.00 0.00 611.00 84.00" xmlns="http://www.w3.org/2000/svg" xmlns:xlink="http://www.w3.org/1999/xlink">
<g id="graph0" class="graph" transform="scale(1 1) rotate(0) translate(4 80)">
<title>primary_beam.c</title>
<polygon fill="white" stroke="transparent" points="-4,4 -4,-80 607,-80 607,4 -4,4"/>
<!-- Node1 -->
<g id="node1" class="node">
<title>Node1</title>
<g id="a_node1"><a xlink:title=" ">
<polygon fill="#bfbfbf" stroke="black" points="204,-56.5 204,-75.5 289,-75.5 289,-56.5 204,-56.5"/>
<text text-anchor="middle" x="246.5" y="-63.5" font-family="Helvetica,sans-Serif" font-size="10.00">primary_beam.c</text>
</a>
</g>
</g>
<!-- Node2 -->
<g id="node2" class="node">
<title>Node2</title>
<g id="a_node2"><a xlink:title=" ">
<polygon fill="white" stroke="#bfbfbf" points="0,-0.5 0,-19.5 47,-19.5 47,-0.5 0,-0.5"/>
<text text-anchor="middle" x="23.5" y="-7.5" font-family="Helvetica,sans-Serif" font-size="10.00">stdlib.h</text>
</a>
</g>
</g>
<!-- Node1&#45;&gt;Node2 -->
<g id="edge1" class="edge">
<title>Node1&#45;&gt;Node2</title>
<path fill="none" stroke="midnightblue" d="M207.97,-56.43C171.42,-48.19 114.74,-35.12 57.22,-20.37"/>
<polygon fill="midnightblue" stroke="midnightblue" points="57.79,-16.91 47.24,-17.8 56.04,-23.68 57.79,-16.91"/>
</g>
<!-- Node3 -->
<g id="node3" class="node">
<title>Node3</title>
<g id="a_node3"><a xlink:title=" ">
<polygon fill="white" stroke="#bfbfbf" points="65,-0.5 65,-19.5 110,-19.5 110,-0.5 65,-0.5"/>
<text text-anchor="middle" x="87.5" y="-7.5" font-family="Helvetica,sans-Serif" font-size="10.00">stdio.h</text>
</a>
</g>
</g>
<!-- Node1&#45;&gt;Node3 -->
<g id="edge2" class="edge">
<title>Node1&#45;&gt;Node3</title>
<path fill="none" stroke="midnightblue" d="M221.31,-56.44C193.77,-47.09 149.59,-32.09 119.59,-21.9"/>
<polygon fill="midnightblue" stroke="midnightblue" points="120.6,-18.55 110.01,-18.64 118.35,-25.17 120.6,-18.55"/>
</g>
<!-- Node4 -->
<g id="node4" class="node">
<title>Node4</title>
<g id="a_node4"><a xlink:title=" ">
<polygon fill="white" stroke="#bfbfbf" points="128,-0.5 128,-19.5 171,-19.5 171,-0.5 128,-0.5"/>
<text text-anchor="middle" x="149.5" y="-7.5" font-family="Helvetica,sans-Serif" font-size="10.00">time.h</text>
</a>
</g>
</g>
<!-- Node1&#45;&gt;Node4 -->
<g id="edge3" class="edge">
<title>Node1&#45;&gt;Node4</title>
<path fill="none" stroke="midnightblue" d="M230.92,-56.32C215.5,-47.74 191.69,-34.49 173.79,-24.52"/>
<polygon fill="midnightblue" stroke="midnightblue" points="175.49,-21.46 165.05,-19.65 172.08,-27.58 175.49,-21.46"/>
</g>
<!-- Node5 -->
<g id="node5" class="node">
<title>Node5</title>
<g id="a_node5"><a xlink:title=" ">
<polygon fill="white" stroke="#bfbfbf" points="189.5,-0.5 189.5,-19.5 235.5,-19.5 235.5,-0.5 189.5,-0.5"/>
<text text-anchor="middle" x="212.5" y="-7.5" font-family="Helvetica,sans-Serif" font-size="10.00">math.h</text>
</a>
</g>
</g>
<!-- Node1&#45;&gt;Node5 -->
<g id="edge4" class="edge">
<title>Node1&#45;&gt;Node5</title>
<path fill="none" stroke="midnightblue" d="M240.89,-56.08C236.13,-48.53 229.18,-37.49 223.35,-28.23"/>
<polygon fill="midnightblue" stroke="midnightblue" points="226.3,-26.35 218.01,-19.75 220.38,-30.08 226.3,-26.35"/>
</g>
<!-- Node6 -->
<g id="node6" class="node">
<title>Node6</title>
<g id="a_node6"><a xlink:title=" ">
<polygon fill="white" stroke="#bfbfbf" points="254,-0.5 254,-19.5 309,-19.5 309,-0.5 254,-0.5"/>
<text text-anchor="middle" x="281.5" y="-7.5" font-family="Helvetica,sans-Serif" font-size="10.00">mwalib.h</text>
</a>
</g>
</g>
<!-- Node1&#45;&gt;Node6 -->
<g id="edge5" class="edge">
<title>Node1&#45;&gt;Node6</title>
<path fill="none" stroke="midnightblue" d="M252.28,-56.08C257.17,-48.53 264.33,-37.49 270.33,-28.23"/>
<polygon fill="midnightblue" stroke="midnightblue" points="273.33,-30.05 275.83,-19.75 267.45,-26.24 273.33,-30.05"/>
</g>
<!-- Node7 -->
<g id="node7" class="node">
<title>Node7</title>
<g id="a_node7"><a xlink:title=" ">
<polygon fill="white" stroke="#bfbfbf" points="327.5,-0.5 327.5,-19.5 425.5,-19.5 425.5,-0.5 327.5,-0.5"/>
<text text-anchor="middle" x="376.5" y="-7.5" font-family="Helvetica,sans-Serif" font-size="10.00">mwa_hyperbeam.h</text>
</a>
</g>
</g>
<!-- Node1&#45;&gt;Node7 -->
<g id="edge6" class="edge">
<title>Node1&#45;&gt;Node7</title>
<path fill="none" stroke="midnightblue" d="M267.1,-56.44C288.49,-47.56 322.18,-33.56 346.52,-23.45"/>
<polygon fill="midnightblue" stroke="midnightblue" points="348.11,-26.58 356,-19.52 345.42,-20.12 348.11,-26.58"/>
</g>
<!-- Node8 -->
<g id="node8" class="node">
<title>Node8</title>
<g id="a_node8"><a xlink:title=" ">
<polygon fill="white" stroke="#bfbfbf" points="443.5,-0.5 443.5,-19.5 507.5,-19.5 507.5,-0.5 443.5,-0.5"/>
<text text-anchor="middle" x="475.5" y="-7.5" font-family="Helvetica,sans-Serif" font-size="10.00">vcsbeam.h</text>
</a>
</g>
</g>
<!-- Node1&#45;&gt;Node8 -->
<g id="edge7" class="edge">
<title>Node1&#45;&gt;Node8</title>
<path fill="none" stroke="midnightblue" d="M282.79,-56.44C323.77,-46.78 390.36,-31.08 433.54,-20.89"/>
<polygon fill="midnightblue" stroke="midnightblue" points="434.52,-24.26 443.45,-18.56 432.91,-17.45 434.52,-24.26"/>
</g>
<!-- Node9 -->
<g id="node9" class="node">
<title>Node9</title>
<g id="a_node9"><a xlink:title=" ">
<polygon fill="white" stroke="#bfbfbf" points="526,-0.5 526,-19.5 603,-19.5 603,-0.5 526,-0.5"/>
<text text-anchor="middle" x="564.5" y="-7.5" font-family="Helvetica,sans-Serif" font-size="10.00">gpu_macros.h</text>
</a>
</g>
</g>
<!-- Node1&#45;&gt;Node9 -->
<g id="edge8" class="edge">
<title>Node1&#45;&gt;Node9</title>
<path fill="none" stroke="midnightblue" d="M289.1,-58.17C340.37,-49.9 429.34,-35.34 515.76,-20.1"/>
<polygon fill="midnightblue" stroke="midnightblue" points="516.5,-23.53 525.74,-18.34 515.28,-16.63 516.5,-23.53"/>
</g>
</g>
</svg>
