<?xml version="1.0" encoding="UTF-8" standalone="no"?>
<!DOCTYPE svg PUBLIC "-//W3C//DTD SVG 1.1//EN"
 "http://www.w3.org/Graphics/SVG/1.1/DTD/svg11.dtd">
<!-- Generated by graphviz version 2.44.0 ()
 -->
<!-- Title: primary_beam.c Pages: 1 -->
<svg width="542pt" height="84pt"
 viewBox="0.00 0.00 541.50 84.00" xmlns="http://www.w3.org/2000/svg" xmlns:xlink="http://www.w3.org/1999/xlink">
<g id="graph0" class="graph" transform="scale(1 1) rotate(0) translate(4 80)">
<title>primary_beam.c</title>
<polygon fill="white" stroke="transparent" points="-4,4 -4,-80 537.5,-80 537.5,4 -4,4"/>
<!-- Node1 -->
<g id="node1" class="node">
<title>Node1</title>
<g id="a_node1"><a xlink:title=" ">
<polygon fill="#bfbfbf" stroke="black" points="183,-56.5 183,-75.5 268,-75.5 268,-56.5 183,-56.5"/>
<text text-anchor="middle" x="225.5" y="-63.5" font-family="Helvetica,sans-Serif" font-size="10.00">primary_beam.c</text>
</a>
</g>
</g>
<!-- Node2 -->
<g id="node2" class="node">
<title>Node2</title>
<g id="a_node2"><a xlink:title=" ">
<polygon fill="white" stroke="#bfbfbf" points="0,-0.5 0,-19.5 47,-19.5 47,-0.5 0,-0.5"/>
<text text-anchor="middle" x="23.5" y="-7.5" font-family="Helvetica,sans-Serif" font-size="10.00">stdlib.h</text>
</a>
</g>
</g>
<!-- Node1&#45;&gt;Node2 -->
<g id="edge1" class="edge">
<title>Node1&#45;&gt;Node2</title>
<path fill="none" stroke="midnightblue" d="M192.55,-56.44C160.28,-48.02 109.46,-34.67 57.05,-20.4"/>
<polygon fill="midnightblue" stroke="midnightblue" points="57.82,-16.98 47.25,-17.72 55.98,-23.73 57.82,-16.98"/>
</g>
<!-- Node3 -->
<g id="node3" class="node">
<title>Node3</title>
<g id="a_node3"><a xlink:title=" ">
<polygon fill="white" stroke="#bfbfbf" points="65,-0.5 65,-19.5 110,-19.5 110,-0.5 65,-0.5"/>
<text text-anchor="middle" x="87.5" y="-7.5" font-family="Helvetica,sans-Serif" font-size="10.00">stdio.h</text>
</a>
</g>
</g>
<!-- Node1&#45;&gt;Node3 -->
<g id="edge2" class="edge">
<title>Node1&#45;&gt;Node3</title>
<path fill="none" stroke="midnightblue" d="M203.63,-56.44C180.72,-47.48 144.52,-33.31 118.63,-23.18"/>
<polygon fill="midnightblue" stroke="midnightblue" points="119.85,-19.9 109.26,-19.52 117.3,-26.42 119.85,-19.9"/>
</g>
<!-- Node4 -->
<g id="node4" class="node">
<title>Node4</title>
<g id="a_node4"><a xlink:title=" ">
<polygon fill="white" stroke="#bfbfbf" points="128,-0.5 128,-19.5 171,-19.5 171,-0.5 128,-0.5"/>
<text text-anchor="middle" x="149.5" y="-7.5" font-family="Helvetica,sans-Serif" font-size="10.00">time.h</text>
</a>
</g>
</g>
<!-- Node1&#45;&gt;Node4 -->
<g id="edge3" class="edge">
<title>Node1&#45;&gt;Node4</title>
<path fill="none" stroke="midnightblue" d="M213.29,-56.32C201.72,-48.11 184.12,-35.6 170.34,-25.81"/>
<polygon fill="midnightblue" stroke="midnightblue" points="172.11,-22.77 161.93,-19.83 168.06,-28.48 172.11,-22.77"/>
</g>
<!-- Node5 -->
<g id="node5" class="node">
<title>Node5</title>
<g id="a_node5"><a xlink:title=" ">
<polygon fill="white" stroke="#bfbfbf" points="189.5,-0.5 189.5,-19.5 261.5,-19.5 261.5,-0.5 189.5,-0.5"/>
<text text-anchor="middle" x="225.5" y="-7.5" font-family="Helvetica,sans-Serif" font-size="10.00">cuComplex.h</text>
</a>
</g>
</g>
<!-- Node1&#45;&gt;Node5 -->
<g id="edge4" class="edge">
<title>Node1&#45;&gt;Node5</title>
<path fill="none" stroke="midnightblue" d="M225.5,-56.08C225.5,-49.01 225.5,-38.86 225.5,-29.99"/>
<polygon fill="midnightblue" stroke="midnightblue" points="229,-29.75 225.5,-19.75 222,-29.75 229,-29.75"/>
</g>
<!-- Node6 -->
<g id="node6" class="node">
<title>Node6</title>
<g id="a_node6"><a xlink:title=" ">
<polygon fill="white" stroke="#bfbfbf" points="280,-0.5 280,-19.5 335,-19.5 335,-0.5 280,-0.5"/>
<text text-anchor="middle" x="307.5" y="-7.5" font-family="Helvetica,sans-Serif" font-size="10.00">mwalib.h</text>
</a>
</g>
</g>
<!-- Node1&#45;&gt;Node6 -->
<g id="edge5" class="edge">
<title>Node1&#45;&gt;Node6</title>
<path fill="none" stroke="midnightblue" d="M238.67,-56.32C251.35,-47.98 270.73,-35.21 285.71,-25.35"/>
<polygon fill="midnightblue" stroke="midnightblue" points="287.93,-28.08 294.36,-19.65 284.08,-22.23 287.93,-28.08"/>
</g>
<!-- Node7 -->
<g id="node7" class="node">
<title>Node7</title>
<g id="a_node7"><a xlink:title=" ">
<polygon fill="white" stroke="#bfbfbf" points="353.5,-0.5 353.5,-19.5 451.5,-19.5 451.5,-0.5 353.5,-0.5"/>
<text text-anchor="middle" x="402.5" y="-7.5" font-family="Helvetica,sans-Serif" font-size="10.00">mwa_hyperbeam.h</text>
</a>
</g>
</g>
<!-- Node1&#45;&gt;Node7 -->
<g id="edge6" class="edge">
<title>Node1&#45;&gt;Node7</title>
<path fill="none" stroke="midnightblue" d="M253.55,-56.44C283.58,-47.28 331.41,-32.69 364.74,-22.52"/>
<polygon fill="midnightblue" stroke="midnightblue" points="366.04,-25.78 374.59,-19.52 364,-19.09 366.04,-25.78"/>
</g>
<!-- Node8 -->
<g id="node8" class="node">
<title>Node8</title>
<g id="a_node8"><a xlink:title=" ">
<polygon fill="white" stroke="#bfbfbf" points="469.5,-0.5 469.5,-19.5 533.5,-19.5 533.5,-0.5 469.5,-0.5"/>
<text text-anchor="middle" x="501.5" y="-7.5" font-family="Helvetica,sans-Serif" font-size="10.00">vcsbeam.h</text>
</a>
</g>
</g>
<!-- Node1&#45;&gt;Node8 -->
<g id="edge7" class="edge">
<title>Node1&#45;&gt;Node8</title>
<path fill="none" stroke="midnightblue" d="M268.02,-57.21C313.12,-48.88 386.7,-35.05 459.49,-20.17"/>
<polygon fill="midnightblue" stroke="midnightblue" points="460.2,-23.6 469.29,-18.16 458.79,-16.74 460.2,-23.6"/>
</g>
</g>
</svg>
